%TF.GenerationSoftware,KiCad,Pcbnew,9.0.0*%
%TF.CreationDate,2025-02-27T14:29:49+01:00*%
%TF.ProjectId,CogLightBadgeTHT,436f674c-6967-4687-9442-616467655448,rev?*%
%TF.SameCoordinates,Original*%
%TF.FileFunction,Legend,Bot*%
%TF.FilePolarity,Positive*%
%FSLAX46Y46*%
G04 Gerber Fmt 4.6, Leading zero omitted, Abs format (unit mm)*
G04 Created by KiCad (PCBNEW 9.0.0) date 2025-02-27 14:29:49*
%MOMM*%
%LPD*%
G01*
G04 APERTURE LIST*
%ADD10C,0.150000*%
G04 APERTURE END LIST*
D10*
X67657647Y-135391292D02*
X68196395Y-135930040D01*
X67657647Y-135930040D02*
X68196395Y-135391292D01*
X90422705Y-121645765D02*
X90422705Y-120883861D01*
X90803658Y-121264813D02*
X90041753Y-121264813D01*
X84099303Y-111787638D02*
X84638051Y-112326386D01*
X84099303Y-112326386D02*
X84638051Y-111787638D01*
X46835680Y-62746119D02*
X47539589Y-63037688D01*
X47041850Y-63243858D02*
X47333419Y-62539950D01*
X45921455Y-87442457D02*
X46625363Y-87150889D01*
X46419193Y-87648627D02*
X46127624Y-86944719D01*
X62743407Y-105561351D02*
X63034976Y-104857442D01*
X63241146Y-105355181D02*
X62537238Y-105063612D01*
X73277148Y-109721631D02*
X74039053Y-109721631D01*
X73658100Y-110102584D02*
X73658100Y-109340679D01*
X87013239Y-105848438D02*
X87304807Y-106552346D01*
X86807069Y-106346176D02*
X87510977Y-106054607D01*
X104808061Y-89505068D02*
X105511970Y-89796637D01*
X105014231Y-90002807D02*
X105305800Y-89298899D01*
X105825615Y-65370449D02*
X106529523Y-65078881D01*
X106323353Y-65576619D02*
X106031784Y-64872711D01*
X89492050Y-47597905D02*
X89783619Y-46893996D01*
X89989789Y-47391735D02*
X89285881Y-47100166D01*
X64966005Y-45920761D02*
X65257573Y-46624669D01*
X64759835Y-46418499D02*
X65463743Y-46126930D01*
X62114918Y-126719455D02*
X62114918Y-125957551D01*
X62495871Y-126338503D02*
X61733966Y-126338503D01*
X87789825Y-132333798D02*
X88328573Y-131795050D01*
X88328573Y-132333798D02*
X87789825Y-131795050D01*
X78357395Y-138022505D02*
X79119300Y-138022505D01*
X78738347Y-138403458D02*
X78738347Y-137641553D01*
X64180924Y-115908181D02*
X64719672Y-115369433D01*
X64719672Y-115908181D02*
X64180924Y-115369433D01*
X68263503Y-108347581D02*
X68149744Y-108446244D01*
X68149744Y-108446244D02*
X68123972Y-108508461D01*
X68123972Y-108508461D02*
X68116424Y-108614673D01*
X68116424Y-108614673D02*
X68171093Y-108746656D01*
X68171093Y-108746656D02*
X68251534Y-108816421D01*
X68251534Y-108816421D02*
X68313751Y-108842192D01*
X68313751Y-108842192D02*
X68419962Y-108849741D01*
X68419962Y-108849741D02*
X68771917Y-108703956D01*
X68771917Y-108703956D02*
X68389233Y-107780077D01*
X68389233Y-107780077D02*
X68081273Y-107907638D01*
X68081273Y-107907638D02*
X68011508Y-107988078D01*
X68011508Y-107988078D02*
X67985737Y-108050296D01*
X67985737Y-108050296D02*
X67978188Y-108156507D01*
X67978188Y-108156507D02*
X68014634Y-108244496D01*
X68014634Y-108244496D02*
X68095075Y-108314261D01*
X68095075Y-108314261D02*
X68157292Y-108340032D01*
X68157292Y-108340032D02*
X68263503Y-108347581D01*
X68263503Y-108347581D02*
X68571463Y-108220020D01*
X67597336Y-108108091D02*
X67069405Y-108326768D01*
X67716054Y-109141309D02*
X67333371Y-108217429D01*
X66660192Y-109578662D02*
X67188123Y-109359985D01*
X66924157Y-109469323D02*
X66541474Y-108545444D01*
X66541474Y-108545444D02*
X66684131Y-108640981D01*
X66684131Y-108640981D02*
X66808566Y-108692523D01*
X66808566Y-108692523D02*
X66914778Y-108700071D01*
X63173301Y-95066528D02*
X63038614Y-94999185D01*
X63038614Y-94999185D02*
X62870256Y-94830826D01*
X62870256Y-94830826D02*
X62836584Y-94729811D01*
X62836584Y-94729811D02*
X62836584Y-94662467D01*
X62836584Y-94662467D02*
X62870256Y-94561452D01*
X62870256Y-94561452D02*
X62937599Y-94494108D01*
X62937599Y-94494108D02*
X63038614Y-94460437D01*
X63038614Y-94460437D02*
X63105958Y-94460437D01*
X63105958Y-94460437D02*
X63206973Y-94494108D01*
X63206973Y-94494108D02*
X63375332Y-94595124D01*
X63375332Y-94595124D02*
X63476347Y-94628795D01*
X63476347Y-94628795D02*
X63543691Y-94628795D01*
X63543691Y-94628795D02*
X63644706Y-94595124D01*
X63644706Y-94595124D02*
X63712049Y-94527780D01*
X63712049Y-94527780D02*
X63745721Y-94426765D01*
X63745721Y-94426765D02*
X63745721Y-94359421D01*
X63745721Y-94359421D02*
X63712049Y-94258406D01*
X63712049Y-94258406D02*
X63543691Y-94090047D01*
X63543691Y-94090047D02*
X63409004Y-94022704D01*
X63206973Y-93753330D02*
X62331507Y-94292078D01*
X62331507Y-94292078D02*
X62701897Y-93652314D01*
X62701897Y-93652314D02*
X62062133Y-94022704D01*
X62062133Y-94022704D02*
X62600881Y-93147238D01*
X61254012Y-93214582D02*
X61658073Y-93618643D01*
X61456042Y-93416612D02*
X62163149Y-92709506D01*
X62163149Y-92709506D02*
X62129477Y-92877864D01*
X62129477Y-92877864D02*
X62129477Y-93012551D01*
X62129477Y-93012551D02*
X62163149Y-93113567D01*
%TO.C,BT1*%
X66875189Y-109936231D02*
X67410946Y-111229662D01*
X73508551Y-108703952D02*
X72972794Y-107410520D01*
X72972794Y-107410520D02*
X66875189Y-109936231D01*
X74924480Y-112122306D02*
G75*
G02*
X68820365Y-114653250I1275520J-11702694D01*
G01*
%TO.C,SW1*%
X55305938Y-93977207D02*
X53679592Y-92350862D01*
X53679592Y-92350862D02*
X53821013Y-92209440D01*
X56790862Y-89239592D02*
X56649440Y-89381013D01*
X59760710Y-98431980D02*
X59902132Y-98290559D01*
X56790862Y-89239592D02*
X62871980Y-95320710D01*
X62871980Y-95320710D02*
X62730559Y-95462132D01*
X58134365Y-96805634D02*
X59760710Y-98431980D01*
%TD*%
M02*
