%TF.GenerationSoftware,KiCad,Pcbnew,9.0.0*%
%TF.CreationDate,2025-02-27T14:29:49+01:00*%
%TF.ProjectId,CogLightBadgeTHT,436f674c-6967-4687-9442-616467655448,rev?*%
%TF.SameCoordinates,Original*%
%TF.FileFunction,Legend,Top*%
%TF.FilePolarity,Positive*%
%FSLAX46Y46*%
G04 Gerber Fmt 4.6, Leading zero omitted, Abs format (unit mm)*
G04 Created by KiCad (PCBNEW 9.0.0) date 2025-02-27 14:29:49*
%MOMM*%
%LPD*%
G01*
G04 APERTURE LIST*
%ADD10C,0.100000*%
%ADD11C,0.150000*%
%ADD12C,0.120000*%
G04 APERTURE END LIST*
D10*
X103505000Y-80569640D02*
X48895000Y-80569640D01*
X48895000Y-68580000D01*
X103505000Y-68580000D01*
X103505000Y-80569640D01*
G36*
X103505000Y-80569640D02*
G01*
X48895000Y-80569640D01*
X48895000Y-68580000D01*
X103505000Y-68580000D01*
X103505000Y-80569640D01*
G37*
D11*
X68701134Y-129577190D02*
X69408241Y-128870084D01*
X69408241Y-128870084D02*
X69576600Y-129038442D01*
X69576600Y-129038442D02*
X69643943Y-129173129D01*
X69643943Y-129173129D02*
X69643943Y-129307816D01*
X69643943Y-129307816D02*
X69610271Y-129408832D01*
X69610271Y-129408832D02*
X69509256Y-129577190D01*
X69509256Y-129577190D02*
X69408241Y-129678206D01*
X69408241Y-129678206D02*
X69239882Y-129779221D01*
X69239882Y-129779221D02*
X69138867Y-129812893D01*
X69138867Y-129812893D02*
X69004180Y-129812893D01*
X69004180Y-129812893D02*
X68869493Y-129745549D01*
X68869493Y-129745549D02*
X68701134Y-129577190D01*
X69778630Y-130654686D02*
X69374569Y-130250625D01*
X69576600Y-130452656D02*
X70283706Y-129745549D01*
X70283706Y-129745549D02*
X70115348Y-129779221D01*
X70115348Y-129779221D02*
X69980661Y-129779221D01*
X69980661Y-129779221D02*
X69879645Y-129745549D01*
X70687768Y-130284297D02*
X70755111Y-130284297D01*
X70755111Y-130284297D02*
X70856126Y-130317969D01*
X70856126Y-130317969D02*
X71024485Y-130486328D01*
X71024485Y-130486328D02*
X71058157Y-130587343D01*
X71058157Y-130587343D02*
X71058157Y-130654687D01*
X71058157Y-130654687D02*
X71024485Y-130755702D01*
X71024485Y-130755702D02*
X70957142Y-130823045D01*
X70957142Y-130823045D02*
X70822455Y-130890389D01*
X70822455Y-130890389D02*
X70014333Y-130890389D01*
X70014333Y-130890389D02*
X70452065Y-131328122D01*
X85573658Y-125019099D02*
X84573658Y-125019099D01*
X84573658Y-125019099D02*
X84573658Y-124781004D01*
X84573658Y-124781004D02*
X84621277Y-124638147D01*
X84621277Y-124638147D02*
X84716515Y-124542909D01*
X84716515Y-124542909D02*
X84811753Y-124495290D01*
X84811753Y-124495290D02*
X85002229Y-124447671D01*
X85002229Y-124447671D02*
X85145086Y-124447671D01*
X85145086Y-124447671D02*
X85335562Y-124495290D01*
X85335562Y-124495290D02*
X85430800Y-124542909D01*
X85430800Y-124542909D02*
X85526039Y-124638147D01*
X85526039Y-124638147D02*
X85573658Y-124781004D01*
X85573658Y-124781004D02*
X85573658Y-125019099D01*
X85573658Y-123495290D02*
X85573658Y-124066718D01*
X85573658Y-123781004D02*
X84573658Y-123781004D01*
X84573658Y-123781004D02*
X84716515Y-123876242D01*
X84716515Y-123876242D02*
X84811753Y-123971480D01*
X84811753Y-123971480D02*
X84859372Y-124066718D01*
X84573658Y-122590528D02*
X84573658Y-123066718D01*
X84573658Y-123066718D02*
X85049848Y-123114337D01*
X85049848Y-123114337D02*
X85002229Y-123066718D01*
X85002229Y-123066718D02*
X84954610Y-122971480D01*
X84954610Y-122971480D02*
X84954610Y-122733385D01*
X84954610Y-122733385D02*
X85002229Y-122638147D01*
X85002229Y-122638147D02*
X85049848Y-122590528D01*
X85049848Y-122590528D02*
X85145086Y-122542909D01*
X85145086Y-122542909D02*
X85383181Y-122542909D01*
X85383181Y-122542909D02*
X85478419Y-122590528D01*
X85478419Y-122590528D02*
X85526039Y-122638147D01*
X85526039Y-122638147D02*
X85573658Y-122733385D01*
X85573658Y-122733385D02*
X85573658Y-122971480D01*
X85573658Y-122971480D02*
X85526039Y-123066718D01*
X85526039Y-123066718D02*
X85478419Y-123114337D01*
X81338556Y-116961974D02*
X82045663Y-116254868D01*
X82045663Y-116254868D02*
X82214022Y-116423226D01*
X82214022Y-116423226D02*
X82281365Y-116557913D01*
X82281365Y-116557913D02*
X82281365Y-116692600D01*
X82281365Y-116692600D02*
X82247693Y-116793616D01*
X82247693Y-116793616D02*
X82146678Y-116961974D01*
X82146678Y-116961974D02*
X82045663Y-117062990D01*
X82045663Y-117062990D02*
X81877304Y-117164005D01*
X81877304Y-117164005D02*
X81776289Y-117197677D01*
X81776289Y-117197677D02*
X81641602Y-117197677D01*
X81641602Y-117197677D02*
X81506915Y-117130333D01*
X81506915Y-117130333D02*
X81338556Y-116961974D01*
X82416052Y-118039470D02*
X82011991Y-117635409D01*
X82214022Y-117837440D02*
X82921128Y-117130333D01*
X82921128Y-117130333D02*
X82752770Y-117164005D01*
X82752770Y-117164005D02*
X82618083Y-117164005D01*
X82618083Y-117164005D02*
X82517067Y-117130333D01*
X83729251Y-117938455D02*
X83594564Y-117803768D01*
X83594564Y-117803768D02*
X83493548Y-117770097D01*
X83493548Y-117770097D02*
X83426205Y-117770097D01*
X83426205Y-117770097D02*
X83257846Y-117803768D01*
X83257846Y-117803768D02*
X83089487Y-117904784D01*
X83089487Y-117904784D02*
X82820113Y-118174158D01*
X82820113Y-118174158D02*
X82786442Y-118275173D01*
X82786442Y-118275173D02*
X82786442Y-118342516D01*
X82786442Y-118342516D02*
X82820113Y-118443532D01*
X82820113Y-118443532D02*
X82954800Y-118578219D01*
X82954800Y-118578219D02*
X83055816Y-118611890D01*
X83055816Y-118611890D02*
X83123159Y-118611890D01*
X83123159Y-118611890D02*
X83224174Y-118578219D01*
X83224174Y-118578219D02*
X83392533Y-118409860D01*
X83392533Y-118409860D02*
X83426205Y-118308845D01*
X83426205Y-118308845D02*
X83426205Y-118241501D01*
X83426205Y-118241501D02*
X83392533Y-118140486D01*
X83392533Y-118140486D02*
X83257846Y-118005799D01*
X83257846Y-118005799D02*
X83156831Y-117972127D01*
X83156831Y-117972127D02*
X83089487Y-117972127D01*
X83089487Y-117972127D02*
X82988472Y-118005799D01*
X46705159Y-68765307D02*
X47087843Y-67841427D01*
X47087843Y-67841427D02*
X47307814Y-67932542D01*
X47307814Y-67932542D02*
X47421574Y-68031206D01*
X47421574Y-68031206D02*
X47473116Y-68155640D01*
X47473116Y-68155640D02*
X47480664Y-68261852D01*
X47480664Y-68261852D02*
X47451767Y-68456052D01*
X47451767Y-68456052D02*
X47397097Y-68588035D01*
X47397097Y-68588035D02*
X47280211Y-68745789D01*
X47280211Y-68745789D02*
X47199771Y-68815554D01*
X47199771Y-68815554D02*
X47075336Y-68867097D01*
X47075336Y-68867097D02*
X46925130Y-68856422D01*
X46925130Y-68856422D02*
X46705159Y-68765307D01*
X47923734Y-68187665D02*
X48495659Y-68424564D01*
X48495659Y-68424564D02*
X48041915Y-68648957D01*
X48041915Y-68648957D02*
X48173898Y-68703626D01*
X48173898Y-68703626D02*
X48243663Y-68784066D01*
X48243663Y-68784066D02*
X48269435Y-68846284D01*
X48269435Y-68846284D02*
X48276983Y-68952495D01*
X48276983Y-68952495D02*
X48185868Y-69172466D01*
X48185868Y-69172466D02*
X48105427Y-69242232D01*
X48105427Y-69242232D02*
X48043210Y-69268003D01*
X48043210Y-69268003D02*
X47936999Y-69275551D01*
X47936999Y-69275551D02*
X47673033Y-69166213D01*
X47673033Y-69166213D02*
X47603267Y-69085773D01*
X47603267Y-69085773D02*
X47577496Y-69023556D01*
X50085370Y-91790958D02*
X49702686Y-90867079D01*
X49702686Y-90867079D02*
X49922657Y-90775964D01*
X49922657Y-90775964D02*
X50072863Y-90765289D01*
X50072863Y-90765289D02*
X50197298Y-90816831D01*
X50197298Y-90816831D02*
X50277738Y-90886597D01*
X50277738Y-90886597D02*
X50394624Y-91044351D01*
X50394624Y-91044351D02*
X50449294Y-91176334D01*
X50449294Y-91176334D02*
X50478191Y-91370534D01*
X50478191Y-91370534D02*
X50470643Y-91476745D01*
X50470643Y-91476745D02*
X50419101Y-91601180D01*
X50419101Y-91601180D02*
X50305341Y-91699843D01*
X50305341Y-91699843D02*
X50085370Y-91790958D01*
X50619017Y-90590607D02*
X50644789Y-90528389D01*
X50644789Y-90528389D02*
X50714554Y-90447949D01*
X50714554Y-90447949D02*
X50934526Y-90356834D01*
X50934526Y-90356834D02*
X51040737Y-90364382D01*
X51040737Y-90364382D02*
X51102954Y-90390154D01*
X51102954Y-90390154D02*
X51183395Y-90459919D01*
X51183395Y-90459919D02*
X51219841Y-90547908D01*
X51219841Y-90547908D02*
X51230515Y-90698113D01*
X51230515Y-90698113D02*
X50921261Y-91444721D01*
X50921261Y-91444721D02*
X51493186Y-91207821D01*
X68209741Y-106773961D02*
X67285861Y-106391277D01*
X67285861Y-106391277D02*
X67376976Y-106171306D01*
X67376976Y-106171306D02*
X67475640Y-106057546D01*
X67475640Y-106057546D02*
X67600074Y-106006004D01*
X67600074Y-106006004D02*
X67706286Y-105998456D01*
X67706286Y-105998456D02*
X67900486Y-106027353D01*
X67900486Y-106027353D02*
X68032469Y-106082023D01*
X68032469Y-106082023D02*
X68190223Y-106198909D01*
X68190223Y-106198909D02*
X68259988Y-106279349D01*
X68259988Y-106279349D02*
X68311531Y-106403784D01*
X68311531Y-106403784D02*
X68300856Y-106553990D01*
X68300856Y-106553990D02*
X68209741Y-106773961D01*
X68792878Y-105366144D02*
X68574201Y-105894076D01*
X68683539Y-105630110D02*
X67759660Y-105247427D01*
X67759660Y-105247427D02*
X67855197Y-105390084D01*
X67855197Y-105390084D02*
X67906739Y-105514519D01*
X67906739Y-105514519D02*
X67914287Y-105620730D01*
X75460005Y-115332584D02*
X75460005Y-114332584D01*
X75460005Y-114332584D02*
X75698100Y-114332584D01*
X75698100Y-114332584D02*
X75840957Y-114380203D01*
X75840957Y-114380203D02*
X75936195Y-114475441D01*
X75936195Y-114475441D02*
X75983814Y-114570679D01*
X75983814Y-114570679D02*
X76031433Y-114761155D01*
X76031433Y-114761155D02*
X76031433Y-114904012D01*
X76031433Y-114904012D02*
X75983814Y-115094488D01*
X75983814Y-115094488D02*
X75936195Y-115189726D01*
X75936195Y-115189726D02*
X75840957Y-115284965D01*
X75840957Y-115284965D02*
X75698100Y-115332584D01*
X75698100Y-115332584D02*
X75460005Y-115332584D01*
X76507624Y-115332584D02*
X76698100Y-115332584D01*
X76698100Y-115332584D02*
X76793338Y-115284965D01*
X76793338Y-115284965D02*
X76840957Y-115237345D01*
X76840957Y-115237345D02*
X76936195Y-115094488D01*
X76936195Y-115094488D02*
X76983814Y-114904012D01*
X76983814Y-114904012D02*
X76983814Y-114523060D01*
X76983814Y-114523060D02*
X76936195Y-114427822D01*
X76936195Y-114427822D02*
X76888576Y-114380203D01*
X76888576Y-114380203D02*
X76793338Y-114332584D01*
X76793338Y-114332584D02*
X76602862Y-114332584D01*
X76602862Y-114332584D02*
X76507624Y-114380203D01*
X76507624Y-114380203D02*
X76460005Y-114427822D01*
X76460005Y-114427822D02*
X76412386Y-114523060D01*
X76412386Y-114523060D02*
X76412386Y-114761155D01*
X76412386Y-114761155D02*
X76460005Y-114856393D01*
X76460005Y-114856393D02*
X76507624Y-114904012D01*
X76507624Y-114904012D02*
X76602862Y-114951631D01*
X76602862Y-114951631D02*
X76793338Y-114951631D01*
X76793338Y-114951631D02*
X76888576Y-114904012D01*
X76888576Y-114904012D02*
X76936195Y-114856393D01*
X76936195Y-114856393D02*
X76983814Y-114761155D01*
X90384486Y-101316177D02*
X91308365Y-100933493D01*
X91308365Y-100933493D02*
X91399480Y-101153464D01*
X91399480Y-101153464D02*
X91410155Y-101303670D01*
X91410155Y-101303670D02*
X91358613Y-101428105D01*
X91358613Y-101428105D02*
X91288847Y-101508545D01*
X91288847Y-101508545D02*
X91131093Y-101625431D01*
X91131093Y-101625431D02*
X90999110Y-101680101D01*
X90999110Y-101680101D02*
X90804910Y-101708998D01*
X90804910Y-101708998D02*
X90698699Y-101701450D01*
X90698699Y-101701450D02*
X90574264Y-101649908D01*
X90574264Y-101649908D02*
X90475601Y-101536148D01*
X90475601Y-101536148D02*
X90384486Y-101316177D01*
X91349770Y-102153363D02*
X91357318Y-102047151D01*
X91357318Y-102047151D02*
X91383089Y-101984934D01*
X91383089Y-101984934D02*
X91452854Y-101904494D01*
X91452854Y-101904494D02*
X91496849Y-101886270D01*
X91496849Y-101886270D02*
X91603060Y-101893819D01*
X91603060Y-101893819D02*
X91665278Y-101919590D01*
X91665278Y-101919590D02*
X91745718Y-101989355D01*
X91745718Y-101989355D02*
X91818610Y-102165333D01*
X91818610Y-102165333D02*
X91811062Y-102271544D01*
X91811062Y-102271544D02*
X91785290Y-102333761D01*
X91785290Y-102333761D02*
X91715525Y-102414202D01*
X91715525Y-102414202D02*
X91671531Y-102432425D01*
X91671531Y-102432425D02*
X91565319Y-102424876D01*
X91565319Y-102424876D02*
X91503102Y-102399105D01*
X91503102Y-102399105D02*
X91422662Y-102329340D01*
X91422662Y-102329340D02*
X91349770Y-102153363D01*
X91349770Y-102153363D02*
X91269329Y-102083597D01*
X91269329Y-102083597D02*
X91207112Y-102057826D01*
X91207112Y-102057826D02*
X91100900Y-102050278D01*
X91100900Y-102050278D02*
X90924923Y-102123170D01*
X90924923Y-102123170D02*
X90855158Y-102203610D01*
X90855158Y-102203610D02*
X90829387Y-102265827D01*
X90829387Y-102265827D02*
X90821838Y-102372039D01*
X90821838Y-102372039D02*
X90894730Y-102548016D01*
X90894730Y-102548016D02*
X90975171Y-102617781D01*
X90975171Y-102617781D02*
X91037388Y-102643553D01*
X91037388Y-102643553D02*
X91143600Y-102651101D01*
X91143600Y-102651101D02*
X91319577Y-102578209D01*
X91319577Y-102578209D02*
X91389342Y-102497769D01*
X91389342Y-102497769D02*
X91415113Y-102435551D01*
X91415113Y-102435551D02*
X91422662Y-102329340D01*
X103987100Y-83916444D02*
X104369784Y-82992564D01*
X104369784Y-82992564D02*
X104589755Y-83083679D01*
X104589755Y-83083679D02*
X104703515Y-83182343D01*
X104703515Y-83182343D02*
X104755057Y-83306777D01*
X104755057Y-83306777D02*
X104762605Y-83412989D01*
X104762605Y-83412989D02*
X104733708Y-83607189D01*
X104733708Y-83607189D02*
X104679038Y-83739172D01*
X104679038Y-83739172D02*
X104562152Y-83896926D01*
X104562152Y-83896926D02*
X104481712Y-83966691D01*
X104481712Y-83966691D02*
X104357277Y-84018234D01*
X104357277Y-84018234D02*
X104207071Y-84007559D01*
X104207071Y-84007559D02*
X103987100Y-83916444D01*
X105205675Y-83338802D02*
X105821594Y-83593924D01*
X105821594Y-83593924D02*
X105042962Y-84353796D01*
X101293354Y-61999202D02*
X100910670Y-61075323D01*
X100910670Y-61075323D02*
X101130641Y-60984208D01*
X101130641Y-60984208D02*
X101280847Y-60973533D01*
X101280847Y-60973533D02*
X101405282Y-61025075D01*
X101405282Y-61025075D02*
X101485722Y-61094841D01*
X101485722Y-61094841D02*
X101602608Y-61252595D01*
X101602608Y-61252595D02*
X101657278Y-61384578D01*
X101657278Y-61384578D02*
X101686175Y-61578778D01*
X101686175Y-61578778D02*
X101678627Y-61684989D01*
X101678627Y-61684989D02*
X101627085Y-61809424D01*
X101627085Y-61809424D02*
X101513325Y-61908087D01*
X101513325Y-61908087D02*
X101293354Y-61999202D01*
X102230498Y-60528632D02*
X102054521Y-60601524D01*
X102054521Y-60601524D02*
X101984755Y-60681964D01*
X101984755Y-60681964D02*
X101958984Y-60744182D01*
X101958984Y-60744182D02*
X101925665Y-60912610D01*
X101925665Y-60912610D02*
X101954563Y-61106811D01*
X101954563Y-61106811D02*
X102100347Y-61458765D01*
X102100347Y-61458765D02*
X102180787Y-61528530D01*
X102180787Y-61528530D02*
X102243004Y-61554301D01*
X102243004Y-61554301D02*
X102349216Y-61561850D01*
X102349216Y-61561850D02*
X102525193Y-61488958D01*
X102525193Y-61488958D02*
X102594958Y-61408517D01*
X102594958Y-61408517D02*
X102620730Y-61346300D01*
X102620730Y-61346300D02*
X102628278Y-61240088D01*
X102628278Y-61240088D02*
X102537163Y-61020117D01*
X102537163Y-61020117D02*
X102456723Y-60950352D01*
X102456723Y-60950352D02*
X102394505Y-60924580D01*
X102394505Y-60924580D02*
X102288294Y-60917032D01*
X102288294Y-60917032D02*
X102112317Y-60989924D01*
X102112317Y-60989924D02*
X102042551Y-61070365D01*
X102042551Y-61070365D02*
X102016780Y-61132582D01*
X102016780Y-61132582D02*
X102009232Y-61238793D01*
X83903426Y-48418866D02*
X82979546Y-48036182D01*
X82979546Y-48036182D02*
X83070661Y-47816211D01*
X83070661Y-47816211D02*
X83169325Y-47702451D01*
X83169325Y-47702451D02*
X83293759Y-47650909D01*
X83293759Y-47650909D02*
X83399971Y-47643361D01*
X83399971Y-47643361D02*
X83594171Y-47672258D01*
X83594171Y-47672258D02*
X83726154Y-47726928D01*
X83726154Y-47726928D02*
X83883908Y-47843814D01*
X83883908Y-47843814D02*
X83953673Y-47924254D01*
X83953673Y-47924254D02*
X84005216Y-48048689D01*
X84005216Y-48048689D02*
X83994541Y-48198895D01*
X83994541Y-48198895D02*
X83903426Y-48418866D01*
X83544460Y-46672360D02*
X83362230Y-47112303D01*
X83362230Y-47112303D02*
X83783949Y-47338527D01*
X83783949Y-47338527D02*
X83758178Y-47276310D01*
X83758178Y-47276310D02*
X83750630Y-47170099D01*
X83750630Y-47170099D02*
X83841745Y-46950127D01*
X83841745Y-46950127D02*
X83922185Y-46880362D01*
X83922185Y-46880362D02*
X83984403Y-46854590D01*
X83984403Y-46854590D02*
X84090614Y-46847042D01*
X84090614Y-46847042D02*
X84310585Y-46938157D01*
X84310585Y-46938157D02*
X84380351Y-47018598D01*
X84380351Y-47018598D02*
X84406122Y-47080815D01*
X84406122Y-47080815D02*
X84413670Y-47187026D01*
X84413670Y-47187026D02*
X84322555Y-47406998D01*
X84322555Y-47406998D02*
X84242115Y-47476763D01*
X84242115Y-47476763D02*
X84179898Y-47502535D01*
X60617504Y-50084676D02*
X61541383Y-49701992D01*
X61541383Y-49701992D02*
X61632498Y-49921963D01*
X61632498Y-49921963D02*
X61643173Y-50072169D01*
X61643173Y-50072169D02*
X61591631Y-50196604D01*
X61591631Y-50196604D02*
X61521865Y-50277044D01*
X61521865Y-50277044D02*
X61364111Y-50393930D01*
X61364111Y-50393930D02*
X61232128Y-50448600D01*
X61232128Y-50448600D02*
X61037928Y-50477497D01*
X61037928Y-50477497D02*
X60931717Y-50469949D01*
X60931717Y-50469949D02*
X60807282Y-50418407D01*
X60807282Y-50418407D02*
X60708619Y-50304647D01*
X60708619Y-50304647D02*
X60617504Y-50084676D01*
X61780114Y-51149381D02*
X61164194Y-51404503D01*
X62040953Y-50783626D02*
X61289924Y-50837000D01*
X61289924Y-50837000D02*
X61526823Y-51408925D01*
X67725871Y-125012789D02*
X66725871Y-125012789D01*
X66725871Y-125012789D02*
X66725871Y-124774694D01*
X66725871Y-124774694D02*
X66773490Y-124631837D01*
X66773490Y-124631837D02*
X66868728Y-124536599D01*
X66868728Y-124536599D02*
X66963966Y-124488980D01*
X66963966Y-124488980D02*
X67154442Y-124441361D01*
X67154442Y-124441361D02*
X67297299Y-124441361D01*
X67297299Y-124441361D02*
X67487775Y-124488980D01*
X67487775Y-124488980D02*
X67583013Y-124536599D01*
X67583013Y-124536599D02*
X67678252Y-124631837D01*
X67678252Y-124631837D02*
X67725871Y-124774694D01*
X67725871Y-124774694D02*
X67725871Y-125012789D01*
X67725871Y-123488980D02*
X67725871Y-124060408D01*
X67725871Y-123774694D02*
X66725871Y-123774694D01*
X66725871Y-123774694D02*
X66868728Y-123869932D01*
X66868728Y-123869932D02*
X66963966Y-123965170D01*
X66963966Y-123965170D02*
X67011585Y-124060408D01*
X67725871Y-122536599D02*
X67725871Y-123108027D01*
X67725871Y-122822313D02*
X66725871Y-122822313D01*
X66725871Y-122822313D02*
X66868728Y-122917551D01*
X66868728Y-122917551D02*
X66963966Y-123012789D01*
X66963966Y-123012789D02*
X67011585Y-123108027D01*
X81975723Y-131290311D02*
X81268617Y-130583204D01*
X81268617Y-130583204D02*
X81436975Y-130414845D01*
X81436975Y-130414845D02*
X81571662Y-130347502D01*
X81571662Y-130347502D02*
X81706349Y-130347502D01*
X81706349Y-130347502D02*
X81807365Y-130381174D01*
X81807365Y-130381174D02*
X81975723Y-130482189D01*
X81975723Y-130482189D02*
X82076739Y-130583204D01*
X82076739Y-130583204D02*
X82177754Y-130751563D01*
X82177754Y-130751563D02*
X82211426Y-130852578D01*
X82211426Y-130852578D02*
X82211426Y-130987265D01*
X82211426Y-130987265D02*
X82144082Y-131121952D01*
X82144082Y-131121952D02*
X81975723Y-131290311D01*
X83053219Y-130212815D02*
X82649158Y-130616876D01*
X82851189Y-130414845D02*
X82144082Y-129707739D01*
X82144082Y-129707739D02*
X82177754Y-129876097D01*
X82177754Y-129876097D02*
X82177754Y-130010784D01*
X82177754Y-130010784D02*
X82144082Y-130111800D01*
X83187907Y-129135319D02*
X83659311Y-129606723D01*
X82750174Y-129034303D02*
X83086891Y-129707738D01*
X83086891Y-129707738D02*
X83524624Y-129270006D01*
X76509714Y-133296819D02*
X76509714Y-132296819D01*
X76509714Y-132296819D02*
X76747809Y-132296819D01*
X76747809Y-132296819D02*
X76890666Y-132344438D01*
X76890666Y-132344438D02*
X76985904Y-132439676D01*
X76985904Y-132439676D02*
X77033523Y-132534914D01*
X77033523Y-132534914D02*
X77081142Y-132725390D01*
X77081142Y-132725390D02*
X77081142Y-132868247D01*
X77081142Y-132868247D02*
X77033523Y-133058723D01*
X77033523Y-133058723D02*
X76985904Y-133153961D01*
X76985904Y-133153961D02*
X76890666Y-133249200D01*
X76890666Y-133249200D02*
X76747809Y-133296819D01*
X76747809Y-133296819D02*
X76509714Y-133296819D01*
X78033523Y-133296819D02*
X77462095Y-133296819D01*
X77747809Y-133296819D02*
X77747809Y-132296819D01*
X77747809Y-132296819D02*
X77652571Y-132439676D01*
X77652571Y-132439676D02*
X77557333Y-132534914D01*
X77557333Y-132534914D02*
X77462095Y-132582533D01*
X78366857Y-132296819D02*
X78985904Y-132296819D01*
X78985904Y-132296819D02*
X78652571Y-132677771D01*
X78652571Y-132677771D02*
X78795428Y-132677771D01*
X78795428Y-132677771D02*
X78890666Y-132725390D01*
X78890666Y-132725390D02*
X78938285Y-132773009D01*
X78938285Y-132773009D02*
X78985904Y-132868247D01*
X78985904Y-132868247D02*
X78985904Y-133106342D01*
X78985904Y-133106342D02*
X78938285Y-133201580D01*
X78938285Y-133201580D02*
X78890666Y-133249200D01*
X78890666Y-133249200D02*
X78795428Y-133296819D01*
X78795428Y-133296819D02*
X78509714Y-133296819D01*
X78509714Y-133296819D02*
X78414476Y-133249200D01*
X78414476Y-133249200D02*
X78366857Y-133201580D01*
X70328975Y-117512235D02*
X69621869Y-116805128D01*
X69621869Y-116805128D02*
X69790227Y-116636769D01*
X69790227Y-116636769D02*
X69924914Y-116569426D01*
X69924914Y-116569426D02*
X70059601Y-116569426D01*
X70059601Y-116569426D02*
X70160617Y-116603098D01*
X70160617Y-116603098D02*
X70328975Y-116704113D01*
X70328975Y-116704113D02*
X70429991Y-116805128D01*
X70429991Y-116805128D02*
X70531006Y-116973487D01*
X70531006Y-116973487D02*
X70564678Y-117074502D01*
X70564678Y-117074502D02*
X70564678Y-117209189D01*
X70564678Y-117209189D02*
X70497334Y-117343876D01*
X70497334Y-117343876D02*
X70328975Y-117512235D01*
X71406471Y-116434739D02*
X71002410Y-116838800D01*
X71204441Y-116636769D02*
X70497334Y-115929663D01*
X70497334Y-115929663D02*
X70531006Y-116098021D01*
X70531006Y-116098021D02*
X70531006Y-116232708D01*
X70531006Y-116232708D02*
X70497334Y-116333724D01*
X71137098Y-115289899D02*
X71204441Y-115222556D01*
X71204441Y-115222556D02*
X71305456Y-115188884D01*
X71305456Y-115188884D02*
X71372800Y-115188884D01*
X71372800Y-115188884D02*
X71473815Y-115222556D01*
X71473815Y-115222556D02*
X71642174Y-115323571D01*
X71642174Y-115323571D02*
X71810533Y-115491930D01*
X71810533Y-115491930D02*
X71911548Y-115660288D01*
X71911548Y-115660288D02*
X71945220Y-115761304D01*
X71945220Y-115761304D02*
X71945220Y-115828647D01*
X71945220Y-115828647D02*
X71911548Y-115929662D01*
X71911548Y-115929662D02*
X71844204Y-115997006D01*
X71844204Y-115997006D02*
X71743189Y-116030678D01*
X71743189Y-116030678D02*
X71675846Y-116030678D01*
X71675846Y-116030678D02*
X71574830Y-115997006D01*
X71574830Y-115997006D02*
X71406472Y-115895991D01*
X71406472Y-115895991D02*
X71238113Y-115727632D01*
X71238113Y-115727632D02*
X71137098Y-115559273D01*
X71137098Y-115559273D02*
X71103426Y-115458258D01*
X71103426Y-115458258D02*
X71103426Y-115390914D01*
X71103426Y-115390914D02*
X71137098Y-115289899D01*
X84963095Y-87084819D02*
X84963095Y-87894342D01*
X84963095Y-87894342D02*
X85010714Y-87989580D01*
X85010714Y-87989580D02*
X85058333Y-88037200D01*
X85058333Y-88037200D02*
X85153571Y-88084819D01*
X85153571Y-88084819D02*
X85344047Y-88084819D01*
X85344047Y-88084819D02*
X85439285Y-88037200D01*
X85439285Y-88037200D02*
X85486904Y-87989580D01*
X85486904Y-87989580D02*
X85534523Y-87894342D01*
X85534523Y-87894342D02*
X85534523Y-87084819D01*
X86534523Y-88084819D02*
X85963095Y-88084819D01*
X86248809Y-88084819D02*
X86248809Y-87084819D01*
X86248809Y-87084819D02*
X86153571Y-87227676D01*
X86153571Y-87227676D02*
X86058333Y-87322914D01*
X86058333Y-87322914D02*
X85963095Y-87370533D01*
X71200000Y-91609104D02*
X71676190Y-91609104D01*
X71104762Y-91894819D02*
X71438095Y-90894819D01*
X71438095Y-90894819D02*
X71771428Y-91894819D01*
X71961905Y-90894819D02*
X72533333Y-90894819D01*
X72247619Y-91894819D02*
X72247619Y-90894819D01*
X72723810Y-91228152D02*
X73104762Y-91228152D01*
X72866667Y-90894819D02*
X72866667Y-91751961D01*
X72866667Y-91751961D02*
X72914286Y-91847200D01*
X72914286Y-91847200D02*
X73009524Y-91894819D01*
X73009524Y-91894819D02*
X73104762Y-91894819D01*
X73438096Y-91894819D02*
X73438096Y-91228152D01*
X73438096Y-90894819D02*
X73390477Y-90942438D01*
X73390477Y-90942438D02*
X73438096Y-90990057D01*
X73438096Y-90990057D02*
X73485715Y-90942438D01*
X73485715Y-90942438D02*
X73438096Y-90894819D01*
X73438096Y-90894819D02*
X73438096Y-90990057D01*
X73914286Y-91228152D02*
X73914286Y-91894819D01*
X73914286Y-91323390D02*
X73961905Y-91275771D01*
X73961905Y-91275771D02*
X74057143Y-91228152D01*
X74057143Y-91228152D02*
X74200000Y-91228152D01*
X74200000Y-91228152D02*
X74295238Y-91275771D01*
X74295238Y-91275771D02*
X74342857Y-91371009D01*
X74342857Y-91371009D02*
X74342857Y-91894819D01*
X74723810Y-91228152D02*
X74961905Y-91894819D01*
X75200000Y-91228152D02*
X74961905Y-91894819D01*
X74961905Y-91894819D02*
X74866667Y-92132914D01*
X74866667Y-92132914D02*
X74819048Y-92180533D01*
X74819048Y-92180533D02*
X74723810Y-92228152D01*
X75723810Y-91323390D02*
X75628572Y-91275771D01*
X75628572Y-91275771D02*
X75580953Y-91228152D01*
X75580953Y-91228152D02*
X75533334Y-91132914D01*
X75533334Y-91132914D02*
X75533334Y-91085295D01*
X75533334Y-91085295D02*
X75580953Y-90990057D01*
X75580953Y-90990057D02*
X75628572Y-90942438D01*
X75628572Y-90942438D02*
X75723810Y-90894819D01*
X75723810Y-90894819D02*
X75914286Y-90894819D01*
X75914286Y-90894819D02*
X76009524Y-90942438D01*
X76009524Y-90942438D02*
X76057143Y-90990057D01*
X76057143Y-90990057D02*
X76104762Y-91085295D01*
X76104762Y-91085295D02*
X76104762Y-91132914D01*
X76104762Y-91132914D02*
X76057143Y-91228152D01*
X76057143Y-91228152D02*
X76009524Y-91275771D01*
X76009524Y-91275771D02*
X75914286Y-91323390D01*
X75914286Y-91323390D02*
X75723810Y-91323390D01*
X75723810Y-91323390D02*
X75628572Y-91371009D01*
X75628572Y-91371009D02*
X75580953Y-91418628D01*
X75580953Y-91418628D02*
X75533334Y-91513866D01*
X75533334Y-91513866D02*
X75533334Y-91704342D01*
X75533334Y-91704342D02*
X75580953Y-91799580D01*
X75580953Y-91799580D02*
X75628572Y-91847200D01*
X75628572Y-91847200D02*
X75723810Y-91894819D01*
X75723810Y-91894819D02*
X75914286Y-91894819D01*
X75914286Y-91894819D02*
X76009524Y-91847200D01*
X76009524Y-91847200D02*
X76057143Y-91799580D01*
X76057143Y-91799580D02*
X76104762Y-91704342D01*
X76104762Y-91704342D02*
X76104762Y-91513866D01*
X76104762Y-91513866D02*
X76057143Y-91418628D01*
X76057143Y-91418628D02*
X76009524Y-91371009D01*
X76009524Y-91371009D02*
X75914286Y-91323390D01*
X76961905Y-91228152D02*
X76961905Y-91894819D01*
X76723810Y-90847200D02*
X76485715Y-91561485D01*
X76485715Y-91561485D02*
X77104762Y-91561485D01*
X77438096Y-91609104D02*
X77914286Y-91609104D01*
X77342858Y-91894819D02*
X77676191Y-90894819D01*
X77676191Y-90894819D02*
X78009524Y-91894819D01*
X78342858Y-91513866D02*
X79104763Y-91513866D01*
X79580953Y-91894819D02*
X79580953Y-90894819D01*
X79580953Y-90894819D02*
X79961905Y-90894819D01*
X79961905Y-90894819D02*
X80057143Y-90942438D01*
X80057143Y-90942438D02*
X80104762Y-90990057D01*
X80104762Y-90990057D02*
X80152381Y-91085295D01*
X80152381Y-91085295D02*
X80152381Y-91228152D01*
X80152381Y-91228152D02*
X80104762Y-91323390D01*
X80104762Y-91323390D02*
X80057143Y-91371009D01*
X80057143Y-91371009D02*
X79961905Y-91418628D01*
X79961905Y-91418628D02*
X79580953Y-91418628D01*
X80580953Y-90894819D02*
X80580953Y-91704342D01*
X80580953Y-91704342D02*
X80628572Y-91799580D01*
X80628572Y-91799580D02*
X80676191Y-91847200D01*
X80676191Y-91847200D02*
X80771429Y-91894819D01*
X80771429Y-91894819D02*
X80961905Y-91894819D01*
X80961905Y-91894819D02*
X81057143Y-91847200D01*
X81057143Y-91847200D02*
X81104762Y-91799580D01*
X81104762Y-91799580D02*
X81152381Y-91704342D01*
X81152381Y-91704342D02*
X81152381Y-90894819D01*
X74128333Y-97990819D02*
X73795000Y-97514628D01*
X73556905Y-97990819D02*
X73556905Y-96990819D01*
X73556905Y-96990819D02*
X73937857Y-96990819D01*
X73937857Y-96990819D02*
X74033095Y-97038438D01*
X74033095Y-97038438D02*
X74080714Y-97086057D01*
X74080714Y-97086057D02*
X74128333Y-97181295D01*
X74128333Y-97181295D02*
X74128333Y-97324152D01*
X74128333Y-97324152D02*
X74080714Y-97419390D01*
X74080714Y-97419390D02*
X74033095Y-97467009D01*
X74033095Y-97467009D02*
X73937857Y-97514628D01*
X73937857Y-97514628D02*
X73556905Y-97514628D01*
X74461667Y-96990819D02*
X75080714Y-96990819D01*
X75080714Y-96990819D02*
X74747381Y-97371771D01*
X74747381Y-97371771D02*
X74890238Y-97371771D01*
X74890238Y-97371771D02*
X74985476Y-97419390D01*
X74985476Y-97419390D02*
X75033095Y-97467009D01*
X75033095Y-97467009D02*
X75080714Y-97562247D01*
X75080714Y-97562247D02*
X75080714Y-97800342D01*
X75080714Y-97800342D02*
X75033095Y-97895580D01*
X75033095Y-97895580D02*
X74985476Y-97943200D01*
X74985476Y-97943200D02*
X74890238Y-97990819D01*
X74890238Y-97990819D02*
X74604524Y-97990819D01*
X74604524Y-97990819D02*
X74509286Y-97943200D01*
X74509286Y-97943200D02*
X74461667Y-97895580D01*
X73749819Y-104155713D02*
X73749819Y-103536666D01*
X73749819Y-103536666D02*
X74130771Y-103869999D01*
X74130771Y-103869999D02*
X74130771Y-103727142D01*
X74130771Y-103727142D02*
X74178390Y-103631904D01*
X74178390Y-103631904D02*
X74226009Y-103584285D01*
X74226009Y-103584285D02*
X74321247Y-103536666D01*
X74321247Y-103536666D02*
X74559342Y-103536666D01*
X74559342Y-103536666D02*
X74654580Y-103584285D01*
X74654580Y-103584285D02*
X74702200Y-103631904D01*
X74702200Y-103631904D02*
X74749819Y-103727142D01*
X74749819Y-103727142D02*
X74749819Y-104012856D01*
X74749819Y-104012856D02*
X74702200Y-104108094D01*
X74702200Y-104108094D02*
X74654580Y-104155713D01*
X73749819Y-103203332D02*
X73749819Y-102584285D01*
X73749819Y-102584285D02*
X74130771Y-102917618D01*
X74130771Y-102917618D02*
X74130771Y-102774761D01*
X74130771Y-102774761D02*
X74178390Y-102679523D01*
X74178390Y-102679523D02*
X74226009Y-102631904D01*
X74226009Y-102631904D02*
X74321247Y-102584285D01*
X74321247Y-102584285D02*
X74559342Y-102584285D01*
X74559342Y-102584285D02*
X74654580Y-102631904D01*
X74654580Y-102631904D02*
X74702200Y-102679523D01*
X74702200Y-102679523D02*
X74749819Y-102774761D01*
X74749819Y-102774761D02*
X74749819Y-103060475D01*
X74749819Y-103060475D02*
X74702200Y-103155713D01*
X74702200Y-103155713D02*
X74654580Y-103203332D01*
X73749819Y-101965237D02*
X73749819Y-101869999D01*
X73749819Y-101869999D02*
X73797438Y-101774761D01*
X73797438Y-101774761D02*
X73845057Y-101727142D01*
X73845057Y-101727142D02*
X73940295Y-101679523D01*
X73940295Y-101679523D02*
X74130771Y-101631904D01*
X74130771Y-101631904D02*
X74368866Y-101631904D01*
X74368866Y-101631904D02*
X74559342Y-101679523D01*
X74559342Y-101679523D02*
X74654580Y-101727142D01*
X74654580Y-101727142D02*
X74702200Y-101774761D01*
X74702200Y-101774761D02*
X74749819Y-101869999D01*
X74749819Y-101869999D02*
X74749819Y-101965237D01*
X74749819Y-101965237D02*
X74702200Y-102060475D01*
X74702200Y-102060475D02*
X74654580Y-102108094D01*
X74654580Y-102108094D02*
X74559342Y-102155713D01*
X74559342Y-102155713D02*
X74368866Y-102203332D01*
X74368866Y-102203332D02*
X74130771Y-102203332D01*
X74130771Y-102203332D02*
X73940295Y-102155713D01*
X73940295Y-102155713D02*
X73845057Y-102108094D01*
X73845057Y-102108094D02*
X73797438Y-102060475D01*
X73797438Y-102060475D02*
X73749819Y-101965237D01*
X70318333Y-97990819D02*
X69985000Y-97514628D01*
X69746905Y-97990819D02*
X69746905Y-96990819D01*
X69746905Y-96990819D02*
X70127857Y-96990819D01*
X70127857Y-96990819D02*
X70223095Y-97038438D01*
X70223095Y-97038438D02*
X70270714Y-97086057D01*
X70270714Y-97086057D02*
X70318333Y-97181295D01*
X70318333Y-97181295D02*
X70318333Y-97324152D01*
X70318333Y-97324152D02*
X70270714Y-97419390D01*
X70270714Y-97419390D02*
X70223095Y-97467009D01*
X70223095Y-97467009D02*
X70127857Y-97514628D01*
X70127857Y-97514628D02*
X69746905Y-97514628D01*
X71175476Y-97324152D02*
X71175476Y-97990819D01*
X70937381Y-96943200D02*
X70699286Y-97657485D01*
X70699286Y-97657485D02*
X71318333Y-97657485D01*
X69939819Y-104155713D02*
X69939819Y-103536666D01*
X69939819Y-103536666D02*
X70320771Y-103869999D01*
X70320771Y-103869999D02*
X70320771Y-103727142D01*
X70320771Y-103727142D02*
X70368390Y-103631904D01*
X70368390Y-103631904D02*
X70416009Y-103584285D01*
X70416009Y-103584285D02*
X70511247Y-103536666D01*
X70511247Y-103536666D02*
X70749342Y-103536666D01*
X70749342Y-103536666D02*
X70844580Y-103584285D01*
X70844580Y-103584285D02*
X70892200Y-103631904D01*
X70892200Y-103631904D02*
X70939819Y-103727142D01*
X70939819Y-103727142D02*
X70939819Y-104012856D01*
X70939819Y-104012856D02*
X70892200Y-104108094D01*
X70892200Y-104108094D02*
X70844580Y-104155713D01*
X69939819Y-103203332D02*
X69939819Y-102584285D01*
X69939819Y-102584285D02*
X70320771Y-102917618D01*
X70320771Y-102917618D02*
X70320771Y-102774761D01*
X70320771Y-102774761D02*
X70368390Y-102679523D01*
X70368390Y-102679523D02*
X70416009Y-102631904D01*
X70416009Y-102631904D02*
X70511247Y-102584285D01*
X70511247Y-102584285D02*
X70749342Y-102584285D01*
X70749342Y-102584285D02*
X70844580Y-102631904D01*
X70844580Y-102631904D02*
X70892200Y-102679523D01*
X70892200Y-102679523D02*
X70939819Y-102774761D01*
X70939819Y-102774761D02*
X70939819Y-103060475D01*
X70939819Y-103060475D02*
X70892200Y-103155713D01*
X70892200Y-103155713D02*
X70844580Y-103203332D01*
X69939819Y-101965237D02*
X69939819Y-101869999D01*
X69939819Y-101869999D02*
X69987438Y-101774761D01*
X69987438Y-101774761D02*
X70035057Y-101727142D01*
X70035057Y-101727142D02*
X70130295Y-101679523D01*
X70130295Y-101679523D02*
X70320771Y-101631904D01*
X70320771Y-101631904D02*
X70558866Y-101631904D01*
X70558866Y-101631904D02*
X70749342Y-101679523D01*
X70749342Y-101679523D02*
X70844580Y-101727142D01*
X70844580Y-101727142D02*
X70892200Y-101774761D01*
X70892200Y-101774761D02*
X70939819Y-101869999D01*
X70939819Y-101869999D02*
X70939819Y-101965237D01*
X70939819Y-101965237D02*
X70892200Y-102060475D01*
X70892200Y-102060475D02*
X70844580Y-102108094D01*
X70844580Y-102108094D02*
X70749342Y-102155713D01*
X70749342Y-102155713D02*
X70558866Y-102203332D01*
X70558866Y-102203332D02*
X70320771Y-102203332D01*
X70320771Y-102203332D02*
X70130295Y-102155713D01*
X70130295Y-102155713D02*
X70035057Y-102108094D01*
X70035057Y-102108094D02*
X69987438Y-102060475D01*
X69987438Y-102060475D02*
X69939819Y-101965237D01*
X81748333Y-97990819D02*
X81415000Y-97514628D01*
X81176905Y-97990819D02*
X81176905Y-96990819D01*
X81176905Y-96990819D02*
X81557857Y-96990819D01*
X81557857Y-96990819D02*
X81653095Y-97038438D01*
X81653095Y-97038438D02*
X81700714Y-97086057D01*
X81700714Y-97086057D02*
X81748333Y-97181295D01*
X81748333Y-97181295D02*
X81748333Y-97324152D01*
X81748333Y-97324152D02*
X81700714Y-97419390D01*
X81700714Y-97419390D02*
X81653095Y-97467009D01*
X81653095Y-97467009D02*
X81557857Y-97514628D01*
X81557857Y-97514628D02*
X81176905Y-97514628D01*
X82700714Y-97990819D02*
X82129286Y-97990819D01*
X82415000Y-97990819D02*
X82415000Y-96990819D01*
X82415000Y-96990819D02*
X82319762Y-97133676D01*
X82319762Y-97133676D02*
X82224524Y-97228914D01*
X82224524Y-97228914D02*
X82129286Y-97276533D01*
X81369819Y-104155713D02*
X81369819Y-103536666D01*
X81369819Y-103536666D02*
X81750771Y-103869999D01*
X81750771Y-103869999D02*
X81750771Y-103727142D01*
X81750771Y-103727142D02*
X81798390Y-103631904D01*
X81798390Y-103631904D02*
X81846009Y-103584285D01*
X81846009Y-103584285D02*
X81941247Y-103536666D01*
X81941247Y-103536666D02*
X82179342Y-103536666D01*
X82179342Y-103536666D02*
X82274580Y-103584285D01*
X82274580Y-103584285D02*
X82322200Y-103631904D01*
X82322200Y-103631904D02*
X82369819Y-103727142D01*
X82369819Y-103727142D02*
X82369819Y-104012856D01*
X82369819Y-104012856D02*
X82322200Y-104108094D01*
X82322200Y-104108094D02*
X82274580Y-104155713D01*
X81369819Y-103203332D02*
X81369819Y-102584285D01*
X81369819Y-102584285D02*
X81750771Y-102917618D01*
X81750771Y-102917618D02*
X81750771Y-102774761D01*
X81750771Y-102774761D02*
X81798390Y-102679523D01*
X81798390Y-102679523D02*
X81846009Y-102631904D01*
X81846009Y-102631904D02*
X81941247Y-102584285D01*
X81941247Y-102584285D02*
X82179342Y-102584285D01*
X82179342Y-102584285D02*
X82274580Y-102631904D01*
X82274580Y-102631904D02*
X82322200Y-102679523D01*
X82322200Y-102679523D02*
X82369819Y-102774761D01*
X82369819Y-102774761D02*
X82369819Y-103060475D01*
X82369819Y-103060475D02*
X82322200Y-103155713D01*
X82322200Y-103155713D02*
X82274580Y-103203332D01*
X81369819Y-101965237D02*
X81369819Y-101869999D01*
X81369819Y-101869999D02*
X81417438Y-101774761D01*
X81417438Y-101774761D02*
X81465057Y-101727142D01*
X81465057Y-101727142D02*
X81560295Y-101679523D01*
X81560295Y-101679523D02*
X81750771Y-101631904D01*
X81750771Y-101631904D02*
X81988866Y-101631904D01*
X81988866Y-101631904D02*
X82179342Y-101679523D01*
X82179342Y-101679523D02*
X82274580Y-101727142D01*
X82274580Y-101727142D02*
X82322200Y-101774761D01*
X82322200Y-101774761D02*
X82369819Y-101869999D01*
X82369819Y-101869999D02*
X82369819Y-101965237D01*
X82369819Y-101965237D02*
X82322200Y-102060475D01*
X82322200Y-102060475D02*
X82274580Y-102108094D01*
X82274580Y-102108094D02*
X82179342Y-102155713D01*
X82179342Y-102155713D02*
X81988866Y-102203332D01*
X81988866Y-102203332D02*
X81750771Y-102203332D01*
X81750771Y-102203332D02*
X81560295Y-102155713D01*
X81560295Y-102155713D02*
X81465057Y-102108094D01*
X81465057Y-102108094D02*
X81417438Y-102060475D01*
X81417438Y-102060475D02*
X81369819Y-101965237D01*
X77938333Y-97990819D02*
X77605000Y-97514628D01*
X77366905Y-97990819D02*
X77366905Y-96990819D01*
X77366905Y-96990819D02*
X77747857Y-96990819D01*
X77747857Y-96990819D02*
X77843095Y-97038438D01*
X77843095Y-97038438D02*
X77890714Y-97086057D01*
X77890714Y-97086057D02*
X77938333Y-97181295D01*
X77938333Y-97181295D02*
X77938333Y-97324152D01*
X77938333Y-97324152D02*
X77890714Y-97419390D01*
X77890714Y-97419390D02*
X77843095Y-97467009D01*
X77843095Y-97467009D02*
X77747857Y-97514628D01*
X77747857Y-97514628D02*
X77366905Y-97514628D01*
X78319286Y-97086057D02*
X78366905Y-97038438D01*
X78366905Y-97038438D02*
X78462143Y-96990819D01*
X78462143Y-96990819D02*
X78700238Y-96990819D01*
X78700238Y-96990819D02*
X78795476Y-97038438D01*
X78795476Y-97038438D02*
X78843095Y-97086057D01*
X78843095Y-97086057D02*
X78890714Y-97181295D01*
X78890714Y-97181295D02*
X78890714Y-97276533D01*
X78890714Y-97276533D02*
X78843095Y-97419390D01*
X78843095Y-97419390D02*
X78271667Y-97990819D01*
X78271667Y-97990819D02*
X78890714Y-97990819D01*
X77559819Y-104155713D02*
X77559819Y-103536666D01*
X77559819Y-103536666D02*
X77940771Y-103869999D01*
X77940771Y-103869999D02*
X77940771Y-103727142D01*
X77940771Y-103727142D02*
X77988390Y-103631904D01*
X77988390Y-103631904D02*
X78036009Y-103584285D01*
X78036009Y-103584285D02*
X78131247Y-103536666D01*
X78131247Y-103536666D02*
X78369342Y-103536666D01*
X78369342Y-103536666D02*
X78464580Y-103584285D01*
X78464580Y-103584285D02*
X78512200Y-103631904D01*
X78512200Y-103631904D02*
X78559819Y-103727142D01*
X78559819Y-103727142D02*
X78559819Y-104012856D01*
X78559819Y-104012856D02*
X78512200Y-104108094D01*
X78512200Y-104108094D02*
X78464580Y-104155713D01*
X77559819Y-103203332D02*
X77559819Y-102584285D01*
X77559819Y-102584285D02*
X77940771Y-102917618D01*
X77940771Y-102917618D02*
X77940771Y-102774761D01*
X77940771Y-102774761D02*
X77988390Y-102679523D01*
X77988390Y-102679523D02*
X78036009Y-102631904D01*
X78036009Y-102631904D02*
X78131247Y-102584285D01*
X78131247Y-102584285D02*
X78369342Y-102584285D01*
X78369342Y-102584285D02*
X78464580Y-102631904D01*
X78464580Y-102631904D02*
X78512200Y-102679523D01*
X78512200Y-102679523D02*
X78559819Y-102774761D01*
X78559819Y-102774761D02*
X78559819Y-103060475D01*
X78559819Y-103060475D02*
X78512200Y-103155713D01*
X78512200Y-103155713D02*
X78464580Y-103203332D01*
X77559819Y-101965237D02*
X77559819Y-101869999D01*
X77559819Y-101869999D02*
X77607438Y-101774761D01*
X77607438Y-101774761D02*
X77655057Y-101727142D01*
X77655057Y-101727142D02*
X77750295Y-101679523D01*
X77750295Y-101679523D02*
X77940771Y-101631904D01*
X77940771Y-101631904D02*
X78178866Y-101631904D01*
X78178866Y-101631904D02*
X78369342Y-101679523D01*
X78369342Y-101679523D02*
X78464580Y-101727142D01*
X78464580Y-101727142D02*
X78512200Y-101774761D01*
X78512200Y-101774761D02*
X78559819Y-101869999D01*
X78559819Y-101869999D02*
X78559819Y-101965237D01*
X78559819Y-101965237D02*
X78512200Y-102060475D01*
X78512200Y-102060475D02*
X78464580Y-102108094D01*
X78464580Y-102108094D02*
X78369342Y-102155713D01*
X78369342Y-102155713D02*
X78178866Y-102203332D01*
X78178866Y-102203332D02*
X77940771Y-102203332D01*
X77940771Y-102203332D02*
X77750295Y-102155713D01*
X77750295Y-102155713D02*
X77655057Y-102108094D01*
X77655057Y-102108094D02*
X77607438Y-102060475D01*
X77607438Y-102060475D02*
X77559819Y-101965237D01*
X91124580Y-97321666D02*
X91172200Y-97369285D01*
X91172200Y-97369285D02*
X91219819Y-97512142D01*
X91219819Y-97512142D02*
X91219819Y-97607380D01*
X91219819Y-97607380D02*
X91172200Y-97750237D01*
X91172200Y-97750237D02*
X91076961Y-97845475D01*
X91076961Y-97845475D02*
X90981723Y-97893094D01*
X90981723Y-97893094D02*
X90791247Y-97940713D01*
X90791247Y-97940713D02*
X90648390Y-97940713D01*
X90648390Y-97940713D02*
X90457914Y-97893094D01*
X90457914Y-97893094D02*
X90362676Y-97845475D01*
X90362676Y-97845475D02*
X90267438Y-97750237D01*
X90267438Y-97750237D02*
X90219819Y-97607380D01*
X90219819Y-97607380D02*
X90219819Y-97512142D01*
X90219819Y-97512142D02*
X90267438Y-97369285D01*
X90267438Y-97369285D02*
X90315057Y-97321666D01*
X91219819Y-96369285D02*
X91219819Y-96940713D01*
X91219819Y-96654999D02*
X90219819Y-96654999D01*
X90219819Y-96654999D02*
X90362676Y-96750237D01*
X90362676Y-96750237D02*
X90457914Y-96845475D01*
X90457914Y-96845475D02*
X90505533Y-96940713D01*
X88624580Y-97202142D02*
X88672200Y-97154523D01*
X88672200Y-97154523D02*
X88719819Y-97202142D01*
X88719819Y-97202142D02*
X88672200Y-97249761D01*
X88672200Y-97249761D02*
X88624580Y-97202142D01*
X88624580Y-97202142D02*
X88719819Y-97202142D01*
X88719819Y-96202143D02*
X88719819Y-96773571D01*
X88719819Y-96487857D02*
X87719819Y-96487857D01*
X87719819Y-96487857D02*
X87862676Y-96583095D01*
X87862676Y-96583095D02*
X87957914Y-96678333D01*
X87957914Y-96678333D02*
X88005533Y-96773571D01*
X88053152Y-95345000D02*
X88719819Y-95345000D01*
X88053152Y-95773571D02*
X88576961Y-95773571D01*
X88576961Y-95773571D02*
X88672200Y-95725952D01*
X88672200Y-95725952D02*
X88719819Y-95630714D01*
X88719819Y-95630714D02*
X88719819Y-95487857D01*
X88719819Y-95487857D02*
X88672200Y-95392619D01*
X88672200Y-95392619D02*
X88624580Y-95345000D01*
X88196009Y-94535476D02*
X88196009Y-94868809D01*
X88719819Y-94868809D02*
X87719819Y-94868809D01*
X87719819Y-94868809D02*
X87719819Y-94392619D01*
X70953333Y-81734819D02*
X70620000Y-81258628D01*
X70381905Y-81734819D02*
X70381905Y-80734819D01*
X70381905Y-80734819D02*
X70762857Y-80734819D01*
X70762857Y-80734819D02*
X70858095Y-80782438D01*
X70858095Y-80782438D02*
X70905714Y-80830057D01*
X70905714Y-80830057D02*
X70953333Y-80925295D01*
X70953333Y-80925295D02*
X70953333Y-81068152D01*
X70953333Y-81068152D02*
X70905714Y-81163390D01*
X70905714Y-81163390D02*
X70858095Y-81211009D01*
X70858095Y-81211009D02*
X70762857Y-81258628D01*
X70762857Y-81258628D02*
X70381905Y-81258628D01*
X71858095Y-80734819D02*
X71381905Y-80734819D01*
X71381905Y-80734819D02*
X71334286Y-81211009D01*
X71334286Y-81211009D02*
X71381905Y-81163390D01*
X71381905Y-81163390D02*
X71477143Y-81115771D01*
X71477143Y-81115771D02*
X71715238Y-81115771D01*
X71715238Y-81115771D02*
X71810476Y-81163390D01*
X71810476Y-81163390D02*
X71858095Y-81211009D01*
X71858095Y-81211009D02*
X71905714Y-81306247D01*
X71905714Y-81306247D02*
X71905714Y-81544342D01*
X71905714Y-81544342D02*
X71858095Y-81639580D01*
X71858095Y-81639580D02*
X71810476Y-81687200D01*
X71810476Y-81687200D02*
X71715238Y-81734819D01*
X71715238Y-81734819D02*
X71477143Y-81734819D01*
X71477143Y-81734819D02*
X71381905Y-81687200D01*
X71381905Y-81687200D02*
X71334286Y-81639580D01*
X70524761Y-84274819D02*
X69953333Y-84274819D01*
X70239047Y-84274819D02*
X70239047Y-83274819D01*
X70239047Y-83274819D02*
X70143809Y-83417676D01*
X70143809Y-83417676D02*
X70048571Y-83512914D01*
X70048571Y-83512914D02*
X69953333Y-83560533D01*
X71143809Y-83274819D02*
X71239047Y-83274819D01*
X71239047Y-83274819D02*
X71334285Y-83322438D01*
X71334285Y-83322438D02*
X71381904Y-83370057D01*
X71381904Y-83370057D02*
X71429523Y-83465295D01*
X71429523Y-83465295D02*
X71477142Y-83655771D01*
X71477142Y-83655771D02*
X71477142Y-83893866D01*
X71477142Y-83893866D02*
X71429523Y-84084342D01*
X71429523Y-84084342D02*
X71381904Y-84179580D01*
X71381904Y-84179580D02*
X71334285Y-84227200D01*
X71334285Y-84227200D02*
X71239047Y-84274819D01*
X71239047Y-84274819D02*
X71143809Y-84274819D01*
X71143809Y-84274819D02*
X71048571Y-84227200D01*
X71048571Y-84227200D02*
X71000952Y-84179580D01*
X71000952Y-84179580D02*
X70953333Y-84084342D01*
X70953333Y-84084342D02*
X70905714Y-83893866D01*
X70905714Y-83893866D02*
X70905714Y-83655771D01*
X70905714Y-83655771D02*
X70953333Y-83465295D01*
X70953333Y-83465295D02*
X71000952Y-83370057D01*
X71000952Y-83370057D02*
X71048571Y-83322438D01*
X71048571Y-83322438D02*
X71143809Y-83274819D01*
X71905714Y-84274819D02*
X71905714Y-83274819D01*
X72000952Y-83893866D02*
X72286666Y-84274819D01*
X72286666Y-83608152D02*
X71905714Y-83989104D01*
X60261667Y-81837200D02*
X60404524Y-81884819D01*
X60404524Y-81884819D02*
X60642619Y-81884819D01*
X60642619Y-81884819D02*
X60737857Y-81837200D01*
X60737857Y-81837200D02*
X60785476Y-81789580D01*
X60785476Y-81789580D02*
X60833095Y-81694342D01*
X60833095Y-81694342D02*
X60833095Y-81599104D01*
X60833095Y-81599104D02*
X60785476Y-81503866D01*
X60785476Y-81503866D02*
X60737857Y-81456247D01*
X60737857Y-81456247D02*
X60642619Y-81408628D01*
X60642619Y-81408628D02*
X60452143Y-81361009D01*
X60452143Y-81361009D02*
X60356905Y-81313390D01*
X60356905Y-81313390D02*
X60309286Y-81265771D01*
X60309286Y-81265771D02*
X60261667Y-81170533D01*
X60261667Y-81170533D02*
X60261667Y-81075295D01*
X60261667Y-81075295D02*
X60309286Y-80980057D01*
X60309286Y-80980057D02*
X60356905Y-80932438D01*
X60356905Y-80932438D02*
X60452143Y-80884819D01*
X60452143Y-80884819D02*
X60690238Y-80884819D01*
X60690238Y-80884819D02*
X60833095Y-80932438D01*
X61166429Y-80884819D02*
X61404524Y-81884819D01*
X61404524Y-81884819D02*
X61595000Y-81170533D01*
X61595000Y-81170533D02*
X61785476Y-81884819D01*
X61785476Y-81884819D02*
X62023572Y-80884819D01*
X62356905Y-80980057D02*
X62404524Y-80932438D01*
X62404524Y-80932438D02*
X62499762Y-80884819D01*
X62499762Y-80884819D02*
X62737857Y-80884819D01*
X62737857Y-80884819D02*
X62833095Y-80932438D01*
X62833095Y-80932438D02*
X62880714Y-80980057D01*
X62880714Y-80980057D02*
X62928333Y-81075295D01*
X62928333Y-81075295D02*
X62928333Y-81170533D01*
X62928333Y-81170533D02*
X62880714Y-81313390D01*
X62880714Y-81313390D02*
X62309286Y-81884819D01*
X62309286Y-81884819D02*
X62928333Y-81884819D01*
X81113333Y-81734819D02*
X80780000Y-81258628D01*
X80541905Y-81734819D02*
X80541905Y-80734819D01*
X80541905Y-80734819D02*
X80922857Y-80734819D01*
X80922857Y-80734819D02*
X81018095Y-80782438D01*
X81018095Y-80782438D02*
X81065714Y-80830057D01*
X81065714Y-80830057D02*
X81113333Y-80925295D01*
X81113333Y-80925295D02*
X81113333Y-81068152D01*
X81113333Y-81068152D02*
X81065714Y-81163390D01*
X81065714Y-81163390D02*
X81018095Y-81211009D01*
X81018095Y-81211009D02*
X80922857Y-81258628D01*
X80922857Y-81258628D02*
X80541905Y-81258628D01*
X81970476Y-80734819D02*
X81780000Y-80734819D01*
X81780000Y-80734819D02*
X81684762Y-80782438D01*
X81684762Y-80782438D02*
X81637143Y-80830057D01*
X81637143Y-80830057D02*
X81541905Y-80972914D01*
X81541905Y-80972914D02*
X81494286Y-81163390D01*
X81494286Y-81163390D02*
X81494286Y-81544342D01*
X81494286Y-81544342D02*
X81541905Y-81639580D01*
X81541905Y-81639580D02*
X81589524Y-81687200D01*
X81589524Y-81687200D02*
X81684762Y-81734819D01*
X81684762Y-81734819D02*
X81875238Y-81734819D01*
X81875238Y-81734819D02*
X81970476Y-81687200D01*
X81970476Y-81687200D02*
X82018095Y-81639580D01*
X82018095Y-81639580D02*
X82065714Y-81544342D01*
X82065714Y-81544342D02*
X82065714Y-81306247D01*
X82065714Y-81306247D02*
X82018095Y-81211009D01*
X82018095Y-81211009D02*
X81970476Y-81163390D01*
X81970476Y-81163390D02*
X81875238Y-81115771D01*
X81875238Y-81115771D02*
X81684762Y-81115771D01*
X81684762Y-81115771D02*
X81589524Y-81163390D01*
X81589524Y-81163390D02*
X81541905Y-81211009D01*
X81541905Y-81211009D02*
X81494286Y-81306247D01*
X80684761Y-84274819D02*
X80113333Y-84274819D01*
X80399047Y-84274819D02*
X80399047Y-83274819D01*
X80399047Y-83274819D02*
X80303809Y-83417676D01*
X80303809Y-83417676D02*
X80208571Y-83512914D01*
X80208571Y-83512914D02*
X80113333Y-83560533D01*
X81303809Y-83274819D02*
X81399047Y-83274819D01*
X81399047Y-83274819D02*
X81494285Y-83322438D01*
X81494285Y-83322438D02*
X81541904Y-83370057D01*
X81541904Y-83370057D02*
X81589523Y-83465295D01*
X81589523Y-83465295D02*
X81637142Y-83655771D01*
X81637142Y-83655771D02*
X81637142Y-83893866D01*
X81637142Y-83893866D02*
X81589523Y-84084342D01*
X81589523Y-84084342D02*
X81541904Y-84179580D01*
X81541904Y-84179580D02*
X81494285Y-84227200D01*
X81494285Y-84227200D02*
X81399047Y-84274819D01*
X81399047Y-84274819D02*
X81303809Y-84274819D01*
X81303809Y-84274819D02*
X81208571Y-84227200D01*
X81208571Y-84227200D02*
X81160952Y-84179580D01*
X81160952Y-84179580D02*
X81113333Y-84084342D01*
X81113333Y-84084342D02*
X81065714Y-83893866D01*
X81065714Y-83893866D02*
X81065714Y-83655771D01*
X81065714Y-83655771D02*
X81113333Y-83465295D01*
X81113333Y-83465295D02*
X81160952Y-83370057D01*
X81160952Y-83370057D02*
X81208571Y-83322438D01*
X81208571Y-83322438D02*
X81303809Y-83274819D01*
X82065714Y-84274819D02*
X82065714Y-83274819D01*
X82160952Y-83893866D02*
X82446666Y-84274819D01*
X82446666Y-83608152D02*
X82065714Y-83989104D01*
X89471667Y-81837200D02*
X89614524Y-81884819D01*
X89614524Y-81884819D02*
X89852619Y-81884819D01*
X89852619Y-81884819D02*
X89947857Y-81837200D01*
X89947857Y-81837200D02*
X89995476Y-81789580D01*
X89995476Y-81789580D02*
X90043095Y-81694342D01*
X90043095Y-81694342D02*
X90043095Y-81599104D01*
X90043095Y-81599104D02*
X89995476Y-81503866D01*
X89995476Y-81503866D02*
X89947857Y-81456247D01*
X89947857Y-81456247D02*
X89852619Y-81408628D01*
X89852619Y-81408628D02*
X89662143Y-81361009D01*
X89662143Y-81361009D02*
X89566905Y-81313390D01*
X89566905Y-81313390D02*
X89519286Y-81265771D01*
X89519286Y-81265771D02*
X89471667Y-81170533D01*
X89471667Y-81170533D02*
X89471667Y-81075295D01*
X89471667Y-81075295D02*
X89519286Y-80980057D01*
X89519286Y-80980057D02*
X89566905Y-80932438D01*
X89566905Y-80932438D02*
X89662143Y-80884819D01*
X89662143Y-80884819D02*
X89900238Y-80884819D01*
X89900238Y-80884819D02*
X90043095Y-80932438D01*
X90376429Y-80884819D02*
X90614524Y-81884819D01*
X90614524Y-81884819D02*
X90805000Y-81170533D01*
X90805000Y-81170533D02*
X90995476Y-81884819D01*
X90995476Y-81884819D02*
X91233572Y-80884819D01*
X91519286Y-80884819D02*
X92138333Y-80884819D01*
X92138333Y-80884819D02*
X91805000Y-81265771D01*
X91805000Y-81265771D02*
X91947857Y-81265771D01*
X91947857Y-81265771D02*
X92043095Y-81313390D01*
X92043095Y-81313390D02*
X92090714Y-81361009D01*
X92090714Y-81361009D02*
X92138333Y-81456247D01*
X92138333Y-81456247D02*
X92138333Y-81694342D01*
X92138333Y-81694342D02*
X92090714Y-81789580D01*
X92090714Y-81789580D02*
X92043095Y-81837200D01*
X92043095Y-81837200D02*
X91947857Y-81884819D01*
X91947857Y-81884819D02*
X91662143Y-81884819D01*
X91662143Y-81884819D02*
X91566905Y-81837200D01*
X91566905Y-81837200D02*
X91519286Y-81789580D01*
X82216666Y-54699819D02*
X82216666Y-55414104D01*
X82216666Y-55414104D02*
X82169047Y-55556961D01*
X82169047Y-55556961D02*
X82073809Y-55652200D01*
X82073809Y-55652200D02*
X81930952Y-55699819D01*
X81930952Y-55699819D02*
X81835714Y-55699819D01*
X83216666Y-55699819D02*
X82645238Y-55699819D01*
X82930952Y-55699819D02*
X82930952Y-54699819D01*
X82930952Y-54699819D02*
X82835714Y-54842676D01*
X82835714Y-54842676D02*
X82740476Y-54937914D01*
X82740476Y-54937914D02*
X82645238Y-54985533D01*
X67479104Y-64594999D02*
X67479104Y-64118809D01*
X67764819Y-64690237D02*
X66764819Y-64356904D01*
X66764819Y-64356904D02*
X67764819Y-64023571D01*
X66764819Y-63833094D02*
X67764819Y-63499761D01*
X67764819Y-63499761D02*
X66764819Y-63166428D01*
X67764819Y-62261666D02*
X67288628Y-62594999D01*
X67764819Y-62833094D02*
X66764819Y-62833094D01*
X66764819Y-62833094D02*
X66764819Y-62452142D01*
X66764819Y-62452142D02*
X66812438Y-62356904D01*
X66812438Y-62356904D02*
X66860057Y-62309285D01*
X66860057Y-62309285D02*
X66955295Y-62261666D01*
X66955295Y-62261666D02*
X67098152Y-62261666D01*
X67098152Y-62261666D02*
X67193390Y-62309285D01*
X67193390Y-62309285D02*
X67241009Y-62356904D01*
X67241009Y-62356904D02*
X67288628Y-62452142D01*
X67288628Y-62452142D02*
X67288628Y-62833094D01*
X67383866Y-61833094D02*
X67383866Y-61071190D01*
X67764819Y-60594999D02*
X66764819Y-60594999D01*
X67717200Y-60166428D02*
X67764819Y-60023571D01*
X67764819Y-60023571D02*
X67764819Y-59785476D01*
X67764819Y-59785476D02*
X67717200Y-59690238D01*
X67717200Y-59690238D02*
X67669580Y-59642619D01*
X67669580Y-59642619D02*
X67574342Y-59595000D01*
X67574342Y-59595000D02*
X67479104Y-59595000D01*
X67479104Y-59595000D02*
X67383866Y-59642619D01*
X67383866Y-59642619D02*
X67336247Y-59690238D01*
X67336247Y-59690238D02*
X67288628Y-59785476D01*
X67288628Y-59785476D02*
X67241009Y-59975952D01*
X67241009Y-59975952D02*
X67193390Y-60071190D01*
X67193390Y-60071190D02*
X67145771Y-60118809D01*
X67145771Y-60118809D02*
X67050533Y-60166428D01*
X67050533Y-60166428D02*
X66955295Y-60166428D01*
X66955295Y-60166428D02*
X66860057Y-60118809D01*
X66860057Y-60118809D02*
X66812438Y-60071190D01*
X66812438Y-60071190D02*
X66764819Y-59975952D01*
X66764819Y-59975952D02*
X66764819Y-59737857D01*
X66764819Y-59737857D02*
X66812438Y-59595000D01*
X67764819Y-59166428D02*
X66764819Y-59166428D01*
X66764819Y-59166428D02*
X66764819Y-58785476D01*
X66764819Y-58785476D02*
X66812438Y-58690238D01*
X66812438Y-58690238D02*
X66860057Y-58642619D01*
X66860057Y-58642619D02*
X66955295Y-58595000D01*
X66955295Y-58595000D02*
X67098152Y-58595000D01*
X67098152Y-58595000D02*
X67193390Y-58642619D01*
X67193390Y-58642619D02*
X67241009Y-58690238D01*
X67241009Y-58690238D02*
X67288628Y-58785476D01*
X67288628Y-58785476D02*
X67288628Y-59166428D01*
D12*
%TO.C,D12*%
X66363514Y-130011684D02*
X64178554Y-132196644D01*
X69581228Y-132914358D02*
G75*
G02*
X64581228Y-132914358I-2500000J0D01*
G01*
X64581228Y-132914358D02*
G75*
G02*
X69581228Y-132914358I2500000J0D01*
G01*
X66363394Y-130011804D02*
G75*
G02*
X69195151Y-135028935I717834J-2902554D01*
G01*
X69195804Y-135028280D02*
G75*
G02*
X64178675Y-132196524I-2114576J2113922D01*
G01*
%TO.C,D15*%
X87533839Y-126364814D02*
X90623839Y-126364814D01*
X91578839Y-123804814D02*
G75*
G02*
X86578839Y-123804814I-2500000J0D01*
G01*
X86578839Y-123804814D02*
G75*
G02*
X91578839Y-123804814I2500000J0D01*
G01*
X87534009Y-126364814D02*
G75*
G02*
X89079301Y-120814814I1544830J2560000D01*
G01*
X89078377Y-120814814D02*
G75*
G02*
X90623669Y-126364814I462J-2990000D01*
G01*
%TO.C,D16*%
X86036648Y-117601530D02*
X88221608Y-115416570D01*
X87818934Y-114698856D02*
G75*
G02*
X82818934Y-114698856I-2500000J0D01*
G01*
X82818934Y-114698856D02*
G75*
G02*
X87818934Y-114698856I2500000J0D01*
G01*
X86036768Y-117601410D02*
G75*
G02*
X83205011Y-112584279I-717834J2902554D01*
G01*
X83204358Y-112584934D02*
G75*
G02*
X88221487Y-115416690I2114576J-2113922D01*
G01*
%TO.C,D3*%
X51576548Y-64969003D02*
G75*
G02*
X46576548Y-64969003I-2500000J0D01*
G01*
X46576548Y-64969003D02*
G75*
G02*
X51576548Y-64969003I2500000J0D01*
G01*
X50850434Y-67376067D02*
X52032925Y-64521279D01*
X46313971Y-63825206D02*
G75*
G02*
X52032861Y-64521436I2762577J-1143797D01*
G01*
X50850499Y-67375909D02*
G75*
G02*
X46314325Y-63824353I-1773951J2406906D01*
G01*
%TO.C,D2*%
X51577803Y-87429741D02*
G75*
G02*
X46577803Y-87429741I-2500000J0D01*
G01*
X46577803Y-87429741D02*
G75*
G02*
X51577803Y-87429741I2500000J0D01*
G01*
X52034180Y-87877465D02*
X50851689Y-85022677D01*
X46315580Y-88574391D02*
G75*
G02*
X50851754Y-85022835I2762223J1144650D01*
G01*
X52034115Y-87877308D02*
G75*
G02*
X46315227Y-88573538I-2956312J447567D01*
G01*
%TO.C,D1*%
X67466291Y-103320484D02*
G75*
G02*
X62466291Y-103320484I-2500000J0D01*
G01*
X62466291Y-103320484D02*
G75*
G02*
X67466291Y-103320484I2500000J0D01*
G01*
X67373355Y-101546598D02*
X64518567Y-100364107D01*
X63822494Y-106083061D02*
G75*
G02*
X64518724Y-100364171I1143797J2762577D01*
G01*
X67373197Y-101546533D02*
G75*
G02*
X63821641Y-106082707I-2406906J-1773951D01*
G01*
%TO.C,D9*%
X78758100Y-112462765D02*
X78758100Y-109372765D01*
X78698100Y-110917765D02*
G75*
G02*
X73698100Y-110917765I-2500000J0D01*
G01*
X73698100Y-110917765D02*
G75*
G02*
X78698100Y-110917765I2500000J0D01*
G01*
X78758100Y-112462595D02*
G75*
G02*
X73208100Y-110917303I-2560000J1544830D01*
G01*
X73208100Y-110918227D02*
G75*
G02*
X78758100Y-109372935I2990000J462D01*
G01*
%TO.C,D8*%
X89928578Y-103339462D02*
G75*
G02*
X84928578Y-103339462I-2500000J0D01*
G01*
X84928578Y-103339462D02*
G75*
G02*
X89928578Y-103339462I2500000J0D01*
G01*
X87876302Y-100383085D02*
X85021514Y-101565576D01*
X88573228Y-106101685D02*
G75*
G02*
X85021672Y-101565511I-1144650J2762223D01*
G01*
X87876145Y-100383150D02*
G75*
G02*
X88572375Y-106102038I-447567J-2956312D01*
G01*
%TO.C,D7*%
X101553751Y-85030202D02*
X100371260Y-87884990D01*
X105827637Y-87437266D02*
G75*
G02*
X100827637Y-87437266I-2500000J0D01*
G01*
X100827637Y-87437266D02*
G75*
G02*
X105827637Y-87437266I2500000J0D01*
G01*
X101553686Y-85030360D02*
G75*
G02*
X106089860Y-88581916I1773951J-2406906D01*
G01*
X106090214Y-88581063D02*
G75*
G02*
X100371324Y-87884833I-2762577J1143797D01*
G01*
%TO.C,D6*%
X100360262Y-64507387D02*
X101542753Y-67362175D01*
X105816639Y-64955111D02*
G75*
G02*
X100816639Y-64955111I-2500000J0D01*
G01*
X100816639Y-64955111D02*
G75*
G02*
X105816639Y-64955111I2500000J0D01*
G01*
X100360327Y-64507544D02*
G75*
G02*
X106079215Y-63811314I2956312J-447567D01*
G01*
X106078862Y-63810461D02*
G75*
G02*
X101542688Y-67362017I-2762223J-1144650D01*
G01*
%TO.C,D5*%
X89924248Y-49078330D02*
G75*
G02*
X84924248Y-49078330I-2500000J0D01*
G01*
X84924248Y-49078330D02*
G75*
G02*
X89924248Y-49078330I2500000J0D01*
G01*
X85017184Y-50852216D02*
X87871972Y-52034707D01*
X88568045Y-46315753D02*
G75*
G02*
X87871815Y-52034643I-1143797J-2762577D01*
G01*
X85017342Y-50852281D02*
G75*
G02*
X88568898Y-46316107I2406906J1773951D01*
G01*
%TO.C,D4*%
X64530998Y-52033486D02*
X67385786Y-50850995D01*
X67478722Y-49077109D02*
G75*
G02*
X62478722Y-49077109I-2500000J0D01*
G01*
X62478722Y-49077109D02*
G75*
G02*
X67478722Y-49077109I2500000J0D01*
G01*
X63834072Y-46314886D02*
G75*
G02*
X67385628Y-50851060I1144650J-2762223D01*
G01*
X64531155Y-52033421D02*
G75*
G02*
X63834925Y-46314533I447567J2956312D01*
G01*
%TO.C,D11*%
X65811052Y-123798504D02*
G75*
G02*
X60811052Y-123798504I-2500000J0D01*
G01*
X60811052Y-123798504D02*
G75*
G02*
X65811052Y-123798504I2500000J0D01*
G01*
X64856052Y-121238504D02*
X61766052Y-121238504D01*
X63311514Y-126788504D02*
G75*
G02*
X61766222Y-121238504I-462J2990000D01*
G01*
X64855882Y-121238504D02*
G75*
G02*
X63310590Y-126788504I-1544830J-2560000D01*
G01*
%TO.C,D14*%
X87812891Y-132910218D02*
G75*
G02*
X82812891Y-132910218I-2500000J0D01*
G01*
X82812891Y-132910218D02*
G75*
G02*
X87812891Y-132910218I2500000J0D01*
G01*
X82410217Y-133627932D02*
X84595177Y-135812892D01*
X87426813Y-130795642D02*
G75*
G02*
X84595057Y-135812771I-2113922J-2114576D01*
G01*
X82410337Y-133628052D02*
G75*
G02*
X87427468Y-130796295I2902554J717834D01*
G01*
%TO.C,D13*%
X73638347Y-135133639D02*
X73638347Y-138223639D01*
X78698347Y-136678639D02*
G75*
G02*
X73698347Y-136678639I-2500000J0D01*
G01*
X73698347Y-136678639D02*
G75*
G02*
X78698347Y-136678639I2500000J0D01*
G01*
X73638347Y-135133809D02*
G75*
G02*
X79188347Y-136679101I2560000J-1544830D01*
G01*
X79188347Y-136678177D02*
G75*
G02*
X73638347Y-138223469I-2990000J-462D01*
G01*
%TO.C,D10*%
X69592142Y-114688551D02*
G75*
G02*
X64592142Y-114688551I-2500000J0D01*
G01*
X64592142Y-114688551D02*
G75*
G02*
X69592142Y-114688551I2500000J0D01*
G01*
X69994816Y-113970837D02*
X67809856Y-111785877D01*
X64978220Y-116803127D02*
G75*
G02*
X67809976Y-111785998I2113922J2114576D01*
G01*
X69994696Y-113970717D02*
G75*
G02*
X64977565Y-116802474I-2902554J-717834D01*
G01*
%TO.C,U1*%
X85150000Y-93690000D02*
X85150000Y-92440000D01*
X67250000Y-93690000D02*
X85150000Y-93690000D01*
X67250000Y-89190000D02*
X67250000Y-93690000D01*
X85150000Y-89190000D02*
X67250000Y-89190000D01*
X85150000Y-90440000D02*
X85150000Y-89190000D01*
X85150000Y-92440000D02*
G75*
G02*
X85150000Y-90440000I0J1000000D01*
G01*
%TO.C,R3*%
X75665000Y-99600000D02*
X75335000Y-99600000D01*
X75665000Y-106140000D02*
X75665000Y-99600000D01*
X75335000Y-106140000D02*
X75665000Y-106140000D01*
X72925000Y-99600000D02*
X73255000Y-99600000D01*
X72925000Y-106140000D02*
X72925000Y-99600000D01*
X73255000Y-106140000D02*
X72925000Y-106140000D01*
%TO.C,R4*%
X69445000Y-106140000D02*
X69115000Y-106140000D01*
X69115000Y-106140000D02*
X69115000Y-99600000D01*
X69115000Y-99600000D02*
X69445000Y-99600000D01*
X71525000Y-106140000D02*
X71855000Y-106140000D01*
X71855000Y-106140000D02*
X71855000Y-99600000D01*
X71855000Y-99600000D02*
X71525000Y-99600000D01*
%TO.C,R1*%
X83285000Y-99600000D02*
X82955000Y-99600000D01*
X83285000Y-106140000D02*
X83285000Y-99600000D01*
X82955000Y-106140000D02*
X83285000Y-106140000D01*
X80545000Y-99600000D02*
X80875000Y-99600000D01*
X80545000Y-106140000D02*
X80545000Y-99600000D01*
X80875000Y-106140000D02*
X80545000Y-106140000D01*
%TO.C,R2*%
X77065000Y-106140000D02*
X76735000Y-106140000D01*
X76735000Y-106140000D02*
X76735000Y-99600000D01*
X76735000Y-99600000D02*
X77065000Y-99600000D01*
X79145000Y-106140000D02*
X79475000Y-106140000D01*
X79475000Y-106140000D02*
X79475000Y-99600000D01*
X79475000Y-99600000D02*
X79145000Y-99600000D01*
%TO.C,C1*%
X87210000Y-98465000D02*
X86895000Y-98465000D01*
X89635000Y-98465000D02*
X89320000Y-98465000D01*
X87210000Y-93225000D02*
X86895000Y-93225000D01*
X89635000Y-93225000D02*
X89320000Y-93225000D01*
X86895000Y-93225000D02*
X86895000Y-98465000D01*
X89635000Y-93225000D02*
X89635000Y-98465000D01*
%TO.C,R5*%
X74390000Y-84860000D02*
X74390000Y-85190000D01*
X74390000Y-85190000D02*
X67850000Y-85190000D01*
X67850000Y-85190000D02*
X67850000Y-84860000D01*
X74390000Y-82780000D02*
X74390000Y-82450000D01*
X74390000Y-82450000D02*
X67850000Y-82450000D01*
X67850000Y-82450000D02*
X67850000Y-82780000D01*
%TO.C,SW2*%
X61135000Y-90570000D02*
X62635000Y-90570000D01*
X65135000Y-89320000D02*
X65135000Y-84820000D01*
X62635000Y-83570000D02*
X61135000Y-83570000D01*
X58635000Y-84820000D02*
X58635000Y-89320000D01*
%TO.C,R6*%
X84550000Y-85190000D02*
X84550000Y-84860000D01*
X78010000Y-85190000D02*
X84550000Y-85190000D01*
X78010000Y-84860000D02*
X78010000Y-85190000D01*
X84550000Y-82450000D02*
X84550000Y-82780000D01*
X78010000Y-82450000D02*
X84550000Y-82450000D01*
X78010000Y-82780000D02*
X78010000Y-82450000D01*
%TO.C,SW3*%
X93765000Y-89320000D02*
X93765000Y-84820000D01*
X89765000Y-90570000D02*
X91265000Y-90570000D01*
X87265000Y-84820000D02*
X87265000Y-89320000D01*
X91265000Y-83570000D02*
X89765000Y-83570000D01*
%TO.C,J1*%
X78240000Y-55645000D02*
X78740000Y-56645000D01*
X79240000Y-55645000D02*
X78240000Y-55645000D01*
X78740000Y-56645000D02*
X79240000Y-55645000D01*
X74150000Y-58345000D02*
X74150000Y-57035000D01*
X74150000Y-58345000D02*
X74150000Y-58345000D01*
X69750000Y-58345000D02*
X74150000Y-58345000D01*
X69750000Y-64845000D02*
X69750000Y-58345000D01*
X82650000Y-64845000D02*
X69750000Y-64845000D01*
X82650000Y-58345000D02*
X82650000Y-64845000D01*
X78250000Y-58345000D02*
X82650000Y-58345000D01*
X78250000Y-57035000D02*
X78250000Y-58345000D01*
X68450000Y-57035000D02*
X83950000Y-57035000D01*
X68450000Y-66155000D02*
X68450000Y-57035000D01*
X83950000Y-66155000D02*
X68450000Y-66155000D01*
X83950000Y-57035000D02*
X83950000Y-66155000D01*
%TD*%
M02*
