%TF.GenerationSoftware,KiCad,Pcbnew,9.0.0*%
%TF.CreationDate,2025-02-27T14:29:49+01:00*%
%TF.ProjectId,CogLightBadgeTHT,436f674c-6967-4687-9442-616467655448,rev?*%
%TF.SameCoordinates,Original*%
%TF.FileFunction,Copper,L2,Bot*%
%TF.FilePolarity,Positive*%
%FSLAX46Y46*%
G04 Gerber Fmt 4.6, Leading zero omitted, Abs format (unit mm)*
G04 Created by KiCad (PCBNEW 9.0.0) date 2025-02-27 14:29:49*
%MOMM*%
%LPD*%
G01*
G04 APERTURE LIST*
G04 Aperture macros list*
%AMRoundRect*
0 Rectangle with rounded corners*
0 $1 Rounding radius*
0 $2 $3 $4 $5 $6 $7 $8 $9 X,Y pos of 4 corners*
0 Add a 4 corners polygon primitive as box body*
4,1,4,$2,$3,$4,$5,$6,$7,$8,$9,$2,$3,0*
0 Add four circle primitives for the rounded corners*
1,1,$1+$1,$2,$3*
1,1,$1+$1,$4,$5*
1,1,$1+$1,$6,$7*
1,1,$1+$1,$8,$9*
0 Add four rect primitives between the rounded corners*
20,1,$1+$1,$2,$3,$4,$5,0*
20,1,$1+$1,$4,$5,$6,$7,0*
20,1,$1+$1,$6,$7,$8,$9,0*
20,1,$1+$1,$8,$9,$2,$3,0*%
%AMHorizOval*
0 Thick line with rounded ends*
0 $1 width*
0 $2 $3 position (X,Y) of the first rounded end (center of the circle)*
0 $4 $5 position (X,Y) of the second rounded end (center of the circle)*
0 Add line between two ends*
20,1,$1,$2,$3,$4,$5,0*
0 Add two circle primitives to create the rounded ends*
1,1,$1,$2,$3*
1,1,$1,$4,$5*%
%AMRotRect*
0 Rectangle, with rotation*
0 The origin of the aperture is its center*
0 $1 length*
0 $2 width*
0 $3 Rotation angle, in degrees counterclockwise*
0 Add horizontal line*
21,1,$1,$2,0,0,$3*%
G04 Aperture macros list end*
%TA.AperFunction,ComponentPad*%
%ADD10RotRect,1.800000X1.800000X315.000000*%
%TD*%
%TA.AperFunction,ComponentPad*%
%ADD11C,1.800000*%
%TD*%
%TA.AperFunction,ComponentPad*%
%ADD12R,1.800000X1.800000*%
%TD*%
%TA.AperFunction,ComponentPad*%
%ADD13RotRect,1.800000X1.800000X135.000000*%
%TD*%
%TA.AperFunction,ComponentPad*%
%ADD14RotRect,1.800000X1.800000X157.500000*%
%TD*%
%TA.AperFunction,ComponentPad*%
%ADD15RotRect,1.800000X1.800000X202.500000*%
%TD*%
%TA.AperFunction,ComponentPad*%
%ADD16RotRect,1.800000X1.800000X247.500000*%
%TD*%
%TA.AperFunction,ComponentPad*%
%ADD17RotRect,1.800000X1.800000X292.500000*%
%TD*%
%TA.AperFunction,ComponentPad*%
%ADD18RotRect,1.800000X1.800000X337.500000*%
%TD*%
%TA.AperFunction,ComponentPad*%
%ADD19RotRect,1.800000X1.800000X22.500000*%
%TD*%
%TA.AperFunction,ComponentPad*%
%ADD20RotRect,1.800000X1.800000X67.500000*%
%TD*%
%TA.AperFunction,ComponentPad*%
%ADD21RotRect,1.800000X1.800000X112.500000*%
%TD*%
%TA.AperFunction,ComponentPad*%
%ADD22RotRect,1.800000X1.800000X45.000000*%
%TD*%
%TA.AperFunction,ComponentPad*%
%ADD23RotRect,1.800000X1.800000X225.000000*%
%TD*%
%TA.AperFunction,ComponentPad*%
%ADD24C,2.000000*%
%TD*%
%TA.AperFunction,ComponentPad*%
%ADD25RotRect,2.000000X2.000000X202.500000*%
%TD*%
%TA.AperFunction,ComponentPad*%
%ADD26R,1.600000X2.400000*%
%TD*%
%TA.AperFunction,ComponentPad*%
%ADD27O,1.600000X2.400000*%
%TD*%
%TA.AperFunction,ComponentPad*%
%ADD28C,1.600000*%
%TD*%
%TA.AperFunction,ComponentPad*%
%ADD29O,1.600000X1.600000*%
%TD*%
%TA.AperFunction,ComponentPad*%
%ADD30RotRect,1.524000X1.524000X135.000000*%
%TD*%
%TA.AperFunction,ComponentPad*%
%ADD31C,1.524000*%
%TD*%
%TA.AperFunction,ComponentPad*%
%ADD32HorizOval,2.000000X0.353553X0.353553X-0.353553X-0.353553X0*%
%TD*%
%TA.AperFunction,ComponentPad*%
%ADD33RoundRect,0.250000X-0.600000X0.600000X-0.600000X-0.600000X0.600000X-0.600000X0.600000X0.600000X0*%
%TD*%
%TA.AperFunction,ComponentPad*%
%ADD34C,1.700000*%
%TD*%
%TA.AperFunction,ViaPad*%
%ADD35C,0.800000*%
%TD*%
%TA.AperFunction,Conductor*%
%ADD36C,0.250000*%
%TD*%
G04 APERTURE END LIST*
D10*
%TO.P,D12,1*%
%TO.N,/sink4*%
X66183202Y-132016332D03*
D11*
%TO.P,D12,2*%
%TO.N,Net-(D10-Pad2)*%
X67979253Y-133812383D03*
%TD*%
D12*
%TO.P,D15,1*%
%TO.N,/sink3*%
X89078839Y-125074814D03*
D11*
%TO.P,D15,2*%
%TO.N,Net-(D13-Pad2)*%
X89078839Y-122534814D03*
%TD*%
D13*
%TO.P,D16,1*%
%TO.N,/sink4*%
X86216960Y-115596882D03*
D11*
%TO.P,D16,2*%
%TO.N,Net-(D13-Pad2)*%
X84420909Y-113800831D03*
%TD*%
%TO.P,D3,2*%
%TO.N,Net-(D1-Pad2)*%
X47903221Y-64482995D03*
D14*
%TO.P,D3,1*%
%TO.N,/sink3*%
X50249875Y-65455011D03*
%TD*%
D11*
%TO.P,D2,2*%
%TO.N,Net-(D1-Pad2)*%
X47904476Y-87915749D03*
D15*
%TO.P,D2,1*%
%TO.N,/sink2*%
X50251130Y-86943733D03*
%TD*%
D11*
%TO.P,D1,2*%
%TO.N,Net-(D1-Pad2)*%
X64480283Y-104493811D03*
D16*
%TO.P,D1,1*%
%TO.N,/sink1*%
X65452299Y-102147157D03*
%TD*%
D12*
%TO.P,D9,1*%
%TO.N,/sink1*%
X77468100Y-110917765D03*
D11*
%TO.P,D9,2*%
%TO.N,Net-(D10-Pad2)*%
X74928100Y-110917765D03*
%TD*%
%TO.P,D8,2*%
%TO.N,Net-(D5-Pad2)*%
X87914586Y-104512789D03*
D17*
%TO.P,D8,1*%
%TO.N,/sink4*%
X86942570Y-102166135D03*
%TD*%
D18*
%TO.P,D7,1*%
%TO.N,/sink3*%
X102154310Y-86951258D03*
D11*
%TO.P,D7,2*%
%TO.N,Net-(D5-Pad2)*%
X104500964Y-87923274D03*
%TD*%
D19*
%TO.P,D6,1*%
%TO.N,/sink2*%
X102143312Y-65441119D03*
D11*
%TO.P,D6,2*%
%TO.N,Net-(D5-Pad2)*%
X104489966Y-64469103D03*
%TD*%
%TO.P,D5,2*%
%TO.N,Net-(D5-Pad2)*%
X87910256Y-47905003D03*
D20*
%TO.P,D5,1*%
%TO.N,/sink1*%
X86938240Y-50251657D03*
%TD*%
D11*
%TO.P,D4,2*%
%TO.N,Net-(D1-Pad2)*%
X64492714Y-47903782D03*
D21*
%TO.P,D4,1*%
%TO.N,/sink4*%
X65464730Y-50250436D03*
%TD*%
D11*
%TO.P,D11,2*%
%TO.N,Net-(D10-Pad2)*%
X63311052Y-125068504D03*
D12*
%TO.P,D11,1*%
%TO.N,/sink3*%
X63311052Y-122528504D03*
%TD*%
D11*
%TO.P,D14,2*%
%TO.N,Net-(D13-Pad2)*%
X86210916Y-132012193D03*
D22*
%TO.P,D14,1*%
%TO.N,/sink2*%
X84414865Y-133808244D03*
%TD*%
D12*
%TO.P,D13,1*%
%TO.N,/sink1*%
X74928347Y-136678639D03*
D11*
%TO.P,D13,2*%
%TO.N,Net-(D13-Pad2)*%
X77468347Y-136678639D03*
%TD*%
%TO.P,D10,2*%
%TO.N,Net-(D10-Pad2)*%
X66194117Y-115586576D03*
D23*
%TO.P,D10,1*%
%TO.N,/sink2*%
X67990168Y-113790525D03*
%TD*%
D24*
%TO.P,BT1,2*%
%TO.N,GND*%
X78496101Y-129368277D03*
D25*
%TO.P,BT1,1*%
%TO.N,Net-(BT1-Pad1)*%
X70842432Y-110890687D03*
%TD*%
D26*
%TO.P,U1,1*%
%TO.N,VCC*%
X83820000Y-87630000D03*
D27*
%TO.P,U1,8*%
%TO.N,/sink2*%
X68580000Y-95250000D03*
%TO.P,U1,2*%
%TO.N,Net-(U1-Pad2)*%
X81280000Y-87630000D03*
%TO.P,U1,9*%
%TO.N,/sink1*%
X71120000Y-95250000D03*
%TO.P,U1,3*%
%TO.N,Net-(R6-Pad2)*%
X78740000Y-87630000D03*
%TO.P,U1,10*%
%TO.N,/source4*%
X73660000Y-95250000D03*
%TO.P,U1,4*%
%TO.N,Net-(J1-Pad5)*%
X76200000Y-87630000D03*
%TO.P,U1,11*%
%TO.N,/source3*%
X76200000Y-95250000D03*
%TO.P,U1,5*%
%TO.N,Net-(R5-Pad2)*%
X73660000Y-87630000D03*
%TO.P,U1,12*%
%TO.N,/source2*%
X78740000Y-95250000D03*
%TO.P,U1,6*%
%TO.N,/sink4*%
X71120000Y-87630000D03*
%TO.P,U1,13*%
%TO.N,/source1*%
X81280000Y-95250000D03*
%TO.P,U1,7*%
%TO.N,/sink3*%
X68580000Y-87630000D03*
%TO.P,U1,14*%
%TO.N,GND*%
X83820000Y-95250000D03*
%TD*%
D28*
%TO.P,R3,1*%
%TO.N,Net-(D10-Pad2)*%
X74295000Y-106680000D03*
D29*
%TO.P,R3,2*%
%TO.N,/source3*%
X74295000Y-99060000D03*
%TD*%
%TO.P,R4,2*%
%TO.N,/source4*%
X70485000Y-99060000D03*
D28*
%TO.P,R4,1*%
%TO.N,Net-(D13-Pad2)*%
X70485000Y-106680000D03*
%TD*%
%TO.P,R1,1*%
%TO.N,Net-(D1-Pad2)*%
X81915000Y-106680000D03*
D29*
%TO.P,R1,2*%
%TO.N,/source1*%
X81915000Y-99060000D03*
%TD*%
%TO.P,R2,2*%
%TO.N,/source2*%
X78105000Y-99060000D03*
D28*
%TO.P,R2,1*%
%TO.N,Net-(D5-Pad2)*%
X78105000Y-106680000D03*
%TD*%
%TO.P,C1,2*%
%TO.N,GND*%
X88265000Y-98345000D03*
%TO.P,C1,1*%
%TO.N,VCC*%
X88265000Y-93345000D03*
%TD*%
D29*
%TO.P,R5,2*%
%TO.N,Net-(R5-Pad2)*%
X67310000Y-83820000D03*
D28*
%TO.P,R5,1*%
%TO.N,VCC*%
X74930000Y-83820000D03*
%TD*%
D24*
%TO.P,SW2,2*%
%TO.N,GND*%
X59635000Y-83820000D03*
%TO.P,SW2,1*%
%TO.N,Net-(R5-Pad2)*%
X64135000Y-83820000D03*
%TO.P,SW2,2*%
%TO.N,GND*%
X59635000Y-90320000D03*
%TO.P,SW2,1*%
%TO.N,Net-(R5-Pad2)*%
X64135000Y-90320000D03*
%TD*%
D30*
%TO.P,SW1,1*%
%TO.N,Net-(SW1-Pad1)*%
X59690000Y-95250000D03*
D31*
%TO.P,SW1,2*%
%TO.N,Net-(BT1-Pad1)*%
X58275786Y-93835786D03*
%TO.P,SW1,3*%
%TO.N,VCC*%
X56861572Y-92421572D03*
D32*
%TO.P,SW1,*%
%TO.N,*%
X61174924Y-96734924D03*
X55376648Y-90936648D03*
%TD*%
D28*
%TO.P,R6,1*%
%TO.N,VCC*%
X77470000Y-83820000D03*
D29*
%TO.P,R6,2*%
%TO.N,Net-(R6-Pad2)*%
X85090000Y-83820000D03*
%TD*%
D24*
%TO.P,SW3,1*%
%TO.N,Net-(R6-Pad2)*%
X88265000Y-83820000D03*
%TO.P,SW3,2*%
%TO.N,GND*%
X92765000Y-83820000D03*
%TO.P,SW3,1*%
%TO.N,Net-(R6-Pad2)*%
X88265000Y-90320000D03*
%TO.P,SW3,2*%
%TO.N,GND*%
X92765000Y-90320000D03*
%TD*%
D33*
%TO.P,J1,1*%
%TO.N,/sink2*%
X78740000Y-60325000D03*
D34*
%TO.P,J1,3*%
%TO.N,/sink1*%
X76200000Y-60325000D03*
%TO.P,J1,5*%
%TO.N,Net-(J1-Pad5)*%
X73660000Y-60325000D03*
%TO.P,J1,2*%
%TO.N,VCC*%
X78740000Y-62865000D03*
%TO.P,J1,4*%
%TO.N,/sink3*%
X76200000Y-62865000D03*
%TO.P,J1,6*%
%TO.N,GND*%
X73660000Y-62865000D03*
%TD*%
D35*
%TO.N,Net-(D1-Pad2)*%
X67310000Y-103505000D03*
%TO.N,/sink1*%
X71755000Y-131445000D03*
X70485000Y-130175000D03*
X80010000Y-114935000D03*
X80010000Y-113030000D03*
%TO.N,/sink2*%
X70485000Y-61595000D03*
X74930000Y-129540000D03*
X72390000Y-127000000D03*
%TO.N,/sink3*%
X76200000Y-81915000D03*
X69760000Y-67310000D03*
X78740000Y-81915000D03*
X71559847Y-84650153D03*
X73025000Y-130175000D03*
X71120000Y-128270000D03*
X64770000Y-117475000D03*
X62536481Y-98753519D03*
%TO.N,/sink4*%
X74295000Y-90805000D03*
%TD*%
D36*
%TO.N,Net-(D1-Pad2)*%
X64480283Y-104493811D02*
X66321189Y-104493811D01*
X66321189Y-104493811D02*
X67310000Y-103505000D01*
%TO.N,/sink1*%
X71755000Y-131445000D02*
X70485000Y-130175000D01*
X80010000Y-114935000D02*
X80010000Y-113030000D01*
%TO.N,/sink2*%
X78740000Y-60325000D02*
X77470000Y-61595000D01*
X77470000Y-61595000D02*
X70485000Y-61595000D01*
X74930000Y-129540000D02*
X72390000Y-127000000D01*
X67990168Y-110444832D02*
X68580000Y-109855000D01*
X67990168Y-113790525D02*
X67990168Y-110444832D01*
X68580000Y-95250000D02*
X68580000Y-109855000D01*
%TO.N,/sink3*%
X71755000Y-67310000D02*
X76200000Y-62865000D01*
X71755000Y-67310000D02*
X69760000Y-67310000D01*
X76200000Y-81915000D02*
X78740000Y-81915000D01*
X74295000Y-81915000D02*
X71559847Y-84650153D01*
X76200000Y-81915000D02*
X74295000Y-81915000D01*
X73025000Y-130175000D02*
X71120000Y-128270000D01*
X64770000Y-117475000D02*
X64770000Y-121069556D01*
X64770000Y-121069556D02*
X63311052Y-122528504D01*
X68580000Y-87630000D02*
X68580000Y-89916000D01*
X68580000Y-92710000D02*
X62536481Y-98753519D01*
X68580000Y-87630000D02*
X68580000Y-92710000D01*
%TO.N,/sink4*%
X86216960Y-115596882D02*
X86216960Y-103648040D01*
X86942570Y-102922430D02*
X86942570Y-102166135D01*
X86216960Y-103648040D02*
X86942570Y-102922430D01*
X74295000Y-90805000D02*
X72390000Y-90805000D01*
X71120000Y-89535000D02*
X71120000Y-87630000D01*
X72390000Y-90805000D02*
X71120000Y-89535000D01*
%TO.N,VCC*%
X73374846Y-85375154D02*
X74930000Y-83820000D01*
X66540848Y-85375154D02*
X73374846Y-85375154D01*
X59494430Y-92421572D02*
X66540848Y-85375154D01*
X56861572Y-92421572D02*
X59494430Y-92421572D01*
%TD*%
%TA.AperFunction,Conductor*%
%TO.N,GND*%
G36*
X66948585Y-40740899D02*
G01*
X66971230Y-40744423D01*
X67120954Y-40781944D01*
X67142596Y-40789519D01*
X67283033Y-40853555D01*
X67302937Y-40864924D01*
X67429153Y-40953155D01*
X67429435Y-40953352D01*
X67446957Y-40968147D01*
X67559359Y-41082122D01*
X67567026Y-41090638D01*
X67568670Y-41092641D01*
X67568673Y-41092648D01*
X67568675Y-41092647D01*
X73218594Y-47975582D01*
X73221975Y-47979700D01*
X73223637Y-47981725D01*
X73223637Y-47981724D01*
X73230339Y-47989889D01*
X73230362Y-47989891D01*
X73277033Y-48046608D01*
X73281329Y-48051831D01*
X73281330Y-48051832D01*
X73281332Y-48051834D01*
X73419403Y-48169760D01*
X73419407Y-48169762D01*
X73419408Y-48169763D01*
X73576060Y-48261597D01*
X73746411Y-48324476D01*
X73925161Y-48356443D01*
X73996408Y-48356541D01*
X74005713Y-48356554D01*
X74005728Y-48356569D01*
X74015953Y-48356569D01*
X74024239Y-48356572D01*
X74024239Y-48356571D01*
X74044620Y-48356578D01*
X74044682Y-48356569D01*
X78325746Y-48356569D01*
X78326058Y-48356660D01*
X78377933Y-48356604D01*
X78377933Y-48356605D01*
X78468728Y-48356507D01*
X78647492Y-48324594D01*
X78817867Y-48261766D01*
X78974552Y-48169978D01*
X78974808Y-48169760D01*
X78999126Y-48149002D01*
X79112670Y-48052087D01*
X79163862Y-47989890D01*
X79163883Y-47989889D01*
X79170371Y-47981985D01*
X79175630Y-47975582D01*
X79175630Y-47975579D01*
X79189476Y-47958722D01*
X79189499Y-47958682D01*
X79196942Y-47949615D01*
X84827354Y-41090445D01*
X84835042Y-41081907D01*
X84947514Y-40967937D01*
X84965017Y-40953169D01*
X85091567Y-40864770D01*
X85111468Y-40853412D01*
X85251936Y-40789420D01*
X85273565Y-40781859D01*
X85423293Y-40744392D01*
X85445954Y-40740872D01*
X85599991Y-40731166D01*
X85622915Y-40731813D01*
X85776159Y-40750188D01*
X85798582Y-40754979D01*
X85809230Y-40758292D01*
X85951781Y-40802640D01*
X85962567Y-40806541D01*
X94319303Y-44268015D01*
X94329712Y-44272896D01*
X94396873Y-44308218D01*
X94471416Y-44347423D01*
X94490656Y-44359900D01*
X94611973Y-44455311D01*
X94628635Y-44471070D01*
X94730644Y-44586886D01*
X94744173Y-44605404D01*
X94823502Y-44737795D01*
X94833450Y-44758458D01*
X94887467Y-44903029D01*
X94893506Y-44925153D01*
X94920425Y-45077129D01*
X94922353Y-45099982D01*
X94921237Y-45260359D01*
X94920636Y-45271805D01*
X94920414Y-45274064D01*
X94920413Y-45274078D01*
X94044287Y-54179387D01*
X94044316Y-54179673D01*
X94038986Y-54234416D01*
X94038986Y-54234425D01*
X94053231Y-54415447D01*
X94053232Y-54415454D01*
X94099062Y-54591152D01*
X94099062Y-54591153D01*
X94175055Y-54756068D01*
X94175057Y-54756072D01*
X94278848Y-54905071D01*
X94301701Y-54927987D01*
X94318079Y-54944411D01*
X94318078Y-54944411D01*
X94324092Y-54950439D01*
X94335729Y-54962109D01*
X94335729Y-54962131D01*
X94345851Y-54972253D01*
X94345883Y-54972285D01*
X94366493Y-54992909D01*
X94366535Y-54992937D01*
X97452351Y-58078753D01*
X97452559Y-58078891D01*
X97491620Y-58117871D01*
X97640583Y-58221714D01*
X97640586Y-58221715D01*
X97640587Y-58221716D01*
X97640592Y-58221719D01*
X97805473Y-58297767D01*
X97878254Y-58316779D01*
X97981164Y-58343664D01*
X98162185Y-58357977D01*
X98162186Y-58357976D01*
X98162188Y-58357977D01*
X98175620Y-58356673D01*
X98197690Y-58354533D01*
X98217746Y-58352624D01*
X98217801Y-58352634D01*
X98242377Y-58350214D01*
X98242378Y-58350215D01*
X98251674Y-58349299D01*
X98252554Y-58349213D01*
X98252554Y-58349214D01*
X98260800Y-58348406D01*
X98260800Y-58348405D01*
X98282490Y-58346280D01*
X98282553Y-58346262D01*
X107125683Y-57476252D01*
X107137170Y-57475651D01*
X107297281Y-57474596D01*
X107320114Y-57476531D01*
X107472095Y-57503509D01*
X107494204Y-57509552D01*
X107634665Y-57562093D01*
X107638761Y-57563625D01*
X107659421Y-57573581D01*
X107791783Y-57652961D01*
X107810296Y-57666498D01*
X107926071Y-57768549D01*
X107941823Y-57785216D01*
X108037185Y-57906564D01*
X108049656Y-57925811D01*
X108124374Y-58068012D01*
X108129261Y-58078445D01*
X108129886Y-58079955D01*
X108765345Y-59614088D01*
X111590641Y-66434955D01*
X111594553Y-66445776D01*
X111642053Y-66598664D01*
X111646836Y-66621093D01*
X111665154Y-66774336D01*
X111665793Y-66797260D01*
X111656031Y-66951298D01*
X111652503Y-66973960D01*
X111614984Y-67123666D01*
X111607408Y-67145310D01*
X111543376Y-67285739D01*
X111532002Y-67305653D01*
X111443576Y-67432151D01*
X111428781Y-67449674D01*
X111314724Y-67562159D01*
X111306193Y-67569838D01*
X104456151Y-73192759D01*
X104455911Y-73192860D01*
X104345088Y-73284029D01*
X104227165Y-73422111D01*
X104135334Y-73578775D01*
X104135331Y-73578780D01*
X104072461Y-73749127D01*
X104040498Y-73927879D01*
X104040422Y-73983679D01*
X104040388Y-74008436D01*
X104040375Y-74008450D01*
X104040375Y-74018510D01*
X104040375Y-74018706D01*
X104040367Y-74051980D01*
X104040375Y-74052020D01*
X104040375Y-78415944D01*
X104040455Y-78416345D01*
X104040510Y-78471445D01*
X104040571Y-78471785D01*
X104072408Y-78650203D01*
X104135219Y-78820577D01*
X104226990Y-78977263D01*
X104257962Y-79013556D01*
X104344864Y-79115388D01*
X104344865Y-79115389D01*
X104388701Y-79151476D01*
X104388710Y-79151483D01*
X104407052Y-79166585D01*
X104407055Y-79166605D01*
X104414957Y-79173091D01*
X104414957Y-79173092D01*
X104421360Y-79178351D01*
X104421361Y-79178351D01*
X104438218Y-79192196D01*
X104438259Y-79192220D01*
X111306493Y-84830072D01*
X111315052Y-84837779D01*
X111429002Y-84950228D01*
X111443791Y-84967755D01*
X111532181Y-85094284D01*
X111543549Y-85114200D01*
X111607543Y-85254657D01*
X111615112Y-85276305D01*
X111652586Y-85426024D01*
X111656107Y-85448685D01*
X111665823Y-85602724D01*
X111665178Y-85625649D01*
X111646812Y-85778900D01*
X111642022Y-85801327D01*
X111594626Y-85953718D01*
X111590720Y-85964516D01*
X108128931Y-94322015D01*
X108124039Y-94332447D01*
X108049517Y-94474143D01*
X108037041Y-94493384D01*
X107941634Y-94614697D01*
X107925875Y-94631358D01*
X107810054Y-94733374D01*
X107791538Y-94746902D01*
X107659150Y-94826234D01*
X107638487Y-94836183D01*
X107493908Y-94890207D01*
X107471785Y-94896246D01*
X107319812Y-94923170D01*
X107296960Y-94925099D01*
X107137211Y-94923994D01*
X107125182Y-94923335D01*
X107002169Y-94910673D01*
X106999708Y-94911018D01*
X98301254Y-94055243D01*
X98295468Y-94054673D01*
X98252889Y-94050484D01*
X98251870Y-94050384D01*
X98251837Y-94050380D01*
X98251836Y-94050380D01*
X98219077Y-94047160D01*
X98218899Y-94047176D01*
X98162525Y-94041691D01*
X98162516Y-94041690D01*
X97981500Y-94055943D01*
X97981486Y-94055946D01*
X97805796Y-94101780D01*
X97805787Y-94101784D01*
X97640876Y-94177777D01*
X97640861Y-94177786D01*
X97506410Y-94271445D01*
X97491874Y-94281571D01*
X97434835Y-94338451D01*
X97434814Y-94338451D01*
X97426696Y-94346569D01*
X97426693Y-94346572D01*
X97411382Y-94361874D01*
X97411352Y-94361911D01*
X94318180Y-97455082D01*
X94318055Y-97455269D01*
X94279068Y-97494336D01*
X94175224Y-97643297D01*
X94099170Y-97808190D01*
X94099167Y-97808199D01*
X94053274Y-97983882D01*
X94053274Y-97983886D01*
X94038963Y-98164909D01*
X94038963Y-98164912D01*
X94044466Y-98221631D01*
X94044466Y-98221632D01*
X94046740Y-98245084D01*
X94046729Y-98245100D01*
X94047643Y-98254392D01*
X94047692Y-98254895D01*
X94047723Y-98255210D01*
X94047730Y-98255277D01*
X94048432Y-98262436D01*
X94050050Y-98278914D01*
X94050058Y-98278953D01*
X94920690Y-107128400D01*
X94921292Y-107139909D01*
X94922344Y-107299996D01*
X94920407Y-107322848D01*
X94893431Y-107474804D01*
X94887385Y-107496925D01*
X94833311Y-107641482D01*
X94823355Y-107662141D01*
X94743976Y-107794503D01*
X94730440Y-107813015D01*
X94628391Y-107928790D01*
X94611725Y-107944542D01*
X94490373Y-108039910D01*
X94471127Y-108052380D01*
X94328986Y-108127071D01*
X94318594Y-108131942D01*
X88251332Y-110645085D01*
X88251198Y-110645099D01*
X88118200Y-110700116D01*
X87963784Y-110799361D01*
X87829451Y-110924438D01*
X87829448Y-110924441D01*
X87719460Y-111071376D01*
X87637299Y-111235522D01*
X87585592Y-111411635D01*
X87585591Y-111411644D01*
X87565974Y-111594132D01*
X87570399Y-111655980D01*
X87579072Y-111777223D01*
X87598637Y-111853872D01*
X87624469Y-111955076D01*
X87624469Y-111955077D01*
X87700717Y-112122034D01*
X87700725Y-112122047D01*
X87805398Y-112272803D01*
X87805401Y-112272806D01*
X87869351Y-112336691D01*
X87869349Y-112336692D01*
X87869396Y-112336736D01*
X89671000Y-114138339D01*
X89678764Y-114146846D01*
X89781171Y-114269930D01*
X89794172Y-114288819D01*
X89831827Y-114355869D01*
X89869748Y-114423391D01*
X89879111Y-114444327D01*
X89929041Y-114590367D01*
X89934455Y-114612653D01*
X89957087Y-114765330D01*
X89958371Y-114788227D01*
X89952956Y-114942473D01*
X89950069Y-114965224D01*
X89916786Y-115115931D01*
X89909823Y-115137782D01*
X89847636Y-115285022D01*
X89842693Y-115295383D01*
X88498665Y-117810537D01*
X88498452Y-117810753D01*
X88431319Y-117936700D01*
X88431314Y-117936711D01*
X88375208Y-118109406D01*
X88350317Y-118289281D01*
X88350317Y-118289284D01*
X88350317Y-118289285D01*
X88351411Y-118317221D01*
X88357420Y-118470736D01*
X88396296Y-118648117D01*
X88422959Y-118712545D01*
X88465734Y-118815905D01*
X88563575Y-118968883D01*
X88686773Y-119102289D01*
X88706089Y-119116928D01*
X88831490Y-119211967D01*
X88831492Y-119211968D01*
X88831496Y-119211971D01*
X88993239Y-119294518D01*
X89070603Y-119318137D01*
X89070615Y-119318159D01*
X89080722Y-119321226D01*
X89088004Y-119323441D01*
X89088005Y-119323440D01*
X89109195Y-119329885D01*
X89109298Y-119329898D01*
X89254963Y-119374102D01*
X91859575Y-120164508D01*
X91870408Y-120168345D01*
X92006880Y-120223820D01*
X92018732Y-120228638D01*
X92039102Y-120239171D01*
X92169179Y-120322243D01*
X92187304Y-120336295D01*
X92237423Y-120383043D01*
X92299923Y-120441340D01*
X92300168Y-120441568D01*
X92315445Y-120458672D01*
X92407361Y-120582662D01*
X92419285Y-120602251D01*
X92487203Y-120740842D01*
X92495376Y-120762258D01*
X92518314Y-120844057D01*
X92537051Y-120910876D01*
X92541207Y-120933428D01*
X92555774Y-121092818D01*
X92556297Y-121104286D01*
X92556297Y-126495621D01*
X92555771Y-126507125D01*
X92541154Y-126666554D01*
X92536990Y-126689107D01*
X92495273Y-126837701D01*
X92487091Y-126859125D01*
X92419127Y-126997706D01*
X92407196Y-127017293D01*
X92315249Y-127141245D01*
X92299966Y-127158344D01*
X92187063Y-127263588D01*
X92168935Y-127277634D01*
X92038827Y-127360670D01*
X92018451Y-127371197D01*
X91870403Y-127431322D01*
X91859582Y-127435153D01*
X89131021Y-128263174D01*
X89130615Y-128263177D01*
X88993849Y-128304836D01*
X88993847Y-128304837D01*
X88832055Y-128387279D01*
X88832049Y-128387283D01*
X88687256Y-128496875D01*
X88687255Y-128496876D01*
X88563971Y-128630206D01*
X88466028Y-128783136D01*
X88396490Y-128950873D01*
X88396485Y-128950889D01*
X88357502Y-129128238D01*
X88357502Y-129128240D01*
X88350287Y-129309683D01*
X88350287Y-129309685D01*
X88375069Y-129489578D01*
X88375071Y-129489588D01*
X88431076Y-129662325D01*
X88457676Y-129712301D01*
X88469081Y-129733730D01*
X88469075Y-129733754D01*
X88473736Y-129742476D01*
X88473737Y-129742477D01*
X88488978Y-129771034D01*
X88489032Y-129771101D01*
X89335701Y-131355518D01*
X89836395Y-132292494D01*
X89842698Y-132304288D01*
X89847654Y-132314679D01*
X89864439Y-132354453D01*
X89909906Y-132462196D01*
X89916862Y-132484049D01*
X89950099Y-132634761D01*
X89952980Y-132657513D01*
X89958349Y-132811769D01*
X89957057Y-132834666D01*
X89934380Y-132987326D01*
X89928960Y-133009610D01*
X89878985Y-133155636D01*
X89869615Y-133176568D01*
X89793997Y-133311122D01*
X89780989Y-133330009D01*
X89678651Y-133452933D01*
X89670912Y-133461411D01*
X85858594Y-137273730D01*
X85850081Y-137281498D01*
X85727015Y-137383879D01*
X85708124Y-137396880D01*
X85573552Y-137472445D01*
X85552617Y-137481807D01*
X85406581Y-137531728D01*
X85384296Y-137537141D01*
X85231623Y-137559766D01*
X85208725Y-137561049D01*
X85054486Y-137555627D01*
X85031736Y-137552739D01*
X84881034Y-137519450D01*
X84859184Y-137512486D01*
X84711240Y-137449996D01*
X84700871Y-137445048D01*
X84699060Y-137444080D01*
X82109532Y-136060308D01*
X82109272Y-136060228D01*
X82060225Y-136034082D01*
X82060213Y-136034077D01*
X81887519Y-135977962D01*
X81732543Y-135956512D01*
X81707648Y-135953067D01*
X81707647Y-135953067D01*
X81647165Y-135955432D01*
X81526199Y-135960164D01*
X81526197Y-135960164D01*
X81526189Y-135960165D01*
X81348824Y-135999033D01*
X81348823Y-135999033D01*
X81181034Y-136068468D01*
X81181033Y-136068469D01*
X81028056Y-136166306D01*
X81028051Y-136166309D01*
X80894651Y-136289500D01*
X80784973Y-136434214D01*
X80784969Y-136434220D01*
X80702424Y-136595961D01*
X80702420Y-136595972D01*
X80685826Y-136650320D01*
X80685827Y-136650321D01*
X80678803Y-136673325D01*
X80678784Y-136673337D01*
X80676082Y-136682239D01*
X80675929Y-136682741D01*
X80675913Y-136682797D01*
X80668243Y-136708024D01*
X80668230Y-136708111D01*
X79832435Y-139462289D01*
X79828589Y-139473148D01*
X79768303Y-139621455D01*
X79757770Y-139641825D01*
X79674697Y-139771904D01*
X79660646Y-139790028D01*
X79555372Y-139902896D01*
X79538269Y-139918173D01*
X79414282Y-140010089D01*
X79394693Y-140022013D01*
X79256096Y-140089937D01*
X79234671Y-140098113D01*
X79086068Y-140139789D01*
X79063517Y-140143947D01*
X78912482Y-140157756D01*
X78904392Y-140158496D01*
X78892921Y-140159019D01*
X73501322Y-140159019D01*
X73489813Y-140158492D01*
X73330399Y-140143868D01*
X73307848Y-140139704D01*
X73159253Y-140097980D01*
X73137830Y-140089797D01*
X72999261Y-140021833D01*
X72979676Y-140009903D01*
X72855717Y-139917947D01*
X72838619Y-139902664D01*
X72809135Y-139871033D01*
X72733381Y-139789764D01*
X72719339Y-139771638D01*
X72636308Y-139641534D01*
X72625787Y-139621172D01*
X72565495Y-139472714D01*
X72561675Y-139461923D01*
X71715438Y-136673337D01*
X71715436Y-136673336D01*
X71708316Y-136649871D01*
X71708193Y-136649641D01*
X71692037Y-136596595D01*
X71609600Y-136434799D01*
X71609162Y-136434220D01*
X71500020Y-136290012D01*
X71500018Y-136290010D01*
X71500015Y-136290006D01*
X71366692Y-136166722D01*
X71213781Y-136068782D01*
X71065975Y-136007501D01*
X71046041Y-135999236D01*
X71046032Y-135999233D01*
X70868696Y-135960247D01*
X70868680Y-135960245D01*
X70687250Y-135953026D01*
X70507354Y-135977802D01*
X70507350Y-135977803D01*
X70334616Y-136033802D01*
X70334610Y-136033805D01*
X70285283Y-136060057D01*
X70285282Y-136060056D01*
X70263211Y-136071803D01*
X70263190Y-136071797D01*
X70254182Y-136076610D01*
X70253414Y-136077019D01*
X70253397Y-136077029D01*
X70229978Y-136089529D01*
X70229905Y-136089583D01*
X67692645Y-137445425D01*
X67682241Y-137450386D01*
X67534752Y-137512614D01*
X67512902Y-137519569D01*
X67374475Y-137550090D01*
X67362462Y-137552739D01*
X67362185Y-137552800D01*
X67339431Y-137555679D01*
X67185191Y-137561039D01*
X67162296Y-137559747D01*
X67009631Y-137537063D01*
X66987348Y-137531642D01*
X66952075Y-137519569D01*
X66841329Y-137481663D01*
X66820403Y-137472295D01*
X66685859Y-137396677D01*
X66666973Y-137383669D01*
X66591842Y-137321117D01*
X66543516Y-137280882D01*
X66535046Y-137273149D01*
X64991886Y-135729989D01*
X73519847Y-135729989D01*
X73519847Y-137627288D01*
X73526356Y-137687835D01*
X73526358Y-137687843D01*
X73577457Y-137824841D01*
X73577459Y-137824846D01*
X73665085Y-137941900D01*
X73782139Y-138029526D01*
X73782141Y-138029527D01*
X73782143Y-138029528D01*
X73841222Y-138051563D01*
X73919142Y-138080627D01*
X73919150Y-138080629D01*
X73979697Y-138087138D01*
X73979702Y-138087138D01*
X73979709Y-138087139D01*
X73979715Y-138087139D01*
X75876979Y-138087139D01*
X75876985Y-138087139D01*
X75876992Y-138087138D01*
X75876996Y-138087138D01*
X75937543Y-138080629D01*
X75937546Y-138080628D01*
X75937548Y-138080628D01*
X76074551Y-138029528D01*
X76191608Y-137941900D01*
X76279236Y-137824843D01*
X76304007Y-137758428D01*
X76346551Y-137701596D01*
X76413071Y-137676784D01*
X76482445Y-137691875D01*
X76511156Y-137713368D01*
X76550768Y-137752980D01*
X76550771Y-137752982D01*
X76730132Y-137883296D01*
X76927671Y-137983947D01*
X77138523Y-138052457D01*
X77357496Y-138087139D01*
X77357499Y-138087139D01*
X77579195Y-138087139D01*
X77579198Y-138087139D01*
X77798171Y-138052457D01*
X78009023Y-137983947D01*
X78206562Y-137883296D01*
X78385923Y-137752982D01*
X78542690Y-137596215D01*
X78673004Y-137416854D01*
X78773655Y-137219315D01*
X78842165Y-137008463D01*
X78876847Y-136789490D01*
X78876847Y-136567788D01*
X78842165Y-136348815D01*
X78773655Y-136137963D01*
X78673004Y-135940424D01*
X78542690Y-135761063D01*
X78542688Y-135761060D01*
X78385925Y-135604297D01*
X78206565Y-135473984D01*
X78206564Y-135473983D01*
X78206562Y-135473982D01*
X78009023Y-135373331D01*
X78009020Y-135373330D01*
X78009018Y-135373329D01*
X77798176Y-135304822D01*
X77798172Y-135304821D01*
X77798171Y-135304821D01*
X77579198Y-135270139D01*
X77357496Y-135270139D01*
X77138523Y-135304821D01*
X77138517Y-135304822D01*
X76927675Y-135373329D01*
X76927669Y-135373332D01*
X76730128Y-135473984D01*
X76550768Y-135604297D01*
X76511155Y-135643910D01*
X76448843Y-135677935D01*
X76378027Y-135672869D01*
X76321192Y-135630322D01*
X76304009Y-135598853D01*
X76279236Y-135532435D01*
X76279234Y-135532433D01*
X76279234Y-135532431D01*
X76191608Y-135415377D01*
X76074554Y-135327751D01*
X76074549Y-135327749D01*
X75937551Y-135276650D01*
X75937543Y-135276648D01*
X75876996Y-135270139D01*
X75876985Y-135270139D01*
X73979709Y-135270139D01*
X73979697Y-135270139D01*
X73919150Y-135276648D01*
X73919142Y-135276650D01*
X73782144Y-135327749D01*
X73782139Y-135327751D01*
X73665085Y-135415377D01*
X73577459Y-135532431D01*
X73577457Y-135532436D01*
X73526358Y-135669434D01*
X73526356Y-135669442D01*
X73519847Y-135729989D01*
X64991886Y-135729989D01*
X62723217Y-133461320D01*
X62715453Y-133452812D01*
X62613053Y-133329735D01*
X62600053Y-133310847D01*
X62524481Y-133176274D01*
X62515119Y-133155341D01*
X62496839Y-133101871D01*
X62465190Y-133009294D01*
X62459779Y-132987017D01*
X62437149Y-132834340D01*
X62435866Y-132811445D01*
X62438011Y-132750408D01*
X62441286Y-132657192D01*
X62444172Y-132634457D01*
X62477464Y-132483736D01*
X62484423Y-132461899D01*
X62546773Y-132314287D01*
X62551711Y-132303938D01*
X62572471Y-132265087D01*
X62572471Y-132265086D01*
X62705401Y-132016328D01*
X64396681Y-132016328D01*
X64396681Y-132016335D01*
X64417489Y-132161061D01*
X64417490Y-132161065D01*
X64478229Y-132294069D01*
X64478233Y-132294075D01*
X64516454Y-132341504D01*
X65858030Y-133683080D01*
X65905459Y-133721301D01*
X65905460Y-133721301D01*
X65905464Y-133721304D01*
X66038468Y-133782043D01*
X66038472Y-133782044D01*
X66183199Y-133802853D01*
X66183202Y-133802853D01*
X66183205Y-133802853D01*
X66327931Y-133782044D01*
X66327932Y-133782043D01*
X66327936Y-133782043D01*
X66392413Y-133752597D01*
X66462686Y-133742495D01*
X66527266Y-133771988D01*
X66565649Y-133831715D01*
X66570753Y-133867212D01*
X66570753Y-133923234D01*
X66596530Y-134085981D01*
X66605436Y-134142212D01*
X66673943Y-134353054D01*
X66673945Y-134353059D01*
X66673946Y-134353060D01*
X66774598Y-134550601D01*
X66904911Y-134729961D01*
X67061674Y-134886724D01*
X67061677Y-134886726D01*
X67241038Y-135017040D01*
X67438577Y-135117691D01*
X67649429Y-135186201D01*
X67868402Y-135220883D01*
X67868405Y-135220883D01*
X68090101Y-135220883D01*
X68090104Y-135220883D01*
X68309077Y-135186201D01*
X68519929Y-135117691D01*
X68717468Y-135017040D01*
X68896829Y-134886726D01*
X69053596Y-134729959D01*
X69183910Y-134550598D01*
X69284561Y-134353059D01*
X69353071Y-134142207D01*
X69387753Y-133923234D01*
X69387753Y-133701532D01*
X69353071Y-133482559D01*
X69284561Y-133271707D01*
X69183910Y-133074168D01*
X69078999Y-132929771D01*
X69053594Y-132894804D01*
X69052476Y-132893686D01*
X74234166Y-132893686D01*
X74234166Y-133090775D01*
X74272615Y-133284066D01*
X74272616Y-133284069D01*
X74291645Y-133330009D01*
X74348034Y-133466145D01*
X74457527Y-133630013D01*
X74596884Y-133769370D01*
X74760752Y-133878863D01*
X74942831Y-133954282D01*
X75136125Y-133992731D01*
X75333207Y-133992731D01*
X75526501Y-133954282D01*
X75708580Y-133878863D01*
X75814275Y-133808240D01*
X82628344Y-133808240D01*
X82628344Y-133808247D01*
X82649152Y-133952973D01*
X82649153Y-133952977D01*
X82709892Y-134085981D01*
X82709896Y-134085987D01*
X82748117Y-134133416D01*
X84089693Y-135474992D01*
X84137122Y-135513213D01*
X84137123Y-135513213D01*
X84137127Y-135513216D01*
X84270131Y-135573955D01*
X84270135Y-135573956D01*
X84414862Y-135594765D01*
X84414865Y-135594765D01*
X84414868Y-135594765D01*
X84559594Y-135573956D01*
X84559596Y-135573955D01*
X84559599Y-135573955D01*
X84650526Y-135532431D01*
X84692602Y-135513216D01*
X84692603Y-135513215D01*
X84692608Y-135513213D01*
X84740037Y-135474992D01*
X86081613Y-134133416D01*
X86119834Y-134085987D01*
X86180576Y-133952978D01*
X86184853Y-133923234D01*
X86201386Y-133808247D01*
X86201386Y-133808240D01*
X86180577Y-133663514D01*
X86180576Y-133663513D01*
X86180576Y-133663510D01*
X86151131Y-133599033D01*
X86141029Y-133528759D01*
X86170523Y-133464179D01*
X86230250Y-133425796D01*
X86265746Y-133420693D01*
X86321764Y-133420693D01*
X86321767Y-133420693D01*
X86540740Y-133386011D01*
X86751592Y-133317501D01*
X86949131Y-133216850D01*
X87128492Y-133086536D01*
X87285259Y-132929769D01*
X87415573Y-132750408D01*
X87516224Y-132552869D01*
X87584734Y-132342017D01*
X87619416Y-132123044D01*
X87619416Y-131901342D01*
X87584734Y-131682369D01*
X87516224Y-131471517D01*
X87415573Y-131273978D01*
X87303995Y-131120405D01*
X87285257Y-131094614D01*
X87128494Y-130937851D01*
X86949134Y-130807538D01*
X86949133Y-130807537D01*
X86949131Y-130807536D01*
X86751592Y-130706885D01*
X86751589Y-130706884D01*
X86751587Y-130706883D01*
X86540745Y-130638376D01*
X86540741Y-130638375D01*
X86540740Y-130638375D01*
X86321767Y-130603693D01*
X86100065Y-130603693D01*
X85881092Y-130638375D01*
X85881086Y-130638376D01*
X85670244Y-130706883D01*
X85670238Y-130706886D01*
X85472697Y-130807538D01*
X85293337Y-130937851D01*
X85136574Y-131094614D01*
X85006261Y-131273974D01*
X84905609Y-131471515D01*
X84905606Y-131471521D01*
X84837099Y-131682363D01*
X84837098Y-131682368D01*
X84837098Y-131682369D01*
X84807127Y-131871602D01*
X84802416Y-131901345D01*
X84802416Y-131957363D01*
X84782414Y-132025484D01*
X84728758Y-132071977D01*
X84658484Y-132082081D01*
X84624076Y-132071978D01*
X84617765Y-132069096D01*
X84559599Y-132042533D01*
X84559596Y-132042532D01*
X84559595Y-132042532D01*
X84559594Y-132042531D01*
X84414868Y-132021723D01*
X84414862Y-132021723D01*
X84270135Y-132042531D01*
X84270131Y-132042532D01*
X84137127Y-132103271D01*
X84137118Y-132103277D01*
X84089695Y-132141494D01*
X84089691Y-132141497D01*
X82748118Y-133483070D01*
X82748115Y-133483074D01*
X82709898Y-133530497D01*
X82709892Y-133530506D01*
X82649153Y-133663510D01*
X82649152Y-133663514D01*
X82628344Y-133808240D01*
X75814275Y-133808240D01*
X75872448Y-133769370D01*
X76011805Y-133630013D01*
X76121298Y-133466145D01*
X76196717Y-133284066D01*
X76235166Y-133090772D01*
X76235166Y-132893690D01*
X76196717Y-132700396D01*
X76121298Y-132518317D01*
X76011805Y-132354449D01*
X75872448Y-132215092D01*
X75708580Y-132105599D01*
X75627409Y-132071977D01*
X75526504Y-132030181D01*
X75526501Y-132030180D01*
X75333210Y-131991731D01*
X75333207Y-131991731D01*
X75136125Y-131991731D01*
X75136121Y-131991731D01*
X74942830Y-132030180D01*
X74942827Y-132030181D01*
X74760751Y-132105599D01*
X74596888Y-132215089D01*
X74596881Y-132215094D01*
X74457529Y-132354446D01*
X74457524Y-132354453D01*
X74348034Y-132518316D01*
X74272616Y-132700392D01*
X74272615Y-132700395D01*
X74234166Y-132893686D01*
X69052476Y-132893686D01*
X68896831Y-132738041D01*
X68717471Y-132607728D01*
X68717470Y-132607727D01*
X68717468Y-132607726D01*
X68519929Y-132507075D01*
X68519926Y-132507074D01*
X68519924Y-132507073D01*
X68309082Y-132438566D01*
X68309078Y-132438565D01*
X68309077Y-132438565D01*
X68090104Y-132403883D01*
X68034083Y-132403883D01*
X67965962Y-132383881D01*
X67919469Y-132330225D01*
X67909365Y-132259951D01*
X67919468Y-132225543D01*
X67922417Y-132219086D01*
X67948913Y-132161066D01*
X67948914Y-132161061D01*
X67969723Y-132016335D01*
X67969723Y-132016328D01*
X67948914Y-131871602D01*
X67948913Y-131871598D01*
X67888174Y-131738594D01*
X67888168Y-131738585D01*
X67877943Y-131725897D01*
X67849950Y-131691160D01*
X66508374Y-130349584D01*
X66484659Y-130330473D01*
X66460948Y-130311365D01*
X66460939Y-130311359D01*
X66327935Y-130250620D01*
X66327931Y-130250619D01*
X66183205Y-130229811D01*
X66183199Y-130229811D01*
X66038472Y-130250619D01*
X66038468Y-130250620D01*
X65905464Y-130311359D01*
X65905455Y-130311365D01*
X65858032Y-130349582D01*
X65858028Y-130349585D01*
X64516455Y-131691158D01*
X64516452Y-131691162D01*
X64478235Y-131738585D01*
X64478229Y-131738594D01*
X64417490Y-131871598D01*
X64417489Y-131871602D01*
X64396681Y-132016328D01*
X62705401Y-132016328D01*
X63737174Y-130085518D01*
X69576500Y-130085518D01*
X69576500Y-130085521D01*
X69576500Y-130264479D01*
X69611413Y-130440000D01*
X69679898Y-130605336D01*
X69779322Y-130754135D01*
X69905865Y-130880678D01*
X70054664Y-130980102D01*
X70220000Y-131048587D01*
X70395521Y-131083500D01*
X70445406Y-131083500D01*
X70513527Y-131103502D01*
X70534501Y-131120405D01*
X70809595Y-131395499D01*
X70843621Y-131457811D01*
X70846500Y-131484594D01*
X70846500Y-131534479D01*
X70881413Y-131710000D01*
X70949898Y-131875336D01*
X71049322Y-132024135D01*
X71175865Y-132150678D01*
X71324664Y-132250102D01*
X71490000Y-132318587D01*
X71665521Y-132353500D01*
X71665522Y-132353500D01*
X71844478Y-132353500D01*
X71844479Y-132353500D01*
X72020000Y-132318587D01*
X72185336Y-132250102D01*
X72334135Y-132150678D01*
X72460678Y-132024135D01*
X72560102Y-131875336D01*
X72628587Y-131710000D01*
X72663500Y-131534479D01*
X72663500Y-131355521D01*
X72632744Y-131200900D01*
X72639072Y-131130191D01*
X72682626Y-131074124D01*
X72749578Y-131050504D01*
X72780895Y-131052743D01*
X72935521Y-131083500D01*
X72935522Y-131083500D01*
X73114478Y-131083500D01*
X73114479Y-131083500D01*
X73290000Y-131048587D01*
X73455336Y-130980102D01*
X73604135Y-130880678D01*
X73730678Y-130754135D01*
X73830102Y-130605336D01*
X73898587Y-130440000D01*
X73933500Y-130264479D01*
X73933500Y-130099255D01*
X73953502Y-130031134D01*
X74007158Y-129984641D01*
X74077432Y-129974537D01*
X74142012Y-130004031D01*
X74164264Y-130029252D01*
X74224322Y-130119135D01*
X74350865Y-130245678D01*
X74499664Y-130345102D01*
X74665000Y-130413587D01*
X74840521Y-130448500D01*
X74840522Y-130448500D01*
X75019478Y-130448500D01*
X75019479Y-130448500D01*
X75195000Y-130413587D01*
X75360336Y-130345102D01*
X75509135Y-130245678D01*
X75635678Y-130119135D01*
X75735102Y-129970336D01*
X75803587Y-129805000D01*
X75838500Y-129629479D01*
X75838500Y-129450521D01*
X75803587Y-129275000D01*
X75793065Y-129249598D01*
X76988101Y-129249598D01*
X76988101Y-129486955D01*
X77025234Y-129721406D01*
X77098581Y-129947144D01*
X77206346Y-130158644D01*
X77345865Y-130350675D01*
X77345867Y-130350678D01*
X77513699Y-130518510D01*
X77513702Y-130518512D01*
X77691286Y-130647534D01*
X78094839Y-129673270D01*
X78096002Y-129675284D01*
X78189094Y-129768376D01*
X78303108Y-129834202D01*
X78430275Y-129868277D01*
X78561927Y-129868277D01*
X78564168Y-129867676D01*
X78160617Y-130841937D01*
X78377421Y-130876277D01*
X78614780Y-130876277D01*
X78849230Y-130839143D01*
X79074968Y-130765796D01*
X79286468Y-130658031D01*
X79478499Y-130518512D01*
X79478502Y-130518510D01*
X79646338Y-130350674D01*
X79775358Y-130173090D01*
X79775359Y-130173090D01*
X78801096Y-129769537D01*
X78803108Y-129768376D01*
X78896200Y-129675284D01*
X78962026Y-129561270D01*
X78996101Y-129434103D01*
X78996101Y-129302451D01*
X78995499Y-129300206D01*
X79969761Y-129703759D01*
X80004101Y-129486956D01*
X80004101Y-129249598D01*
X79966967Y-129015147D01*
X79893620Y-128789409D01*
X79785855Y-128577909D01*
X79646336Y-128385878D01*
X79646334Y-128385875D01*
X79478502Y-128218043D01*
X79478499Y-128218041D01*
X79300914Y-128089018D01*
X78897360Y-129063280D01*
X78896200Y-129061270D01*
X78803108Y-128968178D01*
X78689094Y-128902352D01*
X78561927Y-128868277D01*
X78430275Y-128868277D01*
X78428028Y-128868878D01*
X78831583Y-127894615D01*
X78614780Y-127860277D01*
X78377422Y-127860277D01*
X78142971Y-127897410D01*
X77917233Y-127970757D01*
X77705733Y-128078522D01*
X77513702Y-128218041D01*
X77513699Y-128218043D01*
X77345867Y-128385875D01*
X77345865Y-128385878D01*
X77216842Y-128563462D01*
X78191107Y-128967015D01*
X78189094Y-128968178D01*
X78096002Y-129061270D01*
X78030176Y-129175284D01*
X77996101Y-129302451D01*
X77996101Y-129434103D01*
X77996702Y-129436346D01*
X77781537Y-129347222D01*
X77022439Y-129032793D01*
X76988101Y-129249598D01*
X75793065Y-129249598D01*
X75735102Y-129109664D01*
X75635678Y-128960865D01*
X75509135Y-128834322D01*
X75360336Y-128734898D01*
X75276897Y-128700336D01*
X75195002Y-128666413D01*
X75185207Y-128664465D01*
X75019479Y-128631500D01*
X74960502Y-128631500D01*
X74951510Y-128630196D01*
X74927164Y-128619041D01*
X74901473Y-128611498D01*
X74889316Y-128601700D01*
X74886966Y-128600624D01*
X74885882Y-128598933D01*
X74880499Y-128594595D01*
X73335405Y-127049501D01*
X73301379Y-126987189D01*
X73298500Y-126960406D01*
X73298500Y-126910522D01*
X73298499Y-126910518D01*
X73263587Y-126735000D01*
X73195102Y-126569664D01*
X73095678Y-126420865D01*
X72969135Y-126294322D01*
X72820336Y-126194898D01*
X72694670Y-126142845D01*
X72655003Y-126126414D01*
X72655001Y-126126413D01*
X72655000Y-126126413D01*
X72566645Y-126108838D01*
X72479481Y-126091500D01*
X72479479Y-126091500D01*
X72300521Y-126091500D01*
X72300518Y-126091500D01*
X72169771Y-126117507D01*
X72125000Y-126126413D01*
X72124999Y-126126413D01*
X72124996Y-126126414D01*
X71959662Y-126194899D01*
X71810869Y-126294319D01*
X71810862Y-126294324D01*
X71684324Y-126420862D01*
X71684319Y-126420869D01*
X71584899Y-126569662D01*
X71516414Y-126734996D01*
X71481500Y-126910518D01*
X71481500Y-127089481D01*
X71512255Y-127244094D01*
X71505927Y-127314808D01*
X71462373Y-127370876D01*
X71395420Y-127394495D01*
X71364097Y-127392255D01*
X71258230Y-127371197D01*
X71209481Y-127361500D01*
X71209479Y-127361500D01*
X71030521Y-127361500D01*
X71030518Y-127361500D01*
X70899771Y-127387507D01*
X70855000Y-127396413D01*
X70854999Y-127396413D01*
X70854996Y-127396414D01*
X70689662Y-127464899D01*
X70540869Y-127564319D01*
X70540862Y-127564324D01*
X70414324Y-127690862D01*
X70414319Y-127690869D01*
X70314899Y-127839662D01*
X70246414Y-128004996D01*
X70211500Y-128180518D01*
X70211500Y-128359481D01*
X70217112Y-128387695D01*
X70246413Y-128535000D01*
X70314898Y-128700336D01*
X70414322Y-128849135D01*
X70540865Y-128975678D01*
X70599935Y-129015147D01*
X70630747Y-129035735D01*
X70676275Y-129090211D01*
X70685123Y-129160655D01*
X70654482Y-129224699D01*
X70594080Y-129262010D01*
X70560745Y-129266500D01*
X70395518Y-129266500D01*
X70264771Y-129292507D01*
X70220000Y-129301413D01*
X70219999Y-129301413D01*
X70219996Y-129301414D01*
X70054662Y-129369899D01*
X69905869Y-129469319D01*
X69905862Y-129469324D01*
X69779324Y-129595862D01*
X69779319Y-129595869D01*
X69679899Y-129744662D01*
X69611414Y-129909996D01*
X69576500Y-130085518D01*
X63737174Y-130085518D01*
X63925147Y-129733754D01*
X63925146Y-129733753D01*
X63936740Y-129712058D01*
X63936903Y-129711518D01*
X63962813Y-129662918D01*
X64018927Y-129490225D01*
X64043825Y-129310359D01*
X64036730Y-129128917D01*
X63997864Y-128951544D01*
X63997860Y-128951536D01*
X63997860Y-128951533D01*
X63928439Y-128783765D01*
X63928433Y-128783753D01*
X63830613Y-128630794D01*
X63830605Y-128630783D01*
X63707420Y-128497381D01*
X63707419Y-128497380D01*
X63562713Y-128387700D01*
X63562705Y-128387695D01*
X63400981Y-128305150D01*
X63400973Y-128305147D01*
X63347767Y-128288901D01*
X63323618Y-128281527D01*
X63323607Y-128281506D01*
X63313618Y-128278474D01*
X63306219Y-128276224D01*
X63306218Y-128276224D01*
X63290768Y-128271525D01*
X63290662Y-128271507D01*
X60534646Y-127435155D01*
X60523788Y-127431309D01*
X60375494Y-127371030D01*
X60355123Y-127360497D01*
X60225044Y-127277423D01*
X60206918Y-127263371D01*
X60094051Y-127158094D01*
X60078774Y-127140989D01*
X59986866Y-127017007D01*
X59974942Y-126997417D01*
X59953801Y-126954275D01*
X59907025Y-126858821D01*
X59898853Y-126837403D01*
X59857181Y-126688786D01*
X59853027Y-126666241D01*
X59838447Y-126506639D01*
X59837925Y-126495177D01*
X59837925Y-121104039D01*
X59838452Y-121092531D01*
X59853073Y-120933120D01*
X59857237Y-120910567D01*
X59898962Y-120761963D01*
X59907137Y-120740560D01*
X59975107Y-120601977D01*
X59987035Y-120582398D01*
X60078992Y-120458440D01*
X60094270Y-120441346D01*
X60207180Y-120336102D01*
X60225295Y-120322068D01*
X60355414Y-120239032D01*
X60375778Y-120228511D01*
X60524335Y-120168184D01*
X60535138Y-120164360D01*
X63323607Y-119318159D01*
X63323607Y-119318158D01*
X63347525Y-119310900D01*
X63347775Y-119310765D01*
X63400347Y-119294752D01*
X63562138Y-119212311D01*
X63706927Y-119102724D01*
X63707329Y-119102290D01*
X63830203Y-118969406D01*
X63830207Y-118969402D01*
X63904398Y-118853566D01*
X63957981Y-118806993D01*
X64028240Y-118796781D01*
X64092866Y-118826175D01*
X64131341Y-118885842D01*
X64136500Y-118921526D01*
X64136500Y-120754962D01*
X64116498Y-120823083D01*
X64099595Y-120844057D01*
X63860553Y-121083099D01*
X63798241Y-121117125D01*
X63771458Y-121120004D01*
X62362402Y-121120004D01*
X62301855Y-121126513D01*
X62301847Y-121126515D01*
X62164849Y-121177614D01*
X62164844Y-121177616D01*
X62047790Y-121265242D01*
X61960164Y-121382296D01*
X61960162Y-121382301D01*
X61909063Y-121519299D01*
X61909061Y-121519307D01*
X61902552Y-121579854D01*
X61902552Y-123477153D01*
X61909061Y-123537700D01*
X61909063Y-123537708D01*
X61960162Y-123674706D01*
X61960164Y-123674711D01*
X62047790Y-123791765D01*
X62164844Y-123879391D01*
X62164846Y-123879391D01*
X62164848Y-123879393D01*
X62231262Y-123904164D01*
X62288095Y-123946708D01*
X62312906Y-124013229D01*
X62297815Y-124082603D01*
X62276323Y-124111312D01*
X62236710Y-124150925D01*
X62106397Y-124330285D01*
X62005745Y-124527826D01*
X62005742Y-124527832D01*
X61937235Y-124738674D01*
X61937234Y-124738679D01*
X61937234Y-124738680D01*
X61902552Y-124957653D01*
X61902552Y-125179355D01*
X61937234Y-125398328D01*
X61937235Y-125398333D01*
X62005742Y-125609175D01*
X62005744Y-125609180D01*
X62005745Y-125609181D01*
X62106397Y-125806722D01*
X62236710Y-125986082D01*
X62393473Y-126142845D01*
X62393476Y-126142847D01*
X62572837Y-126273161D01*
X62770376Y-126373812D01*
X62981228Y-126442322D01*
X63200201Y-126477004D01*
X63200204Y-126477004D01*
X63421900Y-126477004D01*
X63421903Y-126477004D01*
X63640876Y-126442322D01*
X63851728Y-126373812D01*
X64049267Y-126273161D01*
X64228628Y-126142847D01*
X64385395Y-125986080D01*
X64515709Y-125806719D01*
X64616360Y-125609180D01*
X64684870Y-125398328D01*
X64719552Y-125179355D01*
X64719552Y-124957653D01*
X64684870Y-124738680D01*
X64616360Y-124527828D01*
X64515709Y-124330289D01*
X64385395Y-124150928D01*
X64385393Y-124150925D01*
X64345781Y-124111313D01*
X64311755Y-124049001D01*
X64316820Y-123978186D01*
X64359367Y-123921350D01*
X64390837Y-123904166D01*
X64457256Y-123879393D01*
X64574313Y-123791765D01*
X64661941Y-123674708D01*
X64713041Y-123537705D01*
X64717955Y-123492003D01*
X64719551Y-123477153D01*
X64719552Y-123477136D01*
X64719552Y-122423963D01*
X87670339Y-122423963D01*
X87670339Y-122645665D01*
X87705021Y-122864638D01*
X87705022Y-122864643D01*
X87773529Y-123075485D01*
X87773531Y-123075490D01*
X87773532Y-123075491D01*
X87874184Y-123273032D01*
X88004497Y-123452392D01*
X88044109Y-123492004D01*
X88078135Y-123554316D01*
X88073070Y-123625131D01*
X88030523Y-123681967D01*
X87999047Y-123699154D01*
X87932636Y-123723924D01*
X87932631Y-123723926D01*
X87815577Y-123811552D01*
X87727951Y-123928606D01*
X87727949Y-123928611D01*
X87676850Y-124065609D01*
X87676848Y-124065617D01*
X87670339Y-124126164D01*
X87670339Y-126023463D01*
X87676848Y-126084010D01*
X87676850Y-126084018D01*
X87727949Y-126221016D01*
X87727951Y-126221021D01*
X87815577Y-126338075D01*
X87932631Y-126425701D01*
X87932633Y-126425702D01*
X87932635Y-126425703D01*
X87977192Y-126442322D01*
X88069634Y-126476802D01*
X88069642Y-126476804D01*
X88130189Y-126483313D01*
X88130194Y-126483313D01*
X88130201Y-126483314D01*
X88130207Y-126483314D01*
X90027471Y-126483314D01*
X90027477Y-126483314D01*
X90027484Y-126483313D01*
X90027488Y-126483313D01*
X90088035Y-126476804D01*
X90088038Y-126476803D01*
X90088040Y-126476803D01*
X90225043Y-126425703D01*
X90231501Y-126420869D01*
X90342100Y-126338075D01*
X90429726Y-126221021D01*
X90429726Y-126221020D01*
X90429728Y-126221018D01*
X90480828Y-126084015D01*
X90487339Y-126023452D01*
X90487339Y-124126176D01*
X90482655Y-124082603D01*
X90480829Y-124065617D01*
X90480827Y-124065609D01*
X90429728Y-123928611D01*
X90429726Y-123928606D01*
X90342100Y-123811552D01*
X90225047Y-123723927D01*
X90225044Y-123723926D01*
X90225043Y-123723925D01*
X90158627Y-123699152D01*
X90101795Y-123656608D01*
X90076984Y-123590088D01*
X90092076Y-123520713D01*
X90113569Y-123492003D01*
X90153180Y-123452392D01*
X90153182Y-123452390D01*
X90283496Y-123273029D01*
X90384147Y-123075490D01*
X90452657Y-122864638D01*
X90487339Y-122645665D01*
X90487339Y-122423963D01*
X90452657Y-122204990D01*
X90384147Y-121994138D01*
X90283496Y-121796599D01*
X90153182Y-121617238D01*
X90153180Y-121617235D01*
X89996417Y-121460472D01*
X89817057Y-121330159D01*
X89817056Y-121330158D01*
X89817054Y-121330157D01*
X89619515Y-121229506D01*
X89619512Y-121229505D01*
X89619510Y-121229504D01*
X89408668Y-121160997D01*
X89408664Y-121160996D01*
X89408663Y-121160996D01*
X89189690Y-121126314D01*
X88967988Y-121126314D01*
X88749015Y-121160996D01*
X88749009Y-121160997D01*
X88538167Y-121229504D01*
X88538161Y-121229507D01*
X88340620Y-121330159D01*
X88161260Y-121460472D01*
X88004497Y-121617235D01*
X87874184Y-121796595D01*
X87773532Y-121994136D01*
X87773529Y-121994142D01*
X87705022Y-122204984D01*
X87705021Y-122204989D01*
X87705021Y-122204990D01*
X87670339Y-122423963D01*
X64719552Y-122423963D01*
X64719552Y-122068098D01*
X64739554Y-121999977D01*
X64756457Y-121979003D01*
X64938865Y-121796595D01*
X65262071Y-121473389D01*
X65331400Y-121369631D01*
X65379155Y-121254341D01*
X65403500Y-121131950D01*
X65403500Y-121007162D01*
X65403500Y-120052694D01*
X84068744Y-120052694D01*
X84068744Y-120249783D01*
X84107193Y-120443074D01*
X84107194Y-120443077D01*
X84124671Y-120485270D01*
X84182612Y-120625153D01*
X84292105Y-120789021D01*
X84431462Y-120928378D01*
X84595330Y-121037871D01*
X84777409Y-121113290D01*
X84970703Y-121151739D01*
X85167785Y-121151739D01*
X85361079Y-121113290D01*
X85543158Y-121037871D01*
X85707026Y-120928378D01*
X85846383Y-120789021D01*
X85955876Y-120625153D01*
X86031295Y-120443074D01*
X86069744Y-120249780D01*
X86069744Y-120052698D01*
X86031295Y-119859404D01*
X85955876Y-119677325D01*
X85846383Y-119513457D01*
X85707026Y-119374100D01*
X85543158Y-119264607D01*
X85416906Y-119212312D01*
X85361082Y-119189189D01*
X85361079Y-119189188D01*
X85167788Y-119150739D01*
X85167785Y-119150739D01*
X84970703Y-119150739D01*
X84970699Y-119150739D01*
X84777408Y-119189188D01*
X84777405Y-119189189D01*
X84595329Y-119264607D01*
X84431466Y-119374097D01*
X84431459Y-119374102D01*
X84292107Y-119513454D01*
X84292102Y-119513461D01*
X84182612Y-119677324D01*
X84107194Y-119859400D01*
X84107193Y-119859403D01*
X84068744Y-120052694D01*
X65403500Y-120052694D01*
X65403500Y-118178503D01*
X65423502Y-118110382D01*
X65440405Y-118089408D01*
X65475678Y-118054135D01*
X65560735Y-117926838D01*
X68034694Y-117926838D01*
X68034694Y-118123927D01*
X68051212Y-118206964D01*
X68073143Y-118317218D01*
X68148562Y-118499297D01*
X68258055Y-118663165D01*
X68397412Y-118802522D01*
X68561280Y-118912015D01*
X68743359Y-118987434D01*
X68936653Y-119025883D01*
X69133735Y-119025883D01*
X69327029Y-118987434D01*
X69509108Y-118912015D01*
X69672976Y-118802522D01*
X69812333Y-118663165D01*
X69921826Y-118499297D01*
X69997245Y-118317218D01*
X70035694Y-118123924D01*
X70035694Y-117926842D01*
X69997245Y-117733548D01*
X69921826Y-117551469D01*
X69812333Y-117387601D01*
X69672976Y-117248244D01*
X69509108Y-117138751D01*
X69394362Y-117091222D01*
X69327032Y-117063333D01*
X69327029Y-117063332D01*
X69133738Y-117024883D01*
X69133735Y-117024883D01*
X68936653Y-117024883D01*
X68936649Y-117024883D01*
X68743358Y-117063332D01*
X68743355Y-117063333D01*
X68561279Y-117138751D01*
X68397416Y-117248241D01*
X68397409Y-117248246D01*
X68258057Y-117387598D01*
X68258052Y-117387605D01*
X68148562Y-117551468D01*
X68073144Y-117733544D01*
X68073143Y-117733547D01*
X68034694Y-117926838D01*
X65560735Y-117926838D01*
X65575102Y-117905336D01*
X65643587Y-117740000D01*
X65678500Y-117564479D01*
X65678500Y-117385521D01*
X65643587Y-117210000D01*
X65594386Y-117091221D01*
X65586798Y-117020632D01*
X65618577Y-116957145D01*
X65679635Y-116920917D01*
X65749728Y-116923169D01*
X65864293Y-116960394D01*
X66083266Y-116995076D01*
X66083269Y-116995076D01*
X66304965Y-116995076D01*
X66304968Y-116995076D01*
X66523941Y-116960394D01*
X66734793Y-116891884D01*
X66932332Y-116791233D01*
X67111693Y-116660919D01*
X67268460Y-116504152D01*
X67398774Y-116324791D01*
X67499425Y-116127252D01*
X67567935Y-115916400D01*
X67602617Y-115697427D01*
X67602617Y-115641405D01*
X67622619Y-115573284D01*
X67676275Y-115526791D01*
X67746549Y-115516687D01*
X67780955Y-115526790D01*
X67845434Y-115556236D01*
X67845435Y-115556236D01*
X67845438Y-115556237D01*
X67990165Y-115577046D01*
X67990168Y-115577046D01*
X67990171Y-115577046D01*
X68134897Y-115556237D01*
X68134899Y-115556236D01*
X68134902Y-115556236D01*
X68227103Y-115514130D01*
X68267905Y-115495497D01*
X68267906Y-115495496D01*
X68267911Y-115495494D01*
X68315340Y-115457273D01*
X69656916Y-114115697D01*
X69695137Y-114068268D01*
X69755879Y-113935259D01*
X69759269Y-113911682D01*
X69776689Y-113790528D01*
X69776689Y-113790521D01*
X69755880Y-113645795D01*
X69755879Y-113645791D01*
X69695140Y-113512787D01*
X69695134Y-113512778D01*
X69661467Y-113471001D01*
X69656916Y-113465353D01*
X69132081Y-112940518D01*
X79101500Y-112940518D01*
X79101500Y-112940521D01*
X79101500Y-113119479D01*
X79136413Y-113295000D01*
X79204898Y-113460336D01*
X79304322Y-113609135D01*
X79304324Y-113609137D01*
X79339595Y-113644408D01*
X79373621Y-113706720D01*
X79376500Y-113733503D01*
X79376500Y-114231497D01*
X79356498Y-114299618D01*
X79339595Y-114320592D01*
X79304324Y-114355862D01*
X79304319Y-114355869D01*
X79209271Y-114498120D01*
X79204898Y-114504664D01*
X79190716Y-114538902D01*
X79136414Y-114669996D01*
X79101500Y-114845518D01*
X79101500Y-115024481D01*
X79107185Y-115053061D01*
X79136413Y-115200000D01*
X79204898Y-115365336D01*
X79304322Y-115514135D01*
X79430865Y-115640678D01*
X79579664Y-115740102D01*
X79745000Y-115808587D01*
X79920521Y-115843500D01*
X79920522Y-115843500D01*
X80099478Y-115843500D01*
X80099479Y-115843500D01*
X80275000Y-115808587D01*
X80440336Y-115740102D01*
X80589135Y-115640678D01*
X80715678Y-115514135D01*
X80815102Y-115365336D01*
X80883587Y-115200000D01*
X80918500Y-115024479D01*
X80918500Y-114845521D01*
X80883587Y-114670000D01*
X80815102Y-114504664D01*
X80715678Y-114355865D01*
X80680405Y-114320592D01*
X80646379Y-114258280D01*
X80643500Y-114231497D01*
X80643500Y-113733503D01*
X80652002Y-113704547D01*
X80654919Y-113689980D01*
X83012409Y-113689980D01*
X83012409Y-113911682D01*
X83044722Y-114115697D01*
X83047092Y-114130660D01*
X83115599Y-114341502D01*
X83115601Y-114341507D01*
X83202591Y-114512234D01*
X83216254Y-114539049D01*
X83346567Y-114718409D01*
X83503330Y-114875172D01*
X83503333Y-114875174D01*
X83682694Y-115005488D01*
X83880233Y-115106139D01*
X84091085Y-115174649D01*
X84310058Y-115209331D01*
X84310061Y-115209331D01*
X84366079Y-115209331D01*
X84434200Y-115229333D01*
X84480693Y-115282989D01*
X84490797Y-115353263D01*
X84480694Y-115387671D01*
X84451248Y-115452151D01*
X84451247Y-115452152D01*
X84430439Y-115596878D01*
X84430439Y-115596885D01*
X84451247Y-115741611D01*
X84451248Y-115741615D01*
X84511987Y-115874619D01*
X84511991Y-115874625D01*
X84550212Y-115922054D01*
X85891788Y-117263630D01*
X85939217Y-117301851D01*
X85939218Y-117301851D01*
X85939222Y-117301854D01*
X86072226Y-117362593D01*
X86072230Y-117362594D01*
X86216957Y-117383403D01*
X86216960Y-117383403D01*
X86216963Y-117383403D01*
X86361689Y-117362594D01*
X86361691Y-117362593D01*
X86361694Y-117362593D01*
X86491388Y-117303365D01*
X86494697Y-117301854D01*
X86494698Y-117301853D01*
X86494703Y-117301851D01*
X86542132Y-117263630D01*
X87883708Y-115922054D01*
X87921929Y-115874625D01*
X87936144Y-115843499D01*
X87982671Y-115741615D01*
X87982672Y-115741611D01*
X88003481Y-115596885D01*
X88003481Y-115596878D01*
X87982672Y-115452152D01*
X87982671Y-115452148D01*
X87921932Y-115319144D01*
X87921926Y-115319135D01*
X87902785Y-115295383D01*
X87883708Y-115271710D01*
X86887365Y-114275367D01*
X86853339Y-114213055D01*
X86850460Y-114186272D01*
X86850460Y-105727946D01*
X86870462Y-105659825D01*
X86924118Y-105613332D01*
X86994392Y-105603228D01*
X87050520Y-105626009D01*
X87176371Y-105717446D01*
X87373910Y-105818097D01*
X87584762Y-105886607D01*
X87803735Y-105921289D01*
X87803738Y-105921289D01*
X88025434Y-105921289D01*
X88025437Y-105921289D01*
X88244410Y-105886607D01*
X88455262Y-105818097D01*
X88652801Y-105717446D01*
X88832162Y-105587132D01*
X88988929Y-105430365D01*
X89119243Y-105251004D01*
X89219894Y-105053465D01*
X89288404Y-104842613D01*
X89323086Y-104623640D01*
X89323086Y-104401938D01*
X89288404Y-104182965D01*
X89219894Y-103972113D01*
X89119243Y-103774574D01*
X88988929Y-103595213D01*
X88988927Y-103595210D01*
X88832164Y-103438447D01*
X88652804Y-103308134D01*
X88652803Y-103308133D01*
X88652801Y-103308132D01*
X88495598Y-103228033D01*
X88443984Y-103179286D01*
X88426918Y-103110371D01*
X88449819Y-103043169D01*
X88466941Y-103023551D01*
X88518487Y-102975560D01*
X88593100Y-102849807D01*
X88629262Y-102708127D01*
X88624043Y-102561997D01*
X88606882Y-102503553D01*
X87880826Y-100750698D01*
X87880824Y-100750695D01*
X87880822Y-100750689D01*
X87851636Y-100697241D01*
X87851634Y-100697237D01*
X87751995Y-100590218D01*
X87626242Y-100515605D01*
X87505010Y-100484662D01*
X87484567Y-100479444D01*
X87484562Y-100479443D01*
X87338430Y-100484662D01*
X87338428Y-100484663D01*
X87313714Y-100491919D01*
X87279988Y-100501823D01*
X87279986Y-100501823D01*
X87279982Y-100501825D01*
X85527124Y-101227882D01*
X85473676Y-101257068D01*
X85473673Y-101257069D01*
X85473672Y-101257071D01*
X85387037Y-101337732D01*
X85366653Y-101356710D01*
X85292040Y-101482463D01*
X85255879Y-101624137D01*
X85255878Y-101624142D01*
X85255878Y-101624143D01*
X85261097Y-101770273D01*
X85278258Y-101828717D01*
X85278259Y-101828721D01*
X85278260Y-101828722D01*
X85791442Y-103067654D01*
X85799031Y-103138244D01*
X85767252Y-103201731D01*
X85764129Y-103204966D01*
X85724892Y-103244203D01*
X85724886Y-103244211D01*
X85655561Y-103347963D01*
X85607806Y-103463252D01*
X85583460Y-103585643D01*
X85583460Y-112667272D01*
X85563458Y-112735393D01*
X85509802Y-112781886D01*
X85439528Y-112791990D01*
X85374948Y-112762496D01*
X85368365Y-112756367D01*
X85338487Y-112726489D01*
X85159127Y-112596176D01*
X85159126Y-112596175D01*
X85159124Y-112596174D01*
X84961585Y-112495523D01*
X84961582Y-112495522D01*
X84961580Y-112495521D01*
X84750738Y-112427014D01*
X84750734Y-112427013D01*
X84750733Y-112427013D01*
X84531760Y-112392331D01*
X84310058Y-112392331D01*
X84091085Y-112427013D01*
X84091079Y-112427014D01*
X83880237Y-112495521D01*
X83880231Y-112495524D01*
X83682690Y-112596176D01*
X83503330Y-112726489D01*
X83346567Y-112883252D01*
X83216254Y-113062612D01*
X83115602Y-113260153D01*
X83115599Y-113260159D01*
X83047092Y-113471001D01*
X83047091Y-113471006D01*
X83047091Y-113471007D01*
X83012409Y-113689980D01*
X80654919Y-113689980D01*
X80657927Y-113674959D01*
X80662524Y-113668709D01*
X80663502Y-113665382D01*
X80678940Y-113645897D01*
X80679651Y-113645161D01*
X80715678Y-113609135D01*
X80815102Y-113460336D01*
X80883587Y-113295000D01*
X80918500Y-113119479D01*
X80918500Y-112940521D01*
X80883587Y-112765000D01*
X80815102Y-112599664D01*
X80715678Y-112450865D01*
X80589135Y-112324322D01*
X80440336Y-112224898D01*
X80303676Y-112168291D01*
X80275003Y-112156414D01*
X80275001Y-112156413D01*
X80275000Y-112156413D01*
X80186645Y-112138838D01*
X80099481Y-112121500D01*
X80099479Y-112121500D01*
X79920521Y-112121500D01*
X79920518Y-112121500D01*
X79789771Y-112147507D01*
X79745000Y-112156413D01*
X79744999Y-112156413D01*
X79744996Y-112156414D01*
X79685579Y-112181026D01*
X79584068Y-112223074D01*
X79579662Y-112224899D01*
X79430869Y-112324319D01*
X79430862Y-112324324D01*
X79304324Y-112450862D01*
X79304319Y-112450869D01*
X79204899Y-112599662D01*
X79136414Y-112764996D01*
X79101500Y-112940518D01*
X69132081Y-112940518D01*
X68660573Y-112469010D01*
X68626547Y-112406698D01*
X68623668Y-112379915D01*
X68623668Y-110759426D01*
X68643670Y-110691305D01*
X68660568Y-110670335D01*
X68850944Y-110479959D01*
X68913253Y-110445936D01*
X68984069Y-110451000D01*
X69040905Y-110493547D01*
X69056446Y-110520838D01*
X69850059Y-112436788D01*
X69867655Y-112469010D01*
X69879248Y-112490241D01*
X69879251Y-112490244D01*
X69879253Y-112490247D01*
X69978888Y-112597262D01*
X69978887Y-112597262D01*
X70081957Y-112658415D01*
X70104640Y-112671873D01*
X70246321Y-112708035D01*
X70392450Y-112702817D01*
X70450895Y-112685656D01*
X72388525Y-111883063D01*
X72388530Y-111883060D01*
X72388533Y-111883059D01*
X72401214Y-111876134D01*
X72441986Y-111853871D01*
X72549006Y-111754232D01*
X72623618Y-111628479D01*
X72659780Y-111486798D01*
X72654562Y-111340669D01*
X72637401Y-111282224D01*
X72440521Y-110806914D01*
X73519600Y-110806914D01*
X73519600Y-111028616D01*
X73542991Y-111176300D01*
X73554283Y-111247594D01*
X73607588Y-111411649D01*
X73622792Y-111458441D01*
X73709430Y-111628477D01*
X73723445Y-111655983D01*
X73853758Y-111835343D01*
X74010521Y-111992106D01*
X74010524Y-111992108D01*
X74189885Y-112122422D01*
X74387424Y-112223073D01*
X74598276Y-112291583D01*
X74817249Y-112326265D01*
X74817252Y-112326265D01*
X75038948Y-112326265D01*
X75038951Y-112326265D01*
X75257924Y-112291583D01*
X75468776Y-112223073D01*
X75666315Y-112122422D01*
X75845676Y-111992108D01*
X75885289Y-111952495D01*
X75947600Y-111918469D01*
X76018416Y-111923533D01*
X76075252Y-111966079D01*
X76092437Y-111997550D01*
X76117211Y-112063969D01*
X76117212Y-112063970D01*
X76117213Y-112063973D01*
X76204838Y-112181026D01*
X76321892Y-112268652D01*
X76321894Y-112268653D01*
X76321896Y-112268654D01*
X76380975Y-112290689D01*
X76458895Y-112319753D01*
X76458903Y-112319755D01*
X76519450Y-112326264D01*
X76519455Y-112326264D01*
X76519462Y-112326265D01*
X76519468Y-112326265D01*
X78416732Y-112326265D01*
X78416738Y-112326265D01*
X78416745Y-112326264D01*
X78416749Y-112326264D01*
X78477296Y-112319755D01*
X78477299Y-112319754D01*
X78477301Y-112319754D01*
X78614304Y-112268654D01*
X78731361Y-112181026D01*
X78775512Y-112122047D01*
X78818987Y-112063972D01*
X78818987Y-112063971D01*
X78818989Y-112063969D01*
X78870089Y-111926966D01*
X78870459Y-111923533D01*
X78876599Y-111866414D01*
X78876600Y-111866397D01*
X78876600Y-109969132D01*
X78876599Y-109969115D01*
X78870090Y-109908568D01*
X78870088Y-109908560D01*
X78818989Y-109771562D01*
X78818987Y-109771557D01*
X78731361Y-109654503D01*
X78614307Y-109566877D01*
X78614302Y-109566875D01*
X78477304Y-109515776D01*
X78477296Y-109515774D01*
X78416749Y-109509265D01*
X78416738Y-109509265D01*
X76519462Y-109509265D01*
X76519450Y-109509265D01*
X76458903Y-109515774D01*
X76458895Y-109515776D01*
X76321897Y-109566875D01*
X76321892Y-109566877D01*
X76204838Y-109654503D01*
X76117212Y-109771557D01*
X76117210Y-109771562D01*
X76092440Y-109837973D01*
X76049893Y-109894809D01*
X75983373Y-109919619D01*
X75913999Y-109904527D01*
X75885290Y-109883035D01*
X75845678Y-109843423D01*
X75666318Y-109713110D01*
X75666317Y-109713109D01*
X75666315Y-109713108D01*
X75468776Y-109612457D01*
X75468773Y-109612456D01*
X75468771Y-109612455D01*
X75257929Y-109543948D01*
X75257925Y-109543947D01*
X75257924Y-109543947D01*
X75038951Y-109509265D01*
X74817249Y-109509265D01*
X74598276Y-109543947D01*
X74598270Y-109543948D01*
X74387428Y-109612455D01*
X74387422Y-109612458D01*
X74189881Y-109713110D01*
X74010521Y-109843423D01*
X73853758Y-110000186D01*
X73723445Y-110179546D01*
X73622793Y-110377087D01*
X73622790Y-110377093D01*
X73554283Y-110587935D01*
X73554282Y-110587940D01*
X73554282Y-110587941D01*
X73519600Y-110806914D01*
X72440521Y-110806914D01*
X72437407Y-110799397D01*
X72180657Y-110179546D01*
X71834808Y-109344594D01*
X71834806Y-109344591D01*
X71834804Y-109344585D01*
X71817613Y-109313105D01*
X71805616Y-109291133D01*
X71805611Y-109291128D01*
X71805610Y-109291126D01*
X71705975Y-109184111D01*
X71705976Y-109184111D01*
X71580226Y-109109502D01*
X71580225Y-109109501D01*
X71580224Y-109109501D01*
X71488287Y-109086035D01*
X71438548Y-109073340D01*
X71438544Y-109073339D01*
X71438543Y-109073339D01*
X71438542Y-109073339D01*
X71292411Y-109078557D01*
X71233965Y-109095719D01*
X70219860Y-109515776D01*
X69387716Y-109860461D01*
X69317128Y-109868050D01*
X69253641Y-109836271D01*
X69217414Y-109775213D01*
X69213500Y-109744052D01*
X69213500Y-107543870D01*
X69233502Y-107475749D01*
X69287158Y-107429256D01*
X69357432Y-107419152D01*
X69422012Y-107448646D01*
X69441432Y-107469805D01*
X69486932Y-107532430D01*
X69486936Y-107532435D01*
X69632564Y-107678063D01*
X69632567Y-107678065D01*
X69632570Y-107678068D01*
X69799197Y-107799129D01*
X69982710Y-107892634D01*
X70178592Y-107956280D01*
X70382019Y-107988500D01*
X70382022Y-107988500D01*
X70587978Y-107988500D01*
X70587981Y-107988500D01*
X70791408Y-107956280D01*
X70987290Y-107892634D01*
X71170803Y-107799129D01*
X71337430Y-107678068D01*
X71483068Y-107532430D01*
X71604129Y-107365803D01*
X71697634Y-107182290D01*
X71761280Y-106986408D01*
X71793500Y-106782981D01*
X71793500Y-106577019D01*
X72986500Y-106577019D01*
X72986500Y-106782981D01*
X73018720Y-106986408D01*
X73018721Y-106986412D01*
X73068595Y-107139909D01*
X73082366Y-107182290D01*
X73175871Y-107365803D01*
X73296932Y-107532430D01*
X73296934Y-107532432D01*
X73296936Y-107532435D01*
X73442564Y-107678063D01*
X73442567Y-107678065D01*
X73442570Y-107678068D01*
X73609197Y-107799129D01*
X73792710Y-107892634D01*
X73988592Y-107956280D01*
X74192019Y-107988500D01*
X74192022Y-107988500D01*
X74397978Y-107988500D01*
X74397981Y-107988500D01*
X74601408Y-107956280D01*
X74797290Y-107892634D01*
X74980803Y-107799129D01*
X75147430Y-107678068D01*
X75293068Y-107532430D01*
X75414129Y-107365803D01*
X75507634Y-107182290D01*
X75571280Y-106986408D01*
X75603500Y-106782981D01*
X75603500Y-106577019D01*
X76796500Y-106577019D01*
X76796500Y-106782981D01*
X76828720Y-106986408D01*
X76828721Y-106986412D01*
X76878595Y-107139909D01*
X76892366Y-107182290D01*
X76985871Y-107365803D01*
X77106932Y-107532430D01*
X77106934Y-107532432D01*
X77106936Y-107532435D01*
X77252564Y-107678063D01*
X77252567Y-107678065D01*
X77252570Y-107678068D01*
X77419197Y-107799129D01*
X77602710Y-107892634D01*
X77798592Y-107956280D01*
X78002019Y-107988500D01*
X78002022Y-107988500D01*
X78207978Y-107988500D01*
X78207981Y-107988500D01*
X78411408Y-107956280D01*
X78607290Y-107892634D01*
X78790803Y-107799129D01*
X78957430Y-107678068D01*
X79103068Y-107532430D01*
X79224129Y-107365803D01*
X79317634Y-107182290D01*
X79381280Y-106986408D01*
X79413500Y-106782981D01*
X79413500Y-106577019D01*
X80606500Y-106577019D01*
X80606500Y-106782981D01*
X80638720Y-106986408D01*
X80638721Y-106986412D01*
X80688595Y-107139909D01*
X80702366Y-107182290D01*
X80795871Y-107365803D01*
X80916932Y-107532430D01*
X80916934Y-107532432D01*
X80916936Y-107532435D01*
X81062564Y-107678063D01*
X81062567Y-107678065D01*
X81062570Y-107678068D01*
X81229197Y-107799129D01*
X81412710Y-107892634D01*
X81608592Y-107956280D01*
X81812019Y-107988500D01*
X81812022Y-107988500D01*
X82017978Y-107988500D01*
X82017981Y-107988500D01*
X82221408Y-107956280D01*
X82417290Y-107892634D01*
X82600803Y-107799129D01*
X82767430Y-107678068D01*
X82913068Y-107532430D01*
X83034129Y-107365803D01*
X83127634Y-107182290D01*
X83191280Y-106986408D01*
X83223500Y-106782981D01*
X83223500Y-106577019D01*
X83191280Y-106373592D01*
X83127634Y-106177710D01*
X83034129Y-105994197D01*
X82913068Y-105827570D01*
X82913065Y-105827567D01*
X82913063Y-105827564D01*
X82767435Y-105681936D01*
X82767432Y-105681934D01*
X82767430Y-105681932D01*
X82610827Y-105568154D01*
X82600806Y-105560873D01*
X82600805Y-105560872D01*
X82600803Y-105560871D01*
X82417290Y-105467366D01*
X82417287Y-105467365D01*
X82417285Y-105467364D01*
X82221412Y-105403721D01*
X82221410Y-105403720D01*
X82221408Y-105403720D01*
X82017981Y-105371500D01*
X81812019Y-105371500D01*
X81608592Y-105403720D01*
X81608590Y-105403720D01*
X81608587Y-105403721D01*
X81412714Y-105467364D01*
X81412708Y-105467367D01*
X81229193Y-105560873D01*
X81062567Y-105681934D01*
X81062564Y-105681936D01*
X80916936Y-105827564D01*
X80916934Y-105827567D01*
X80795873Y-105994193D01*
X80702367Y-106177708D01*
X80702364Y-106177714D01*
X80638721Y-106373587D01*
X80638720Y-106373590D01*
X80638720Y-106373592D01*
X80606500Y-106577019D01*
X79413500Y-106577019D01*
X79381280Y-106373592D01*
X79317634Y-106177710D01*
X79224129Y-105994197D01*
X79103068Y-105827570D01*
X79103065Y-105827567D01*
X79103063Y-105827564D01*
X78957435Y-105681936D01*
X78957432Y-105681934D01*
X78957430Y-105681932D01*
X78800827Y-105568154D01*
X78790806Y-105560873D01*
X78790805Y-105560872D01*
X78790803Y-105560871D01*
X78607290Y-105467366D01*
X78607287Y-105467365D01*
X78607285Y-105467364D01*
X78411412Y-105403721D01*
X78411410Y-105403720D01*
X78411408Y-105403720D01*
X78207981Y-105371500D01*
X78002019Y-105371500D01*
X77798592Y-105403720D01*
X77798590Y-105403720D01*
X77798587Y-105403721D01*
X77602714Y-105467364D01*
X77602708Y-105467367D01*
X77419193Y-105560873D01*
X77252567Y-105681934D01*
X77252564Y-105681936D01*
X77106936Y-105827564D01*
X77106934Y-105827567D01*
X76985873Y-105994193D01*
X76892367Y-106177708D01*
X76892364Y-106177714D01*
X76828721Y-106373587D01*
X76828720Y-106373590D01*
X76828720Y-106373592D01*
X76796500Y-106577019D01*
X75603500Y-106577019D01*
X75571280Y-106373592D01*
X75507634Y-106177710D01*
X75414129Y-105994197D01*
X75293068Y-105827570D01*
X75293065Y-105827567D01*
X75293063Y-105827564D01*
X75147435Y-105681936D01*
X75147432Y-105681934D01*
X75147430Y-105681932D01*
X74990827Y-105568154D01*
X74980806Y-105560873D01*
X74980805Y-105560872D01*
X74980803Y-105560871D01*
X74797290Y-105467366D01*
X74797287Y-105467365D01*
X74797285Y-105467364D01*
X74601412Y-105403721D01*
X74601410Y-105403720D01*
X74601408Y-105403720D01*
X74397981Y-105371500D01*
X74192019Y-105371500D01*
X73988592Y-105403720D01*
X73988590Y-105403720D01*
X73988587Y-105403721D01*
X73792714Y-105467364D01*
X73792708Y-105467367D01*
X73609193Y-105560873D01*
X73442567Y-105681934D01*
X73442564Y-105681936D01*
X73296936Y-105827564D01*
X73296934Y-105827567D01*
X73175873Y-105994193D01*
X73082367Y-106177708D01*
X73082364Y-106177714D01*
X73018721Y-106373587D01*
X73018720Y-106373590D01*
X73018720Y-106373592D01*
X72986500Y-106577019D01*
X71793500Y-106577019D01*
X71761280Y-106373592D01*
X71697634Y-106177710D01*
X71604129Y-105994197D01*
X71483068Y-105827570D01*
X71483065Y-105827567D01*
X71483063Y-105827564D01*
X71337435Y-105681936D01*
X71337432Y-105681934D01*
X71337430Y-105681932D01*
X71180827Y-105568154D01*
X71170806Y-105560873D01*
X71170805Y-105560872D01*
X71170803Y-105560871D01*
X70987290Y-105467366D01*
X70987287Y-105467365D01*
X70987285Y-105467364D01*
X70791412Y-105403721D01*
X70791410Y-105403720D01*
X70791408Y-105403720D01*
X70587981Y-105371500D01*
X70382019Y-105371500D01*
X70178592Y-105403720D01*
X70178590Y-105403720D01*
X70178587Y-105403721D01*
X69982714Y-105467364D01*
X69982708Y-105467367D01*
X69799193Y-105560873D01*
X69632567Y-105681934D01*
X69632564Y-105681936D01*
X69486936Y-105827564D01*
X69486934Y-105827567D01*
X69441436Y-105890190D01*
X69385214Y-105933544D01*
X69314477Y-105939619D01*
X69251686Y-105906488D01*
X69216774Y-105844667D01*
X69213500Y-105816129D01*
X69213500Y-99923870D01*
X69233502Y-99855749D01*
X69287158Y-99809256D01*
X69357432Y-99799152D01*
X69422012Y-99828646D01*
X69441432Y-99849805D01*
X69486932Y-99912430D01*
X69486936Y-99912435D01*
X69632564Y-100058063D01*
X69632567Y-100058065D01*
X69632570Y-100058068D01*
X69799197Y-100179129D01*
X69982710Y-100272634D01*
X70178592Y-100336280D01*
X70382019Y-100368500D01*
X70382022Y-100368500D01*
X70587978Y-100368500D01*
X70587981Y-100368500D01*
X70791408Y-100336280D01*
X70987290Y-100272634D01*
X71170803Y-100179129D01*
X71337430Y-100058068D01*
X71483068Y-99912430D01*
X71604129Y-99745803D01*
X71697634Y-99562290D01*
X71761280Y-99366408D01*
X71793500Y-99162981D01*
X71793500Y-98957019D01*
X72986500Y-98957019D01*
X72986500Y-99162981D01*
X73018474Y-99364854D01*
X73018721Y-99366412D01*
X73081173Y-99558621D01*
X73082366Y-99562290D01*
X73175871Y-99745803D01*
X73296932Y-99912430D01*
X73296934Y-99912432D01*
X73296936Y-99912435D01*
X73442564Y-100058063D01*
X73442567Y-100058065D01*
X73442570Y-100058068D01*
X73609197Y-100179129D01*
X73792710Y-100272634D01*
X73988592Y-100336280D01*
X74192019Y-100368500D01*
X74192022Y-100368500D01*
X74397978Y-100368500D01*
X74397981Y-100368500D01*
X74601408Y-100336280D01*
X74797290Y-100272634D01*
X74980803Y-100179129D01*
X75147430Y-100058068D01*
X75293068Y-99912430D01*
X75414129Y-99745803D01*
X75507634Y-99562290D01*
X75571280Y-99366408D01*
X75603500Y-99162981D01*
X75603500Y-98957019D01*
X76796500Y-98957019D01*
X76796500Y-99162981D01*
X76828474Y-99364854D01*
X76828721Y-99366412D01*
X76891173Y-99558621D01*
X76892366Y-99562290D01*
X76985871Y-99745803D01*
X77106932Y-99912430D01*
X77106934Y-99912432D01*
X77106936Y-99912435D01*
X77252564Y-100058063D01*
X77252567Y-100058065D01*
X77252570Y-100058068D01*
X77419197Y-100179129D01*
X77602710Y-100272634D01*
X77798592Y-100336280D01*
X78002019Y-100368500D01*
X78002022Y-100368500D01*
X78207978Y-100368500D01*
X78207981Y-100368500D01*
X78411408Y-100336280D01*
X78607290Y-100272634D01*
X78790803Y-100179129D01*
X78957430Y-100058068D01*
X79103068Y-99912430D01*
X79224129Y-99745803D01*
X79317634Y-99562290D01*
X79381280Y-99366408D01*
X79413500Y-99162981D01*
X79413500Y-98957019D01*
X80606500Y-98957019D01*
X80606500Y-99162981D01*
X80638474Y-99364854D01*
X80638721Y-99366412D01*
X80701173Y-99558621D01*
X80702366Y-99562290D01*
X80795871Y-99745803D01*
X80916932Y-99912430D01*
X80916934Y-99912432D01*
X80916936Y-99912435D01*
X81062564Y-100058063D01*
X81062567Y-100058065D01*
X81062570Y-100058068D01*
X81229197Y-100179129D01*
X81412710Y-100272634D01*
X81608592Y-100336280D01*
X81812019Y-100368500D01*
X81812022Y-100368500D01*
X82017978Y-100368500D01*
X82017981Y-100368500D01*
X82221408Y-100336280D01*
X82417290Y-100272634D01*
X82600803Y-100179129D01*
X82767430Y-100058068D01*
X82913068Y-99912430D01*
X83034129Y-99745803D01*
X83127634Y-99562290D01*
X83191280Y-99366408D01*
X83223500Y-99162981D01*
X83223500Y-98957019D01*
X83191280Y-98753592D01*
X83127634Y-98557710D01*
X83034129Y-98374197D01*
X82938127Y-98242061D01*
X86957000Y-98242061D01*
X86957000Y-98447938D01*
X86989208Y-98651296D01*
X87052826Y-98847093D01*
X87052829Y-98847099D01*
X87146297Y-99030540D01*
X87146298Y-99030541D01*
X87177416Y-99073372D01*
X87865000Y-98385788D01*
X87865000Y-98397661D01*
X87892259Y-98499394D01*
X87944920Y-98590606D01*
X88019394Y-98665080D01*
X88110606Y-98717741D01*
X88212339Y-98745000D01*
X88224210Y-98745000D01*
X87536626Y-99432582D01*
X87536626Y-99432583D01*
X87579454Y-99463699D01*
X87762900Y-99557170D01*
X87762906Y-99557173D01*
X87958705Y-99620791D01*
X87958701Y-99620791D01*
X88162061Y-99653000D01*
X88367939Y-99653000D01*
X88571296Y-99620791D01*
X88767093Y-99557173D01*
X88767099Y-99557170D01*
X88950541Y-99463701D01*
X88993372Y-99432582D01*
X88993372Y-99432581D01*
X88305791Y-98745000D01*
X88317661Y-98745000D01*
X88419394Y-98717741D01*
X88510606Y-98665080D01*
X88585080Y-98590606D01*
X88637741Y-98499394D01*
X88665000Y-98397661D01*
X88665000Y-98385791D01*
X89352581Y-99073372D01*
X89352582Y-99073372D01*
X89383701Y-99030541D01*
X89477170Y-98847099D01*
X89477173Y-98847093D01*
X89540791Y-98651296D01*
X89573000Y-98447938D01*
X89573000Y-98242061D01*
X89540791Y-98038703D01*
X89477173Y-97842906D01*
X89477170Y-97842900D01*
X89383699Y-97659454D01*
X89352583Y-97616626D01*
X89352582Y-97616626D01*
X88665000Y-98304208D01*
X88665000Y-98292339D01*
X88637741Y-98190606D01*
X88585080Y-98099394D01*
X88510606Y-98024920D01*
X88419394Y-97972259D01*
X88317661Y-97945000D01*
X88305790Y-97945000D01*
X88993372Y-97257416D01*
X88950541Y-97226298D01*
X88950540Y-97226297D01*
X88767099Y-97132829D01*
X88767093Y-97132826D01*
X88571294Y-97069208D01*
X88571298Y-97069208D01*
X88367939Y-97037000D01*
X88162061Y-97037000D01*
X87958703Y-97069208D01*
X87762906Y-97132826D01*
X87762900Y-97132829D01*
X87579452Y-97226301D01*
X87536625Y-97257416D01*
X88224209Y-97945000D01*
X88212339Y-97945000D01*
X88110606Y-97972259D01*
X88019394Y-98024920D01*
X87944920Y-98099394D01*
X87892259Y-98190606D01*
X87865000Y-98292339D01*
X87865000Y-98304209D01*
X87177416Y-97616625D01*
X87146301Y-97659452D01*
X87052829Y-97842900D01*
X87052826Y-97842906D01*
X86989208Y-98038703D01*
X86957000Y-98242061D01*
X82938127Y-98242061D01*
X82913068Y-98207570D01*
X82913065Y-98207567D01*
X82913063Y-98207564D01*
X82767435Y-98061936D01*
X82767432Y-98061934D01*
X82767430Y-98061932D01*
X82600803Y-97940871D01*
X82417290Y-97847366D01*
X82417287Y-97847365D01*
X82417285Y-97847364D01*
X82221412Y-97783721D01*
X82221410Y-97783720D01*
X82221408Y-97783720D01*
X82017981Y-97751500D01*
X81812019Y-97751500D01*
X81608592Y-97783720D01*
X81608590Y-97783720D01*
X81608587Y-97783721D01*
X81412714Y-97847364D01*
X81412708Y-97847367D01*
X81229193Y-97940873D01*
X81062567Y-98061934D01*
X81062564Y-98061936D01*
X80916936Y-98207564D01*
X80916934Y-98207567D01*
X80795873Y-98374193D01*
X80702367Y-98557708D01*
X80702364Y-98557714D01*
X80638721Y-98753587D01*
X80638720Y-98753590D01*
X80638720Y-98753592D01*
X80606500Y-98957019D01*
X79413500Y-98957019D01*
X79381280Y-98753592D01*
X79317634Y-98557710D01*
X79224129Y-98374197D01*
X79103068Y-98207570D01*
X79103065Y-98207567D01*
X79103063Y-98207564D01*
X78957435Y-98061936D01*
X78957432Y-98061934D01*
X78957430Y-98061932D01*
X78790803Y-97940871D01*
X78607290Y-97847366D01*
X78607287Y-97847365D01*
X78607285Y-97847364D01*
X78411412Y-97783721D01*
X78411410Y-97783720D01*
X78411408Y-97783720D01*
X78207981Y-97751500D01*
X78002019Y-97751500D01*
X77798592Y-97783720D01*
X77798590Y-97783720D01*
X77798587Y-97783721D01*
X77602714Y-97847364D01*
X77602708Y-97847367D01*
X77419193Y-97940873D01*
X77252567Y-98061934D01*
X77252564Y-98061936D01*
X77106936Y-98207564D01*
X77106934Y-98207567D01*
X76985873Y-98374193D01*
X76892367Y-98557708D01*
X76892364Y-98557714D01*
X76828721Y-98753587D01*
X76828720Y-98753590D01*
X76828720Y-98753592D01*
X76796500Y-98957019D01*
X75603500Y-98957019D01*
X75571280Y-98753592D01*
X75507634Y-98557710D01*
X75414129Y-98374197D01*
X75293068Y-98207570D01*
X75293065Y-98207567D01*
X75293063Y-98207564D01*
X75147435Y-98061936D01*
X75147432Y-98061934D01*
X75147430Y-98061932D01*
X74980803Y-97940871D01*
X74797290Y-97847366D01*
X74797287Y-97847365D01*
X74797285Y-97847364D01*
X74601412Y-97783721D01*
X74601410Y-97783720D01*
X74601408Y-97783720D01*
X74397981Y-97751500D01*
X74192019Y-97751500D01*
X73988592Y-97783720D01*
X73988590Y-97783720D01*
X73988587Y-97783721D01*
X73792714Y-97847364D01*
X73792708Y-97847367D01*
X73609193Y-97940873D01*
X73442567Y-98061934D01*
X73442564Y-98061936D01*
X73296936Y-98207564D01*
X73296934Y-98207567D01*
X73175873Y-98374193D01*
X73082367Y-98557708D01*
X73082364Y-98557714D01*
X73018721Y-98753587D01*
X73018720Y-98753590D01*
X73018720Y-98753592D01*
X72986500Y-98957019D01*
X71793500Y-98957019D01*
X71761280Y-98753592D01*
X71697634Y-98557710D01*
X71604129Y-98374197D01*
X71483068Y-98207570D01*
X71483065Y-98207567D01*
X71483063Y-98207564D01*
X71337435Y-98061936D01*
X71337432Y-98061934D01*
X71337430Y-98061932D01*
X71170803Y-97940871D01*
X70987290Y-97847366D01*
X70987287Y-97847365D01*
X70987285Y-97847364D01*
X70791412Y-97783721D01*
X70791410Y-97783720D01*
X70791408Y-97783720D01*
X70587981Y-97751500D01*
X70382019Y-97751500D01*
X70178592Y-97783720D01*
X70178590Y-97783720D01*
X70178587Y-97783721D01*
X69982714Y-97847364D01*
X69982708Y-97847367D01*
X69799193Y-97940873D01*
X69632567Y-98061934D01*
X69632564Y-98061936D01*
X69486936Y-98207564D01*
X69486934Y-98207567D01*
X69441436Y-98270190D01*
X69385214Y-98313544D01*
X69314477Y-98319619D01*
X69251686Y-98286488D01*
X69216774Y-98224667D01*
X69213500Y-98196129D01*
X69213500Y-96871328D01*
X69233502Y-96803207D01*
X69265440Y-96769391D01*
X69265795Y-96769133D01*
X69265803Y-96769129D01*
X69432430Y-96648068D01*
X69578068Y-96502430D01*
X69699129Y-96335803D01*
X69737734Y-96260034D01*
X69786481Y-96208422D01*
X69855396Y-96191356D01*
X69922598Y-96214257D01*
X69962264Y-96260034D01*
X70000871Y-96335803D01*
X70121932Y-96502430D01*
X70121934Y-96502432D01*
X70121936Y-96502435D01*
X70267564Y-96648063D01*
X70267567Y-96648065D01*
X70267570Y-96648068D01*
X70434197Y-96769129D01*
X70617710Y-96862634D01*
X70813592Y-96926280D01*
X71017019Y-96958500D01*
X71017022Y-96958500D01*
X71222978Y-96958500D01*
X71222981Y-96958500D01*
X71426408Y-96926280D01*
X71622290Y-96862634D01*
X71805803Y-96769129D01*
X71972430Y-96648068D01*
X72118068Y-96502430D01*
X72239129Y-96335803D01*
X72277734Y-96260034D01*
X72326481Y-96208422D01*
X72395396Y-96191356D01*
X72462598Y-96214257D01*
X72502264Y-96260034D01*
X72540871Y-96335803D01*
X72661932Y-96502430D01*
X72661934Y-96502432D01*
X72661936Y-96502435D01*
X72807564Y-96648063D01*
X72807567Y-96648065D01*
X72807570Y-96648068D01*
X72974197Y-96769129D01*
X73157710Y-96862634D01*
X73353592Y-96926280D01*
X73557019Y-96958500D01*
X73557022Y-96958500D01*
X73762978Y-96958500D01*
X73762981Y-96958500D01*
X73966408Y-96926280D01*
X74162290Y-96862634D01*
X74345803Y-96769129D01*
X74512430Y-96648068D01*
X74658068Y-96502430D01*
X74779129Y-96335803D01*
X74817734Y-96260034D01*
X74866481Y-96208422D01*
X74935396Y-96191356D01*
X75002598Y-96214257D01*
X75042264Y-96260034D01*
X75080871Y-96335803D01*
X75201932Y-96502430D01*
X75201934Y-96502432D01*
X75201936Y-96502435D01*
X75347564Y-96648063D01*
X75347567Y-96648065D01*
X75347570Y-96648068D01*
X75514197Y-96769129D01*
X75697710Y-96862634D01*
X75893592Y-96926280D01*
X76097019Y-96958500D01*
X76097022Y-96958500D01*
X76302978Y-96958500D01*
X76302981Y-96958500D01*
X76506408Y-96926280D01*
X76702290Y-96862634D01*
X76885803Y-96769129D01*
X77052430Y-96648068D01*
X77198068Y-96502430D01*
X77319129Y-96335803D01*
X77357734Y-96260034D01*
X77406481Y-96208422D01*
X77475396Y-96191356D01*
X77542598Y-96214257D01*
X77582264Y-96260034D01*
X77620871Y-96335803D01*
X77741932Y-96502430D01*
X77741934Y-96502432D01*
X77741936Y-96502435D01*
X77887564Y-96648063D01*
X77887567Y-96648065D01*
X77887570Y-96648068D01*
X78054197Y-96769129D01*
X78237710Y-96862634D01*
X78433592Y-96926280D01*
X78637019Y-96958500D01*
X78637022Y-96958500D01*
X78842978Y-96958500D01*
X78842981Y-96958500D01*
X79046408Y-96926280D01*
X79242290Y-96862634D01*
X79425803Y-96769129D01*
X79592430Y-96648068D01*
X79738068Y-96502430D01*
X79859129Y-96335803D01*
X79897734Y-96260034D01*
X79946481Y-96208422D01*
X80015396Y-96191356D01*
X80082598Y-96214257D01*
X80122264Y-96260034D01*
X80160871Y-96335803D01*
X80281932Y-96502430D01*
X80281934Y-96502432D01*
X80281936Y-96502435D01*
X80427564Y-96648063D01*
X80427567Y-96648065D01*
X80427570Y-96648068D01*
X80594197Y-96769129D01*
X80777710Y-96862634D01*
X80973592Y-96926280D01*
X81177019Y-96958500D01*
X81177022Y-96958500D01*
X81382978Y-96958500D01*
X81382981Y-96958500D01*
X81586408Y-96926280D01*
X81782290Y-96862634D01*
X81965803Y-96769129D01*
X82132430Y-96648068D01*
X82278068Y-96502430D01*
X82399129Y-96335803D01*
X82438014Y-96259486D01*
X82486759Y-96207874D01*
X82555674Y-96190807D01*
X82622876Y-96213707D01*
X82662545Y-96259487D01*
X82701298Y-96335542D01*
X82822315Y-96502107D01*
X82822317Y-96502110D01*
X82967889Y-96647682D01*
X82967892Y-96647684D01*
X83134454Y-96768699D01*
X83317900Y-96862170D01*
X83317906Y-96862173D01*
X83513705Y-96925791D01*
X83513717Y-96925794D01*
X83565999Y-96934074D01*
X83566000Y-96934074D01*
X83566000Y-95561686D01*
X83574394Y-95570080D01*
X83665606Y-95622741D01*
X83767339Y-95650000D01*
X83872661Y-95650000D01*
X83974394Y-95622741D01*
X84065606Y-95570080D01*
X84074000Y-95561686D01*
X84074000Y-96934074D01*
X84126282Y-96925794D01*
X84126294Y-96925791D01*
X84322093Y-96862173D01*
X84322099Y-96862170D01*
X84505545Y-96768699D01*
X84672107Y-96647684D01*
X84672110Y-96647682D01*
X84817682Y-96502110D01*
X84817684Y-96502107D01*
X84938699Y-96335545D01*
X85032170Y-96152099D01*
X85032173Y-96152093D01*
X85095791Y-95956296D01*
X85128000Y-95752938D01*
X85128000Y-95504000D01*
X84131686Y-95504000D01*
X84140080Y-95495606D01*
X84192741Y-95404394D01*
X84220000Y-95302661D01*
X84220000Y-95197339D01*
X84192741Y-95095606D01*
X84140080Y-95004394D01*
X84131686Y-94996000D01*
X85128000Y-94996000D01*
X85128000Y-94747061D01*
X85095791Y-94543703D01*
X85032173Y-94347906D01*
X85032170Y-94347900D01*
X84938699Y-94164454D01*
X84817684Y-93997892D01*
X84817682Y-93997889D01*
X84672110Y-93852317D01*
X84672107Y-93852315D01*
X84505545Y-93731300D01*
X84322099Y-93637829D01*
X84322093Y-93637826D01*
X84126294Y-93574208D01*
X84126296Y-93574208D01*
X84074000Y-93565925D01*
X84074000Y-94938314D01*
X84065606Y-94929920D01*
X83974394Y-94877259D01*
X83872661Y-94850000D01*
X83767339Y-94850000D01*
X83665606Y-94877259D01*
X83574394Y-94929920D01*
X83566000Y-94938314D01*
X83566000Y-93565925D01*
X83513704Y-93574208D01*
X83317906Y-93637826D01*
X83317900Y-93637829D01*
X83134454Y-93731300D01*
X82967892Y-93852315D01*
X82967889Y-93852317D01*
X82822317Y-93997889D01*
X82822315Y-93997892D01*
X82701299Y-94164455D01*
X82662545Y-94240513D01*
X82613796Y-94292127D01*
X82544881Y-94309192D01*
X82477680Y-94286290D01*
X82438013Y-94240511D01*
X82399129Y-94164197D01*
X82278068Y-93997570D01*
X82278065Y-93997567D01*
X82278063Y-93997564D01*
X82132435Y-93851936D01*
X82132432Y-93851934D01*
X82132430Y-93851932D01*
X81978634Y-93740193D01*
X81965806Y-93730873D01*
X81965805Y-93730872D01*
X81965803Y-93730871D01*
X81782290Y-93637366D01*
X81782287Y-93637365D01*
X81782285Y-93637364D01*
X81586412Y-93573721D01*
X81586410Y-93573720D01*
X81586408Y-93573720D01*
X81382981Y-93541500D01*
X81177019Y-93541500D01*
X80973592Y-93573720D01*
X80973590Y-93573720D01*
X80973587Y-93573721D01*
X80777714Y-93637364D01*
X80777708Y-93637367D01*
X80594193Y-93730873D01*
X80427567Y-93851934D01*
X80427564Y-93851936D01*
X80281936Y-93997564D01*
X80281934Y-93997567D01*
X80160873Y-94164193D01*
X80122267Y-94239962D01*
X80073518Y-94291577D01*
X80004603Y-94308643D01*
X79937402Y-94285742D01*
X79897733Y-94239962D01*
X79859129Y-94164197D01*
X79738068Y-93997570D01*
X79738065Y-93997567D01*
X79738063Y-93997564D01*
X79592435Y-93851936D01*
X79592432Y-93851934D01*
X79592430Y-93851932D01*
X79438634Y-93740193D01*
X79425806Y-93730873D01*
X79425805Y-93730872D01*
X79425803Y-93730871D01*
X79242290Y-93637366D01*
X79242287Y-93637365D01*
X79242285Y-93637364D01*
X79046412Y-93573721D01*
X79046410Y-93573720D01*
X79046408Y-93573720D01*
X78842981Y-93541500D01*
X78637019Y-93541500D01*
X78433592Y-93573720D01*
X78433590Y-93573720D01*
X78433587Y-93573721D01*
X78237714Y-93637364D01*
X78237708Y-93637367D01*
X78054193Y-93730873D01*
X77887567Y-93851934D01*
X77887564Y-93851936D01*
X77741936Y-93997564D01*
X77741934Y-93997567D01*
X77620873Y-94164193D01*
X77582267Y-94239962D01*
X77533518Y-94291577D01*
X77464603Y-94308643D01*
X77397402Y-94285742D01*
X77357733Y-94239962D01*
X77319129Y-94164197D01*
X77198068Y-93997570D01*
X77198065Y-93997567D01*
X77198063Y-93997564D01*
X77052435Y-93851936D01*
X77052432Y-93851934D01*
X77052430Y-93851932D01*
X76898634Y-93740193D01*
X76885806Y-93730873D01*
X76885805Y-93730872D01*
X76885803Y-93730871D01*
X76702290Y-93637366D01*
X76702287Y-93637365D01*
X76702285Y-93637364D01*
X76506412Y-93573721D01*
X76506410Y-93573720D01*
X76506408Y-93573720D01*
X76302981Y-93541500D01*
X76097019Y-93541500D01*
X75893592Y-93573720D01*
X75893590Y-93573720D01*
X75893587Y-93573721D01*
X75697714Y-93637364D01*
X75697708Y-93637367D01*
X75514193Y-93730873D01*
X75347567Y-93851934D01*
X75347564Y-93851936D01*
X75201936Y-93997564D01*
X75201934Y-93997567D01*
X75080873Y-94164193D01*
X75042267Y-94239962D01*
X74993518Y-94291577D01*
X74924603Y-94308643D01*
X74857402Y-94285742D01*
X74817733Y-94239962D01*
X74779129Y-94164197D01*
X74658068Y-93997570D01*
X74658065Y-93997567D01*
X74658063Y-93997564D01*
X74512435Y-93851936D01*
X74512432Y-93851934D01*
X74512430Y-93851932D01*
X74358634Y-93740193D01*
X74345806Y-93730873D01*
X74345805Y-93730872D01*
X74345803Y-93730871D01*
X74162290Y-93637366D01*
X74162287Y-93637365D01*
X74162285Y-93637364D01*
X73966412Y-93573721D01*
X73966410Y-93573720D01*
X73966408Y-93573720D01*
X73762981Y-93541500D01*
X73557019Y-93541500D01*
X73353592Y-93573720D01*
X73353590Y-93573720D01*
X73353587Y-93573721D01*
X73157714Y-93637364D01*
X73157708Y-93637367D01*
X72974193Y-93730873D01*
X72807567Y-93851934D01*
X72807564Y-93851936D01*
X72661936Y-93997564D01*
X72661934Y-93997567D01*
X72540873Y-94164193D01*
X72502267Y-94239962D01*
X72453518Y-94291577D01*
X72384603Y-94308643D01*
X72317402Y-94285742D01*
X72277733Y-94239962D01*
X72239129Y-94164197D01*
X72118068Y-93997570D01*
X72118065Y-93997567D01*
X72118063Y-93997564D01*
X71972435Y-93851936D01*
X71972432Y-93851934D01*
X71972430Y-93851932D01*
X71818634Y-93740193D01*
X71805806Y-93730873D01*
X71805805Y-93730872D01*
X71805803Y-93730871D01*
X71622290Y-93637366D01*
X71622287Y-93637365D01*
X71622285Y-93637364D01*
X71426412Y-93573721D01*
X71426410Y-93573720D01*
X71426408Y-93573720D01*
X71222981Y-93541500D01*
X71017019Y-93541500D01*
X70813592Y-93573720D01*
X70813590Y-93573720D01*
X70813587Y-93573721D01*
X70617714Y-93637364D01*
X70617708Y-93637367D01*
X70434193Y-93730873D01*
X70267567Y-93851934D01*
X70267564Y-93851936D01*
X70121936Y-93997564D01*
X70121934Y-93997567D01*
X70000873Y-94164193D01*
X69962267Y-94239962D01*
X69913518Y-94291577D01*
X69844603Y-94308643D01*
X69777402Y-94285742D01*
X69737733Y-94239962D01*
X69699129Y-94164197D01*
X69578068Y-93997570D01*
X69578065Y-93997567D01*
X69578063Y-93997564D01*
X69432435Y-93851936D01*
X69432432Y-93851934D01*
X69432430Y-93851932D01*
X69278634Y-93740193D01*
X69265806Y-93730873D01*
X69265805Y-93730872D01*
X69265803Y-93730871D01*
X69082290Y-93637366D01*
X69082287Y-93637365D01*
X69082285Y-93637364D01*
X68886409Y-93573720D01*
X68884043Y-93573152D01*
X68883237Y-93572689D01*
X68881700Y-93572190D01*
X68881804Y-93571866D01*
X68822474Y-93537798D01*
X68789793Y-93474771D01*
X68796376Y-93404080D01*
X68824361Y-93361543D01*
X69072072Y-93113833D01*
X69141401Y-93010075D01*
X69189155Y-92894784D01*
X69213500Y-92772393D01*
X69213500Y-92647606D01*
X69213500Y-89251328D01*
X69233502Y-89183207D01*
X69265440Y-89149391D01*
X69265795Y-89149133D01*
X69265803Y-89149129D01*
X69432430Y-89028068D01*
X69578068Y-88882430D01*
X69699129Y-88715803D01*
X69737734Y-88640034D01*
X69786481Y-88588422D01*
X69855396Y-88571356D01*
X69922598Y-88594257D01*
X69962264Y-88640034D01*
X70000871Y-88715803D01*
X70121932Y-88882430D01*
X70121934Y-88882432D01*
X70121936Y-88882435D01*
X70267564Y-89028063D01*
X70267567Y-89028065D01*
X70267570Y-89028068D01*
X70434197Y-89149129D01*
X70434204Y-89149133D01*
X70434560Y-89149391D01*
X70477915Y-89205613D01*
X70486500Y-89251328D01*
X70486500Y-89597396D01*
X70496185Y-89646086D01*
X70510845Y-89719785D01*
X70558600Y-89835075D01*
X70627929Y-89938833D01*
X71986167Y-91297071D01*
X72089925Y-91366400D01*
X72205215Y-91414155D01*
X72327606Y-91438500D01*
X72452394Y-91438500D01*
X73591497Y-91438500D01*
X73659618Y-91458502D01*
X73680592Y-91475405D01*
X73715865Y-91510678D01*
X73864664Y-91610102D01*
X74030000Y-91678587D01*
X74205521Y-91713500D01*
X74205522Y-91713500D01*
X74384478Y-91713500D01*
X74384479Y-91713500D01*
X74560000Y-91678587D01*
X74725336Y-91610102D01*
X74874135Y-91510678D01*
X75000678Y-91384135D01*
X75100102Y-91235336D01*
X75168587Y-91070000D01*
X75203500Y-90894479D01*
X75203500Y-90715521D01*
X75168587Y-90540000D01*
X75100102Y-90374664D01*
X75015195Y-90247591D01*
X75000684Y-90225873D01*
X75000680Y-90225868D01*
X75000678Y-90225865D01*
X74976091Y-90201278D01*
X86756500Y-90201278D01*
X86756500Y-90438722D01*
X86772541Y-90540000D01*
X86793645Y-90673246D01*
X86865529Y-90894481D01*
X86867018Y-90899063D01*
X86974815Y-91110627D01*
X87114380Y-91302722D01*
X87114382Y-91302724D01*
X87114384Y-91302727D01*
X87282272Y-91470615D01*
X87282275Y-91470617D01*
X87282278Y-91470620D01*
X87474373Y-91610185D01*
X87685937Y-91717982D01*
X87911759Y-91791356D01*
X88025044Y-91809298D01*
X88089194Y-91839709D01*
X88126722Y-91899977D01*
X88125708Y-91970966D01*
X88086476Y-92030139D01*
X88025043Y-92058195D01*
X87958586Y-92068721D01*
X87762714Y-92132364D01*
X87762708Y-92132367D01*
X87579193Y-92225873D01*
X87412567Y-92346934D01*
X87412564Y-92346936D01*
X87266936Y-92492564D01*
X87266934Y-92492567D01*
X87145873Y-92659193D01*
X87052367Y-92842708D01*
X87052364Y-92842714D01*
X86988721Y-93038587D01*
X86988720Y-93038590D01*
X86988720Y-93038592D01*
X86956500Y-93242019D01*
X86956500Y-93447981D01*
X86988720Y-93651408D01*
X86988721Y-93651412D01*
X87029985Y-93778410D01*
X87052366Y-93847290D01*
X87129102Y-93997892D01*
X87145873Y-94030806D01*
X87157615Y-94046967D01*
X87266932Y-94197430D01*
X87266934Y-94197432D01*
X87266936Y-94197435D01*
X87412564Y-94343063D01*
X87412567Y-94343065D01*
X87412570Y-94343068D01*
X87579197Y-94464129D01*
X87762710Y-94557634D01*
X87958592Y-94621280D01*
X88162019Y-94653500D01*
X88162022Y-94653500D01*
X88367978Y-94653500D01*
X88367981Y-94653500D01*
X88571408Y-94621280D01*
X88767290Y-94557634D01*
X88950803Y-94464129D01*
X89117430Y-94343068D01*
X89263068Y-94197430D01*
X89384129Y-94030803D01*
X89477634Y-93847290D01*
X89541280Y-93651408D01*
X89573500Y-93447981D01*
X89573500Y-93242019D01*
X89541280Y-93038592D01*
X89477634Y-92842710D01*
X89384129Y-92659197D01*
X89263068Y-92492570D01*
X89263065Y-92492567D01*
X89263063Y-92492564D01*
X89117435Y-92346936D01*
X89117432Y-92346934D01*
X89117430Y-92346932D01*
X88950803Y-92225871D01*
X88767290Y-92132366D01*
X88767287Y-92132365D01*
X88767285Y-92132364D01*
X88571413Y-92068721D01*
X88571409Y-92068720D01*
X88571408Y-92068720D01*
X88504955Y-92058194D01*
X88440803Y-92027782D01*
X88403277Y-91967513D01*
X88404291Y-91896524D01*
X88443525Y-91837352D01*
X88504954Y-91809298D01*
X88618241Y-91791356D01*
X88844063Y-91717982D01*
X89055627Y-91610185D01*
X89247722Y-91470620D01*
X89265853Y-91452489D01*
X89304693Y-91413650D01*
X89415615Y-91302727D01*
X89415620Y-91302722D01*
X89555185Y-91110627D01*
X89662982Y-90899063D01*
X89736356Y-90673241D01*
X89773500Y-90438722D01*
X89773500Y-90201321D01*
X91257000Y-90201321D01*
X91257000Y-90438678D01*
X91294133Y-90673129D01*
X91367480Y-90898867D01*
X91475246Y-91110368D01*
X91534230Y-91191556D01*
X91534232Y-91191556D01*
X92240016Y-90485771D01*
X92252482Y-90532292D01*
X92324890Y-90657708D01*
X92427292Y-90760110D01*
X92552708Y-90832518D01*
X92599226Y-90844982D01*
X91893442Y-91550766D01*
X91974636Y-91609756D01*
X91974637Y-91609757D01*
X92186132Y-91717519D01*
X92411870Y-91790866D01*
X92646321Y-91828000D01*
X92883679Y-91828000D01*
X93118129Y-91790866D01*
X93343867Y-91717519D01*
X93555367Y-91609754D01*
X93636556Y-91550767D01*
X93636556Y-91550765D01*
X92930773Y-90844982D01*
X92977292Y-90832518D01*
X93102708Y-90760110D01*
X93205110Y-90657708D01*
X93277518Y-90532292D01*
X93289982Y-90485773D01*
X93995765Y-91191556D01*
X93995767Y-91191556D01*
X94054754Y-91110367D01*
X94162519Y-90898867D01*
X94235866Y-90673129D01*
X94273000Y-90438678D01*
X94273000Y-90201321D01*
X94235866Y-89966870D01*
X94162519Y-89741132D01*
X94054757Y-89529637D01*
X94054756Y-89529636D01*
X93995766Y-89448442D01*
X93289982Y-90154226D01*
X93277518Y-90107708D01*
X93205110Y-89982292D01*
X93102708Y-89879890D01*
X92977292Y-89807482D01*
X92930771Y-89795016D01*
X93636556Y-89089232D01*
X93636556Y-89089230D01*
X93555368Y-89030246D01*
X93343867Y-88922480D01*
X93118129Y-88849133D01*
X92883679Y-88812000D01*
X92646321Y-88812000D01*
X92411870Y-88849133D01*
X92186132Y-88922480D01*
X91974634Y-89030243D01*
X91893442Y-89089231D01*
X92599227Y-89795017D01*
X92552708Y-89807482D01*
X92427292Y-89879890D01*
X92324890Y-89982292D01*
X92252482Y-90107708D01*
X92240017Y-90154227D01*
X91534231Y-89448442D01*
X91475243Y-89529634D01*
X91367480Y-89741132D01*
X91294133Y-89966870D01*
X91257000Y-90201321D01*
X89773500Y-90201321D01*
X89773500Y-90201278D01*
X89736356Y-89966759D01*
X89662982Y-89740937D01*
X89555185Y-89529373D01*
X89415620Y-89337278D01*
X89415617Y-89337275D01*
X89415615Y-89337272D01*
X89247727Y-89169384D01*
X89247724Y-89169382D01*
X89247722Y-89169380D01*
X89055627Y-89029815D01*
X88844063Y-88922018D01*
X88844060Y-88922017D01*
X88844058Y-88922016D01*
X88618246Y-88848645D01*
X88618242Y-88848644D01*
X88618241Y-88848644D01*
X88383722Y-88811500D01*
X88146278Y-88811500D01*
X87911759Y-88848644D01*
X87911753Y-88848645D01*
X87685941Y-88922016D01*
X87685935Y-88922019D01*
X87474369Y-89029817D01*
X87282275Y-89169382D01*
X87282272Y-89169384D01*
X87114384Y-89337272D01*
X87114382Y-89337275D01*
X86974817Y-89529369D01*
X86867019Y-89740935D01*
X86867016Y-89740941D01*
X86793645Y-89966753D01*
X86793644Y-89966758D01*
X86793644Y-89966759D01*
X86756500Y-90201278D01*
X74976091Y-90201278D01*
X74874135Y-90099322D01*
X74725336Y-89999898D01*
X74608429Y-89951473D01*
X74560003Y-89931414D01*
X74560001Y-89931413D01*
X74560000Y-89931413D01*
X74471645Y-89913838D01*
X74384481Y-89896500D01*
X74384479Y-89896500D01*
X74205521Y-89896500D01*
X74205518Y-89896500D01*
X74074771Y-89922507D01*
X74030000Y-89931413D01*
X74029999Y-89931413D01*
X74029996Y-89931414D01*
X73864662Y-89999899D01*
X73715869Y-90099319D01*
X73715862Y-90099324D01*
X73680592Y-90134595D01*
X73618280Y-90168621D01*
X73591497Y-90171500D01*
X72704594Y-90171500D01*
X72636473Y-90151498D01*
X72615499Y-90134595D01*
X71808315Y-89327411D01*
X71774289Y-89265099D01*
X71779354Y-89194284D01*
X71821901Y-89137448D01*
X71823223Y-89136472D01*
X71972430Y-89028068D01*
X72118068Y-88882430D01*
X72239129Y-88715803D01*
X72277734Y-88640034D01*
X72326481Y-88588422D01*
X72395396Y-88571356D01*
X72462598Y-88594257D01*
X72502264Y-88640034D01*
X72540871Y-88715803D01*
X72661932Y-88882430D01*
X72661934Y-88882432D01*
X72661936Y-88882435D01*
X72807564Y-89028063D01*
X72807567Y-89028065D01*
X72807570Y-89028068D01*
X72974197Y-89149129D01*
X73157710Y-89242634D01*
X73353592Y-89306280D01*
X73557019Y-89338500D01*
X73557022Y-89338500D01*
X73762978Y-89338500D01*
X73762981Y-89338500D01*
X73966408Y-89306280D01*
X74162290Y-89242634D01*
X74345803Y-89149129D01*
X74512430Y-89028068D01*
X74658068Y-88882430D01*
X74779129Y-88715803D01*
X74817734Y-88640034D01*
X74866481Y-88588422D01*
X74935396Y-88571356D01*
X75002598Y-88594257D01*
X75042264Y-88640034D01*
X75080871Y-88715803D01*
X75201932Y-88882430D01*
X75201934Y-88882432D01*
X75201936Y-88882435D01*
X75347564Y-89028063D01*
X75347567Y-89028065D01*
X75347570Y-89028068D01*
X75514197Y-89149129D01*
X75697710Y-89242634D01*
X75893592Y-89306280D01*
X76097019Y-89338500D01*
X76097022Y-89338500D01*
X76302978Y-89338500D01*
X76302981Y-89338500D01*
X76506408Y-89306280D01*
X76702290Y-89242634D01*
X76885803Y-89149129D01*
X77052430Y-89028068D01*
X77198068Y-88882430D01*
X77319129Y-88715803D01*
X77357734Y-88640034D01*
X77406481Y-88588422D01*
X77475396Y-88571356D01*
X77542598Y-88594257D01*
X77582264Y-88640034D01*
X77620871Y-88715803D01*
X77741932Y-88882430D01*
X77741934Y-88882432D01*
X77741936Y-88882435D01*
X77887564Y-89028063D01*
X77887567Y-89028065D01*
X77887570Y-89028068D01*
X78054197Y-89149129D01*
X78237710Y-89242634D01*
X78433592Y-89306280D01*
X78637019Y-89338500D01*
X78637022Y-89338500D01*
X78842978Y-89338500D01*
X78842981Y-89338500D01*
X79046408Y-89306280D01*
X79242290Y-89242634D01*
X79425803Y-89149129D01*
X79592430Y-89028068D01*
X79738068Y-88882430D01*
X79859129Y-88715803D01*
X79897734Y-88640034D01*
X79946481Y-88588422D01*
X80015396Y-88571356D01*
X80082598Y-88594257D01*
X80122264Y-88640034D01*
X80160871Y-88715803D01*
X80281932Y-88882430D01*
X80281934Y-88882432D01*
X80281936Y-88882435D01*
X80427564Y-89028063D01*
X80427567Y-89028065D01*
X80427570Y-89028068D01*
X80594197Y-89149129D01*
X80777710Y-89242634D01*
X80973592Y-89306280D01*
X81177019Y-89338500D01*
X81177022Y-89338500D01*
X81382978Y-89338500D01*
X81382981Y-89338500D01*
X81586408Y-89306280D01*
X81782290Y-89242634D01*
X81965803Y-89149129D01*
X82132430Y-89028068D01*
X82278068Y-88882430D01*
X82289512Y-88866677D01*
X82345732Y-88823323D01*
X82416468Y-88817246D01*
X82479261Y-88850376D01*
X82514174Y-88912195D01*
X82516727Y-88927265D01*
X82518010Y-88939197D01*
X82518011Y-88939204D01*
X82569110Y-89076202D01*
X82569112Y-89076207D01*
X82656738Y-89193261D01*
X82773792Y-89280887D01*
X82773794Y-89280888D01*
X82773796Y-89280889D01*
X82832875Y-89302924D01*
X82910795Y-89331988D01*
X82910803Y-89331990D01*
X82971350Y-89338499D01*
X82971355Y-89338499D01*
X82971362Y-89338500D01*
X82971368Y-89338500D01*
X84668632Y-89338500D01*
X84668638Y-89338500D01*
X84668645Y-89338499D01*
X84668649Y-89338499D01*
X84729196Y-89331990D01*
X84729199Y-89331989D01*
X84729201Y-89331989D01*
X84729778Y-89331774D01*
X84748045Y-89324960D01*
X84866204Y-89280889D01*
X84936077Y-89228583D01*
X84983261Y-89193261D01*
X85070887Y-89076207D01*
X85070887Y-89076206D01*
X85070889Y-89076204D01*
X85121989Y-88939201D01*
X85121989Y-88939199D01*
X85121990Y-88939196D01*
X85128499Y-88878649D01*
X85128500Y-88878632D01*
X85128500Y-87493250D01*
X100467618Y-87493250D01*
X100503780Y-87634930D01*
X100578393Y-87760683D01*
X100685412Y-87860322D01*
X100685416Y-87860324D01*
X100738864Y-87889510D01*
X100738870Y-87889512D01*
X100738873Y-87889514D01*
X102491728Y-88615570D01*
X102550172Y-88632731D01*
X102696302Y-88637950D01*
X102837982Y-88601788D01*
X102963735Y-88527175D01*
X103011724Y-88475631D01*
X103072781Y-88439404D01*
X103143732Y-88441938D01*
X103202051Y-88482429D01*
X103216207Y-88504284D01*
X103292474Y-88653967D01*
X103296309Y-88661492D01*
X103426622Y-88840852D01*
X103583385Y-88997615D01*
X103628298Y-89030246D01*
X103762749Y-89127931D01*
X103960288Y-89228582D01*
X104171140Y-89297092D01*
X104390113Y-89331774D01*
X104390116Y-89331774D01*
X104611812Y-89331774D01*
X104611815Y-89331774D01*
X104830788Y-89297092D01*
X105041640Y-89228582D01*
X105239179Y-89127931D01*
X105418540Y-88997617D01*
X105575307Y-88840850D01*
X105705621Y-88661489D01*
X105806272Y-88463950D01*
X105874782Y-88253098D01*
X105909464Y-88034125D01*
X105909464Y-87812423D01*
X105874782Y-87593450D01*
X105806272Y-87382598D01*
X105705621Y-87185059D01*
X105575307Y-87005698D01*
X105575305Y-87005695D01*
X105418542Y-86848932D01*
X105239182Y-86718619D01*
X105239181Y-86718618D01*
X105239179Y-86718617D01*
X105041640Y-86617966D01*
X105041637Y-86617965D01*
X105041635Y-86617964D01*
X104830793Y-86549457D01*
X104830789Y-86549456D01*
X104830788Y-86549456D01*
X104611815Y-86514774D01*
X104390113Y-86514774D01*
X104171140Y-86549456D01*
X104171134Y-86549457D01*
X104003343Y-86603976D01*
X103932375Y-86606003D01*
X103871577Y-86569341D01*
X103840252Y-86505629D01*
X103838487Y-86479658D01*
X103841002Y-86409266D01*
X103804840Y-86267586D01*
X103730227Y-86141833D01*
X103623208Y-86042194D01*
X103623203Y-86042191D01*
X103569755Y-86013005D01*
X101816897Y-85286948D01*
X101816896Y-85286947D01*
X101816892Y-85286946D01*
X101758450Y-85269785D01*
X101758449Y-85269785D01*
X101685383Y-85267175D01*
X101612318Y-85264566D01*
X101612317Y-85264566D01*
X101612312Y-85264567D01*
X101500120Y-85293203D01*
X101470638Y-85300728D01*
X101344885Y-85375341D01*
X101245246Y-85482360D01*
X101245244Y-85482361D01*
X101245243Y-85482364D01*
X101216057Y-85535812D01*
X100490000Y-87288670D01*
X100472838Y-87347116D01*
X100472837Y-87347118D01*
X100471570Y-87382596D01*
X100467618Y-87493250D01*
X85128500Y-87493250D01*
X85128500Y-86381367D01*
X85128499Y-86381350D01*
X85121990Y-86320803D01*
X85121988Y-86320795D01*
X85070889Y-86183797D01*
X85070887Y-86183792D01*
X84983261Y-86066738D01*
X84866207Y-85979112D01*
X84866202Y-85979110D01*
X84729204Y-85928011D01*
X84729196Y-85928009D01*
X84668649Y-85921500D01*
X84668638Y-85921500D01*
X82971362Y-85921500D01*
X82971350Y-85921500D01*
X82910803Y-85928009D01*
X82910795Y-85928011D01*
X82773797Y-85979110D01*
X82773792Y-85979112D01*
X82656738Y-86066738D01*
X82569112Y-86183792D01*
X82569110Y-86183797D01*
X82518011Y-86320795D01*
X82518010Y-86320801D01*
X82516727Y-86332735D01*
X82489555Y-86398326D01*
X82431236Y-86438815D01*
X82360285Y-86441347D01*
X82299228Y-86405118D01*
X82289513Y-86393323D01*
X82278068Y-86377570D01*
X82278065Y-86377567D01*
X82278063Y-86377564D01*
X82132435Y-86231936D01*
X82132432Y-86231934D01*
X82132430Y-86231932D01*
X81965803Y-86110871D01*
X81782290Y-86017366D01*
X81782287Y-86017365D01*
X81782285Y-86017364D01*
X81586412Y-85953721D01*
X81586410Y-85953720D01*
X81586408Y-85953720D01*
X81382981Y-85921500D01*
X81177019Y-85921500D01*
X80973592Y-85953720D01*
X80973590Y-85953720D01*
X80973587Y-85953721D01*
X80777714Y-86017364D01*
X80777708Y-86017367D01*
X80594193Y-86110873D01*
X80427567Y-86231934D01*
X80427564Y-86231936D01*
X80281936Y-86377564D01*
X80281934Y-86377567D01*
X80160873Y-86544193D01*
X80160871Y-86544197D01*
X80127118Y-86610442D01*
X80122267Y-86619962D01*
X80073518Y-86671577D01*
X80004603Y-86688643D01*
X79937402Y-86665742D01*
X79897733Y-86619962D01*
X79859129Y-86544197D01*
X79738068Y-86377570D01*
X79738065Y-86377567D01*
X79738063Y-86377564D01*
X79592435Y-86231936D01*
X79592432Y-86231934D01*
X79592430Y-86231932D01*
X79425803Y-86110871D01*
X79242290Y-86017366D01*
X79242287Y-86017365D01*
X79242285Y-86017364D01*
X79046412Y-85953721D01*
X79046410Y-85953720D01*
X79046408Y-85953720D01*
X78842981Y-85921500D01*
X78637019Y-85921500D01*
X78433592Y-85953720D01*
X78433590Y-85953720D01*
X78433587Y-85953721D01*
X78237714Y-86017364D01*
X78237708Y-86017367D01*
X78054193Y-86110873D01*
X77887567Y-86231934D01*
X77887564Y-86231936D01*
X77741936Y-86377564D01*
X77741934Y-86377567D01*
X77620873Y-86544193D01*
X77620871Y-86544197D01*
X77587118Y-86610442D01*
X77582267Y-86619962D01*
X77533518Y-86671577D01*
X77464603Y-86688643D01*
X77397402Y-86665742D01*
X77357733Y-86619962D01*
X77319129Y-86544197D01*
X77198068Y-86377570D01*
X77198065Y-86377567D01*
X77198063Y-86377564D01*
X77052435Y-86231936D01*
X77052432Y-86231934D01*
X77052430Y-86231932D01*
X76885803Y-86110871D01*
X76702290Y-86017366D01*
X76702287Y-86017365D01*
X76702285Y-86017364D01*
X76506412Y-85953721D01*
X76506410Y-85953720D01*
X76506408Y-85953720D01*
X76302981Y-85921500D01*
X76097019Y-85921500D01*
X75893592Y-85953720D01*
X75893590Y-85953720D01*
X75893587Y-85953721D01*
X75697714Y-86017364D01*
X75697708Y-86017367D01*
X75514193Y-86110873D01*
X75347567Y-86231934D01*
X75347564Y-86231936D01*
X75201936Y-86377564D01*
X75201934Y-86377567D01*
X75080873Y-86544193D01*
X75080871Y-86544197D01*
X75047118Y-86610442D01*
X75042267Y-86619962D01*
X74993518Y-86671577D01*
X74924603Y-86688643D01*
X74857402Y-86665742D01*
X74817733Y-86619962D01*
X74779129Y-86544197D01*
X74658068Y-86377570D01*
X74658065Y-86377567D01*
X74658063Y-86377564D01*
X74512435Y-86231936D01*
X74512432Y-86231934D01*
X74512430Y-86231932D01*
X74345803Y-86110871D01*
X74162290Y-86017366D01*
X74162287Y-86017365D01*
X74162285Y-86017364D01*
X73966409Y-85953720D01*
X73964043Y-85953152D01*
X73963237Y-85952689D01*
X73961700Y-85952190D01*
X73961804Y-85951866D01*
X73902474Y-85917798D01*
X73869793Y-85854771D01*
X73876376Y-85784080D01*
X73904365Y-85741539D01*
X74514341Y-85131563D01*
X74576653Y-85097537D01*
X74623147Y-85096209D01*
X74623588Y-85096278D01*
X74623592Y-85096280D01*
X74827019Y-85128500D01*
X74827022Y-85128500D01*
X75032978Y-85128500D01*
X75032981Y-85128500D01*
X75236408Y-85096280D01*
X75432290Y-85032634D01*
X75615803Y-84939129D01*
X75782430Y-84818068D01*
X75928068Y-84672430D01*
X76049129Y-84505803D01*
X76087734Y-84430034D01*
X76136481Y-84378422D01*
X76205396Y-84361356D01*
X76272598Y-84384257D01*
X76312264Y-84430034D01*
X76350871Y-84505803D01*
X76471932Y-84672430D01*
X76471934Y-84672432D01*
X76471936Y-84672435D01*
X76617564Y-84818063D01*
X76617567Y-84818065D01*
X76617570Y-84818068D01*
X76784197Y-84939129D01*
X76967710Y-85032634D01*
X77163592Y-85096280D01*
X77367019Y-85128500D01*
X77367022Y-85128500D01*
X77572978Y-85128500D01*
X77572981Y-85128500D01*
X77776408Y-85096280D01*
X77972290Y-85032634D01*
X78155803Y-84939129D01*
X78322430Y-84818068D01*
X78468068Y-84672430D01*
X78589129Y-84505803D01*
X78682634Y-84322290D01*
X78746280Y-84126408D01*
X78778500Y-83922981D01*
X78778500Y-83717019D01*
X83781500Y-83717019D01*
X83781500Y-83922981D01*
X83804947Y-84071015D01*
X83813721Y-84126412D01*
X83844069Y-84219815D01*
X83877366Y-84322290D01*
X83970871Y-84505803D01*
X84091932Y-84672430D01*
X84091934Y-84672432D01*
X84091936Y-84672435D01*
X84237564Y-84818063D01*
X84237567Y-84818065D01*
X84237570Y-84818068D01*
X84404197Y-84939129D01*
X84587710Y-85032634D01*
X84783592Y-85096280D01*
X84987019Y-85128500D01*
X84987022Y-85128500D01*
X85192978Y-85128500D01*
X85192981Y-85128500D01*
X85396408Y-85096280D01*
X85592290Y-85032634D01*
X85775803Y-84939129D01*
X85942430Y-84818068D01*
X86088068Y-84672430D01*
X86209129Y-84505803D01*
X86302634Y-84322290D01*
X86366280Y-84126408D01*
X86398500Y-83922981D01*
X86398500Y-83717019D01*
X86396007Y-83701278D01*
X86756500Y-83701278D01*
X86756500Y-83938722D01*
X86791184Y-84157708D01*
X86793645Y-84173246D01*
X86860311Y-84378422D01*
X86867018Y-84399063D01*
X86974815Y-84610627D01*
X86974817Y-84610630D01*
X86994381Y-84637557D01*
X87114380Y-84802722D01*
X87114382Y-84802724D01*
X87114384Y-84802727D01*
X87282272Y-84970615D01*
X87282275Y-84970617D01*
X87282278Y-84970620D01*
X87474373Y-85110185D01*
X87685937Y-85217982D01*
X87911759Y-85291356D01*
X88146278Y-85328500D01*
X88146281Y-85328500D01*
X88383719Y-85328500D01*
X88383722Y-85328500D01*
X88618241Y-85291356D01*
X88844063Y-85217982D01*
X89055627Y-85110185D01*
X89247722Y-84970620D01*
X89268321Y-84950021D01*
X89304693Y-84913650D01*
X89415615Y-84802727D01*
X89415620Y-84802722D01*
X89555185Y-84610627D01*
X89662982Y-84399063D01*
X89736356Y-84173241D01*
X89773500Y-83938722D01*
X89773500Y-83701321D01*
X91257000Y-83701321D01*
X91257000Y-83938678D01*
X91294133Y-84173129D01*
X91367480Y-84398867D01*
X91475246Y-84610368D01*
X91534230Y-84691556D01*
X91534232Y-84691556D01*
X92240016Y-83985771D01*
X92252482Y-84032292D01*
X92324890Y-84157708D01*
X92427292Y-84260110D01*
X92552708Y-84332518D01*
X92599226Y-84344982D01*
X91893442Y-85050766D01*
X91974636Y-85109756D01*
X91974637Y-85109757D01*
X92186132Y-85217519D01*
X92411870Y-85290866D01*
X92646321Y-85328000D01*
X92883679Y-85328000D01*
X93118129Y-85290866D01*
X93343867Y-85217519D01*
X93555367Y-85109754D01*
X93636556Y-85050767D01*
X93636556Y-85050765D01*
X92930773Y-84344982D01*
X92977292Y-84332518D01*
X93102708Y-84260110D01*
X93205110Y-84157708D01*
X93277518Y-84032292D01*
X93289982Y-83985773D01*
X93995765Y-84691556D01*
X93995767Y-84691556D01*
X94054754Y-84610367D01*
X94162519Y-84398867D01*
X94235866Y-84173129D01*
X94273000Y-83938678D01*
X94273000Y-83701321D01*
X94235866Y-83466870D01*
X94162519Y-83241132D01*
X94054757Y-83029637D01*
X94054756Y-83029636D01*
X93995766Y-82948442D01*
X93289982Y-83654226D01*
X93277518Y-83607708D01*
X93205110Y-83482292D01*
X93102708Y-83379890D01*
X92977292Y-83307482D01*
X92930771Y-83295016D01*
X93636556Y-82589232D01*
X93636556Y-82589230D01*
X93555368Y-82530246D01*
X93343867Y-82422480D01*
X93118129Y-82349133D01*
X92883679Y-82312000D01*
X92646321Y-82312000D01*
X92411870Y-82349133D01*
X92186132Y-82422480D01*
X91974634Y-82530243D01*
X91893442Y-82589231D01*
X92599227Y-83295017D01*
X92552708Y-83307482D01*
X92427292Y-83379890D01*
X92324890Y-83482292D01*
X92252482Y-83607708D01*
X92240017Y-83654227D01*
X91534231Y-82948442D01*
X91475243Y-83029634D01*
X91367480Y-83241132D01*
X91294133Y-83466870D01*
X91257000Y-83701321D01*
X89773500Y-83701321D01*
X89773500Y-83701278D01*
X89736356Y-83466759D01*
X89662982Y-83240937D01*
X89555185Y-83029373D01*
X89415620Y-82837278D01*
X89415617Y-82837275D01*
X89415615Y-82837272D01*
X89247727Y-82669384D01*
X89247724Y-82669382D01*
X89247722Y-82669380D01*
X89055627Y-82529815D01*
X88844063Y-82422018D01*
X88844060Y-82422017D01*
X88844058Y-82422016D01*
X88618246Y-82348645D01*
X88618242Y-82348644D01*
X88618241Y-82348644D01*
X88383722Y-82311500D01*
X88146278Y-82311500D01*
X87932639Y-82345337D01*
X87911753Y-82348645D01*
X87685941Y-82422016D01*
X87685935Y-82422019D01*
X87474369Y-82529817D01*
X87282275Y-82669382D01*
X87282272Y-82669384D01*
X87114384Y-82837272D01*
X87114382Y-82837275D01*
X86974817Y-83029369D01*
X86867019Y-83240935D01*
X86867016Y-83240941D01*
X86793645Y-83466753D01*
X86793644Y-83466758D01*
X86793644Y-83466759D01*
X86756500Y-83701278D01*
X86396007Y-83701278D01*
X86366280Y-83513592D01*
X86302634Y-83317710D01*
X86209129Y-83134197D01*
X86088068Y-82967570D01*
X86088065Y-82967567D01*
X86088063Y-82967564D01*
X85942435Y-82821936D01*
X85942432Y-82821934D01*
X85942430Y-82821932D01*
X85775803Y-82700871D01*
X85592290Y-82607366D01*
X85592287Y-82607365D01*
X85592285Y-82607364D01*
X85396412Y-82543721D01*
X85396410Y-82543720D01*
X85396408Y-82543720D01*
X85192981Y-82511500D01*
X84987019Y-82511500D01*
X84783592Y-82543720D01*
X84783590Y-82543720D01*
X84783587Y-82543721D01*
X84587714Y-82607364D01*
X84587708Y-82607367D01*
X84404193Y-82700873D01*
X84237567Y-82821934D01*
X84237564Y-82821936D01*
X84091936Y-82967564D01*
X84091934Y-82967567D01*
X83970873Y-83134193D01*
X83877367Y-83317708D01*
X83877364Y-83317714D01*
X83813721Y-83513587D01*
X83813720Y-83513590D01*
X83813720Y-83513592D01*
X83781500Y-83717019D01*
X78778500Y-83717019D01*
X78746280Y-83513592D01*
X78682634Y-83317710D01*
X78589129Y-83134197D01*
X78504113Y-83017182D01*
X78480256Y-82950316D01*
X78496336Y-82881165D01*
X78547250Y-82831685D01*
X78616832Y-82817585D01*
X78630632Y-82819544D01*
X78638519Y-82821112D01*
X78650521Y-82823500D01*
X78650522Y-82823500D01*
X78829478Y-82823500D01*
X78829479Y-82823500D01*
X79005000Y-82788587D01*
X79170336Y-82720102D01*
X79319135Y-82620678D01*
X79445678Y-82494135D01*
X79545102Y-82345336D01*
X79613587Y-82180000D01*
X79648500Y-82004479D01*
X79648500Y-81825521D01*
X79613587Y-81650000D01*
X79545102Y-81484664D01*
X79445678Y-81335865D01*
X79319135Y-81209322D01*
X79170336Y-81109898D01*
X79053429Y-81061473D01*
X79005003Y-81041414D01*
X79005001Y-81041413D01*
X79005000Y-81041413D01*
X78916645Y-81023838D01*
X78829481Y-81006500D01*
X78829479Y-81006500D01*
X78650521Y-81006500D01*
X78650518Y-81006500D01*
X78519771Y-81032507D01*
X78475000Y-81041413D01*
X78474999Y-81041413D01*
X78474996Y-81041414D01*
X78309662Y-81109899D01*
X78160869Y-81209319D01*
X78160862Y-81209324D01*
X78125592Y-81244595D01*
X78063280Y-81278621D01*
X78036497Y-81281500D01*
X76903503Y-81281500D01*
X76835382Y-81261498D01*
X76814408Y-81244595D01*
X76779137Y-81209324D01*
X76779135Y-81209322D01*
X76630336Y-81109898D01*
X76513429Y-81061473D01*
X76465003Y-81041414D01*
X76465001Y-81041413D01*
X76465000Y-81041413D01*
X76376645Y-81023838D01*
X76289481Y-81006500D01*
X76289479Y-81006500D01*
X76110521Y-81006500D01*
X76110518Y-81006500D01*
X75979771Y-81032507D01*
X75935000Y-81041413D01*
X75934999Y-81041413D01*
X75934996Y-81041414D01*
X75769662Y-81109899D01*
X75620869Y-81209319D01*
X75620862Y-81209324D01*
X75585592Y-81244595D01*
X75523280Y-81278621D01*
X75496497Y-81281500D01*
X74232603Y-81281500D01*
X74159568Y-81296028D01*
X74110215Y-81305845D01*
X74110213Y-81305845D01*
X74110212Y-81305846D01*
X73994923Y-81353601D01*
X73891171Y-81422926D01*
X73891164Y-81422931D01*
X71609348Y-83704748D01*
X71547036Y-83738774D01*
X71520253Y-83741653D01*
X71470365Y-83741653D01*
X71339618Y-83767660D01*
X71294847Y-83776566D01*
X71294846Y-83776566D01*
X71294843Y-83776567D01*
X71129509Y-83845052D01*
X70980716Y-83944472D01*
X70980709Y-83944477D01*
X70854171Y-84071015D01*
X70854166Y-84071022D01*
X70754746Y-84219815D01*
X70686261Y-84385149D01*
X70651347Y-84560671D01*
X70651347Y-84615654D01*
X70631345Y-84683775D01*
X70577689Y-84730268D01*
X70525347Y-84741654D01*
X68505062Y-84741654D01*
X68436941Y-84721652D01*
X68390448Y-84667996D01*
X68380344Y-84597722D01*
X68403126Y-84541593D01*
X68414049Y-84526559D01*
X68429129Y-84505803D01*
X68522634Y-84322290D01*
X68586280Y-84126408D01*
X68618500Y-83922981D01*
X68618500Y-83717019D01*
X68586280Y-83513592D01*
X68522634Y-83317710D01*
X68429129Y-83134197D01*
X68308068Y-82967570D01*
X68308065Y-82967567D01*
X68308063Y-82967564D01*
X68162435Y-82821936D01*
X68162432Y-82821934D01*
X68162430Y-82821932D01*
X67995803Y-82700871D01*
X67812290Y-82607366D01*
X67812287Y-82607365D01*
X67812285Y-82607364D01*
X67616412Y-82543721D01*
X67616410Y-82543720D01*
X67616408Y-82543720D01*
X67412981Y-82511500D01*
X67207019Y-82511500D01*
X67003592Y-82543720D01*
X67003590Y-82543720D01*
X67003587Y-82543721D01*
X66807714Y-82607364D01*
X66807708Y-82607367D01*
X66624193Y-82700873D01*
X66457567Y-82821934D01*
X66457564Y-82821936D01*
X66311936Y-82967564D01*
X66311934Y-82967567D01*
X66190873Y-83134193D01*
X66097367Y-83317708D01*
X66097364Y-83317714D01*
X66033721Y-83513587D01*
X66033720Y-83513590D01*
X66033720Y-83513592D01*
X66001500Y-83717019D01*
X66001500Y-83922981D01*
X66024947Y-84071015D01*
X66033721Y-84126412D01*
X66064069Y-84219815D01*
X66097366Y-84322290D01*
X66190871Y-84505803D01*
X66190873Y-84505806D01*
X66280974Y-84629820D01*
X66304833Y-84696688D01*
X66288752Y-84765840D01*
X66244864Y-84808734D01*
X66245920Y-84810315D01*
X66137019Y-84883080D01*
X66137012Y-84883085D01*
X61238042Y-89782055D01*
X61175730Y-89816081D01*
X61104915Y-89811016D01*
X61048079Y-89768469D01*
X61034964Y-89745438D01*
X61034765Y-89745540D01*
X61032581Y-89741254D01*
X61032539Y-89741180D01*
X61032519Y-89741133D01*
X60924757Y-89529637D01*
X60924756Y-89529636D01*
X60865766Y-89448442D01*
X60159982Y-90154227D01*
X60147518Y-90107708D01*
X60075110Y-89982292D01*
X59972708Y-89879890D01*
X59847292Y-89807482D01*
X59800771Y-89795016D01*
X60506556Y-89089232D01*
X60506556Y-89089230D01*
X60425368Y-89030246D01*
X60213867Y-88922480D01*
X59988129Y-88849133D01*
X59753679Y-88812000D01*
X59516321Y-88812000D01*
X59281870Y-88849133D01*
X59056132Y-88922480D01*
X58844634Y-89030243D01*
X58763442Y-89089231D01*
X59469227Y-89795017D01*
X59422708Y-89807482D01*
X59297292Y-89879890D01*
X59194890Y-89982292D01*
X59122482Y-90107708D01*
X59110017Y-90154227D01*
X58404231Y-89448442D01*
X58345243Y-89529634D01*
X58237480Y-89741132D01*
X58164133Y-89966870D01*
X58127000Y-90201321D01*
X58127000Y-90438678D01*
X58164133Y-90673129D01*
X58237480Y-90898867D01*
X58345246Y-91110368D01*
X58404230Y-91191556D01*
X58404232Y-91191556D01*
X59110016Y-90485771D01*
X59122482Y-90532292D01*
X59194890Y-90657708D01*
X59297292Y-90760110D01*
X59422708Y-90832518D01*
X59469227Y-90844982D01*
X58763442Y-91550766D01*
X58776337Y-91560135D01*
X58819691Y-91616357D01*
X58825768Y-91687093D01*
X58792636Y-91749885D01*
X58730817Y-91784797D01*
X58702277Y-91788072D01*
X58035932Y-91788072D01*
X57967811Y-91768070D01*
X57933996Y-91736133D01*
X57830653Y-91593894D01*
X57689252Y-91452493D01*
X57689249Y-91452491D01*
X57689247Y-91452489D01*
X57595169Y-91384137D01*
X57527462Y-91334944D01*
X57435036Y-91287851D01*
X57349275Y-91244153D01*
X57349272Y-91244152D01*
X57349270Y-91244151D01*
X57245030Y-91210282D01*
X57186424Y-91170209D01*
X57158787Y-91104812D01*
X57164132Y-91051516D01*
X57201557Y-90936336D01*
X57238702Y-90701817D01*
X57238702Y-90464373D01*
X57201557Y-90229854D01*
X57128183Y-90004032D01*
X57020386Y-89792468D01*
X56880821Y-89600373D01*
X56880818Y-89600370D01*
X56880816Y-89600367D01*
X56712928Y-89432479D01*
X56712925Y-89432477D01*
X56712924Y-89432476D01*
X56712923Y-89432475D01*
X56568315Y-89327411D01*
X56520831Y-89292912D01*
X56520830Y-89292911D01*
X56520828Y-89292910D01*
X56309264Y-89185113D01*
X56309261Y-89185112D01*
X56309259Y-89185111D01*
X56083446Y-89111740D01*
X56083444Y-89111739D01*
X56083442Y-89111739D01*
X55848923Y-89074594D01*
X55611479Y-89074594D01*
X55376960Y-89111739D01*
X55376958Y-89111739D01*
X55376955Y-89111740D01*
X55151142Y-89185111D01*
X55151136Y-89185114D01*
X54939570Y-89292912D01*
X54747477Y-89432476D01*
X53872476Y-90307477D01*
X53732912Y-90499570D01*
X53625114Y-90711136D01*
X53625111Y-90711142D01*
X53551740Y-90936955D01*
X53551739Y-90936958D01*
X53551739Y-90936960D01*
X53514594Y-91171479D01*
X53514594Y-91408923D01*
X53547449Y-91616357D01*
X53551740Y-91643446D01*
X53611705Y-91828000D01*
X53625113Y-91869264D01*
X53732910Y-92080828D01*
X53732912Y-92080831D01*
X53872476Y-92272924D01*
X54040371Y-92440819D01*
X54100493Y-92484500D01*
X54232468Y-92580386D01*
X54444032Y-92688183D01*
X54669854Y-92761557D01*
X54904373Y-92798702D01*
X54904376Y-92798702D01*
X55141814Y-92798702D01*
X55141817Y-92798702D01*
X55376336Y-92761557D01*
X55491515Y-92724132D01*
X55562480Y-92722105D01*
X55623278Y-92758767D01*
X55650282Y-92805030D01*
X55679444Y-92894784D01*
X55684153Y-92909275D01*
X55686379Y-92913643D01*
X55774944Y-93087462D01*
X55833821Y-93168498D01*
X55892489Y-93249247D01*
X55892491Y-93249249D01*
X55892493Y-93249252D01*
X56033891Y-93390650D01*
X56033894Y-93390652D01*
X56033897Y-93390655D01*
X56110767Y-93446504D01*
X56195681Y-93508199D01*
X56195685Y-93508201D01*
X56373869Y-93598991D01*
X56564056Y-93660786D01*
X56564057Y-93660786D01*
X56564062Y-93660788D01*
X56761581Y-93692072D01*
X56761584Y-93692072D01*
X56879286Y-93692072D01*
X56947407Y-93712074D01*
X56993900Y-93765730D01*
X57005286Y-93818072D01*
X57005286Y-93935777D01*
X57035750Y-94128120D01*
X57036571Y-94133301D01*
X57097494Y-94320803D01*
X57098367Y-94323489D01*
X57117944Y-94361911D01*
X57189158Y-94501676D01*
X57253710Y-94590523D01*
X57306703Y-94663461D01*
X57306705Y-94663463D01*
X57306707Y-94663466D01*
X57448105Y-94804864D01*
X57448108Y-94804866D01*
X57448111Y-94804869D01*
X57524981Y-94860718D01*
X57609895Y-94922413D01*
X57612998Y-94923994D01*
X57788083Y-95013205D01*
X57978276Y-95075002D01*
X57997875Y-95078106D01*
X58062027Y-95108515D01*
X58099556Y-95168782D01*
X58102884Y-95220482D01*
X58098641Y-95249997D01*
X58098641Y-95250000D01*
X58119450Y-95394734D01*
X58180193Y-95527743D01*
X58218413Y-95575172D01*
X58218418Y-95575177D01*
X58218427Y-95575187D01*
X59308510Y-96665269D01*
X59342535Y-96727581D01*
X59343863Y-96774071D01*
X59312870Y-96969755D01*
X59312870Y-97207199D01*
X59350015Y-97441718D01*
X59350016Y-97441722D01*
X59420761Y-97659454D01*
X59423389Y-97667540D01*
X59531186Y-97879104D01*
X59531188Y-97879107D01*
X59670752Y-98071200D01*
X59838647Y-98239095D01*
X59860873Y-98255243D01*
X60030744Y-98378662D01*
X60242308Y-98486459D01*
X60468130Y-98559833D01*
X60702649Y-98596978D01*
X60702652Y-98596978D01*
X60940090Y-98596978D01*
X60940093Y-98596978D01*
X61174612Y-98559833D01*
X61400434Y-98486459D01*
X61461492Y-98455348D01*
X61531265Y-98442245D01*
X61597050Y-98468945D01*
X61637957Y-98526972D01*
X61642271Y-98592197D01*
X61627981Y-98664034D01*
X61627981Y-98843000D01*
X61645319Y-98930164D01*
X61662894Y-99018519D01*
X61731379Y-99183855D01*
X61830803Y-99332654D01*
X61957346Y-99459197D01*
X62106145Y-99558621D01*
X62271481Y-99627106D01*
X62447002Y-99662019D01*
X62447003Y-99662019D01*
X62625959Y-99662019D01*
X62625960Y-99662019D01*
X62801481Y-99627106D01*
X62966817Y-99558621D01*
X63115616Y-99459197D01*
X63242159Y-99332654D01*
X63341583Y-99183855D01*
X63410068Y-99018519D01*
X63444981Y-98842998D01*
X63444981Y-98793113D01*
X63464983Y-98724992D01*
X63481886Y-98704018D01*
X67056405Y-95129499D01*
X67118717Y-95095473D01*
X67189532Y-95100538D01*
X67246368Y-95143085D01*
X67271179Y-95209605D01*
X67271500Y-95218594D01*
X67271500Y-95752981D01*
X67303720Y-95956408D01*
X67303721Y-95956412D01*
X67309999Y-95975735D01*
X67367366Y-96152290D01*
X67460871Y-96335803D01*
X67581932Y-96502430D01*
X67581934Y-96502432D01*
X67581936Y-96502435D01*
X67727564Y-96648063D01*
X67727567Y-96648065D01*
X67727570Y-96648068D01*
X67894197Y-96769129D01*
X67894204Y-96769133D01*
X67894560Y-96769391D01*
X67937915Y-96825613D01*
X67946500Y-96871328D01*
X67946500Y-102601923D01*
X67926498Y-102670044D01*
X67872842Y-102716537D01*
X67802568Y-102726641D01*
X67750499Y-102706689D01*
X67740336Y-102699898D01*
X67575003Y-102631414D01*
X67575001Y-102631413D01*
X67575000Y-102631413D01*
X67486645Y-102613838D01*
X67399481Y-102596500D01*
X67399479Y-102596500D01*
X67220521Y-102596500D01*
X67220518Y-102596500D01*
X67116343Y-102617222D01*
X67045000Y-102631413D01*
X67044998Y-102631413D01*
X67044992Y-102631415D01*
X67001639Y-102649372D01*
X66931049Y-102656961D01*
X66867562Y-102625181D01*
X66831335Y-102564122D01*
X66833870Y-102493171D01*
X66837002Y-102484773D01*
X67116611Y-101809739D01*
X67133772Y-101751295D01*
X67138991Y-101605165D01*
X67102829Y-101463485D01*
X67028216Y-101337732D01*
X66921197Y-101238093D01*
X66921192Y-101238090D01*
X66867744Y-101208904D01*
X65114886Y-100482847D01*
X65114885Y-100482846D01*
X65114881Y-100482845D01*
X65056439Y-100465684D01*
X65056438Y-100465684D01*
X64983372Y-100463074D01*
X64910307Y-100460465D01*
X64910306Y-100460465D01*
X64910301Y-100460466D01*
X64768627Y-100496627D01*
X64642874Y-100571240D01*
X64543235Y-100678259D01*
X64543233Y-100678260D01*
X64543232Y-100678263D01*
X64514046Y-100731711D01*
X64059652Y-101828717D01*
X63787987Y-102484575D01*
X63778083Y-102518301D01*
X63770827Y-102543015D01*
X63770826Y-102543017D01*
X63765607Y-102689149D01*
X63765608Y-102689154D01*
X63770084Y-102706689D01*
X63801769Y-102830829D01*
X63876382Y-102956582D01*
X63876384Y-102956584D01*
X63876385Y-102956585D01*
X63927925Y-103004571D01*
X63964152Y-103065629D01*
X63961618Y-103136580D01*
X63921127Y-103194898D01*
X63899269Y-103209056D01*
X63742065Y-103289155D01*
X63562704Y-103419469D01*
X63405941Y-103576232D01*
X63275628Y-103755592D01*
X63174976Y-103953133D01*
X63174973Y-103953139D01*
X63106466Y-104163981D01*
X63106465Y-104163986D01*
X63106465Y-104163987D01*
X63071783Y-104382960D01*
X63071783Y-104604662D01*
X63074789Y-104623640D01*
X63106466Y-104823640D01*
X63174973Y-105034482D01*
X63174975Y-105034487D01*
X63275626Y-105232026D01*
X63275628Y-105232029D01*
X63405941Y-105411389D01*
X63562704Y-105568152D01*
X63562707Y-105568154D01*
X63742068Y-105698468D01*
X63939607Y-105799119D01*
X64150459Y-105867629D01*
X64369432Y-105902311D01*
X64369435Y-105902311D01*
X64591131Y-105902311D01*
X64591134Y-105902311D01*
X64810107Y-105867629D01*
X65020959Y-105799119D01*
X65218498Y-105698468D01*
X65397859Y-105568154D01*
X65554626Y-105411387D01*
X65684940Y-105232026D01*
X65703242Y-105196107D01*
X65751990Y-105144492D01*
X65815508Y-105127311D01*
X66383582Y-105127311D01*
X66383583Y-105127311D01*
X66505974Y-105102966D01*
X66621264Y-105055211D01*
X66725022Y-104985882D01*
X67260499Y-104450405D01*
X67322811Y-104416379D01*
X67349594Y-104413500D01*
X67399478Y-104413500D01*
X67399479Y-104413500D01*
X67575000Y-104378587D01*
X67740336Y-104310102D01*
X67750495Y-104303313D01*
X67818246Y-104282096D01*
X67886714Y-104300877D01*
X67934159Y-104353692D01*
X67946500Y-104408076D01*
X67946500Y-109540406D01*
X67926498Y-109608527D01*
X67909595Y-109629501D01*
X67498099Y-110040996D01*
X67498094Y-110041003D01*
X67428769Y-110144755D01*
X67381014Y-110260044D01*
X67356668Y-110382435D01*
X67356668Y-112379915D01*
X67336666Y-112448036D01*
X67319763Y-112469010D01*
X66323421Y-113465351D01*
X66323418Y-113465355D01*
X66285201Y-113512778D01*
X66285195Y-113512787D01*
X66224456Y-113645791D01*
X66224455Y-113645795D01*
X66203647Y-113790521D01*
X66203647Y-113790528D01*
X66224455Y-113935254D01*
X66224456Y-113935255D01*
X66224457Y-113935259D01*
X66251020Y-113993425D01*
X66253902Y-113999736D01*
X66264004Y-114070010D01*
X66234510Y-114134590D01*
X66174783Y-114172973D01*
X66139287Y-114178076D01*
X66083266Y-114178076D01*
X65864293Y-114212758D01*
X65864287Y-114212759D01*
X65653445Y-114281266D01*
X65653439Y-114281269D01*
X65455898Y-114381921D01*
X65276538Y-114512234D01*
X65119775Y-114668997D01*
X64989462Y-114848357D01*
X64888810Y-115045898D01*
X64888807Y-115045904D01*
X64820300Y-115256746D01*
X64820299Y-115256751D01*
X64820299Y-115256752D01*
X64785617Y-115475725D01*
X64785617Y-115697427D01*
X64813683Y-115874628D01*
X64820300Y-115916405D01*
X64822136Y-115922055D01*
X64888809Y-116127252D01*
X64888810Y-116127253D01*
X64989462Y-116324794D01*
X65027471Y-116377109D01*
X65051330Y-116443977D01*
X65035249Y-116513128D01*
X64984335Y-116562609D01*
X64914752Y-116576708D01*
X64900955Y-116574749D01*
X64859486Y-116566500D01*
X64859479Y-116566500D01*
X64680521Y-116566500D01*
X64680518Y-116566500D01*
X64549771Y-116592507D01*
X64505000Y-116601413D01*
X64504999Y-116601413D01*
X64504996Y-116601414D01*
X64339662Y-116669899D01*
X64190869Y-116769319D01*
X64190862Y-116769324D01*
X64064324Y-116895862D01*
X64064319Y-116895869D01*
X63964899Y-117044662D01*
X63896414Y-117209996D01*
X63877841Y-117303365D01*
X63844932Y-117366274D01*
X63783237Y-117401405D01*
X63712342Y-117397604D01*
X63654757Y-117356078D01*
X63643137Y-117338171D01*
X62551521Y-115295372D01*
X62546563Y-115284976D01*
X62540965Y-115271710D01*
X62484321Y-115137471D01*
X62477366Y-115115620D01*
X62475276Y-115106140D01*
X62444131Y-114964898D01*
X62441253Y-114942160D01*
X62435888Y-114787905D01*
X62437180Y-114765012D01*
X62444104Y-114718409D01*
X62459863Y-114612342D01*
X62465280Y-114590074D01*
X62515263Y-114444038D01*
X62524633Y-114423110D01*
X62547784Y-114381919D01*
X62600252Y-114288565D01*
X62613254Y-114269689D01*
X62715943Y-114146352D01*
X62723647Y-114137913D01*
X64531359Y-112330202D01*
X64531359Y-112330201D01*
X64549082Y-112312479D01*
X64549085Y-112312482D01*
X64549148Y-112312386D01*
X64588792Y-112272788D01*
X64693481Y-112122024D01*
X64769735Y-111955067D01*
X64815134Y-111777223D01*
X64828232Y-111594144D01*
X64808615Y-111411649D01*
X64808614Y-111411644D01*
X64808613Y-111411640D01*
X64756907Y-111235541D01*
X64756906Y-111235537D01*
X64674747Y-111071404D01*
X64642630Y-111028501D01*
X64564754Y-110924471D01*
X64564751Y-110924468D01*
X64430411Y-110799397D01*
X64275995Y-110700166D01*
X64191686Y-110665297D01*
X64191690Y-110665285D01*
X64191623Y-110665272D01*
X58074930Y-108131655D01*
X58064506Y-108126767D01*
X57922794Y-108052245D01*
X57903552Y-108039769D01*
X57782227Y-107944361D01*
X57765565Y-107928602D01*
X57663547Y-107812787D01*
X57650018Y-107794272D01*
X57570675Y-107661876D01*
X57560728Y-107641221D01*
X57506696Y-107496634D01*
X57500657Y-107474512D01*
X57492638Y-107429256D01*
X57473727Y-107322527D01*
X57471799Y-107299680D01*
X57472333Y-107222102D01*
X57472897Y-107140181D01*
X57473496Y-107128754D01*
X57473807Y-107125595D01*
X57473810Y-107125587D01*
X57473808Y-107125587D01*
X58347493Y-98245101D01*
X58347491Y-98245099D01*
X58349971Y-98219895D01*
X58349952Y-98219709D01*
X58355254Y-98165245D01*
X58355227Y-98164907D01*
X58341005Y-97984227D01*
X58341005Y-97984224D01*
X58341004Y-97984221D01*
X58341004Y-97984218D01*
X58295167Y-97808512D01*
X58295020Y-97808194D01*
X58219171Y-97643597D01*
X58219170Y-97643596D01*
X58219169Y-97643593D01*
X58115375Y-97494594D01*
X58058493Y-97437556D01*
X58058493Y-97437536D01*
X58049793Y-97428836D01*
X58045405Y-97424445D01*
X58045404Y-97424444D01*
X58033339Y-97412371D01*
X58033293Y-97412336D01*
X54941888Y-94320929D01*
X54941637Y-94320761D01*
X54930044Y-94309192D01*
X54902597Y-94281801D01*
X54843369Y-94240513D01*
X54753640Y-94177962D01*
X54753634Y-94177959D01*
X54588747Y-94101907D01*
X54588738Y-94101904D01*
X54413061Y-94056007D01*
X54283756Y-94045780D01*
X54232037Y-94041690D01*
X54232036Y-94041690D01*
X54232035Y-94041690D01*
X54177607Y-94046967D01*
X54151857Y-94049463D01*
X54151843Y-94049451D01*
X54141685Y-94050449D01*
X54141596Y-94050458D01*
X54141558Y-94050461D01*
X54141526Y-94050465D01*
X54141513Y-94050466D01*
X54141505Y-94050467D01*
X54119554Y-94052620D01*
X54119498Y-94052632D01*
X48314439Y-94623749D01*
X45268541Y-94923412D01*
X45257042Y-94924014D01*
X45096942Y-94925072D01*
X45074090Y-94923136D01*
X44922126Y-94896165D01*
X44900005Y-94890120D01*
X44755439Y-94836050D01*
X44734779Y-94826094D01*
X44602416Y-94746721D01*
X44583905Y-94733187D01*
X44468113Y-94631133D01*
X44452366Y-94614475D01*
X44356981Y-94493111D01*
X44344525Y-94473889D01*
X44270109Y-94332285D01*
X44265240Y-94321895D01*
X42476722Y-90004030D01*
X41565811Y-87804898D01*
X46495976Y-87804898D01*
X46495976Y-88026600D01*
X46530658Y-88245573D01*
X46530659Y-88245578D01*
X46597399Y-88450981D01*
X46599168Y-88456425D01*
X46692723Y-88640037D01*
X46699821Y-88653967D01*
X46830134Y-88833327D01*
X46986897Y-88990090D01*
X47042163Y-89030243D01*
X47166261Y-89120406D01*
X47363800Y-89221057D01*
X47574652Y-89289567D01*
X47793625Y-89324249D01*
X47793628Y-89324249D01*
X48015324Y-89324249D01*
X48015327Y-89324249D01*
X48234300Y-89289567D01*
X48445152Y-89221057D01*
X48642691Y-89120406D01*
X48822052Y-88990092D01*
X48978819Y-88833325D01*
X49109133Y-88653964D01*
X49189231Y-88496761D01*
X49237978Y-88445147D01*
X49306893Y-88428081D01*
X49374094Y-88450981D01*
X49393715Y-88468106D01*
X49420396Y-88496763D01*
X49441705Y-88519650D01*
X49567458Y-88594263D01*
X49709138Y-88630425D01*
X49855268Y-88625206D01*
X49913712Y-88608045D01*
X51666567Y-87881989D01*
X51666572Y-87881986D01*
X51666575Y-87881985D01*
X51706243Y-87860324D01*
X51720028Y-87852797D01*
X51827047Y-87753158D01*
X51901660Y-87627405D01*
X51937822Y-87485725D01*
X51932603Y-87339595D01*
X51915442Y-87281151D01*
X51189386Y-85528296D01*
X51189384Y-85528293D01*
X51189382Y-85528287D01*
X51160196Y-85474839D01*
X51160194Y-85474835D01*
X51060555Y-85367816D01*
X50934802Y-85293203D01*
X50843052Y-85269785D01*
X50793127Y-85257042D01*
X50793122Y-85257041D01*
X50646990Y-85262260D01*
X50646988Y-85262261D01*
X50639135Y-85264567D01*
X50588548Y-85279421D01*
X50588546Y-85279421D01*
X50588542Y-85279423D01*
X48835684Y-86005480D01*
X48782236Y-86034666D01*
X48782233Y-86034667D01*
X48782232Y-86034669D01*
X48712040Y-86100021D01*
X48675213Y-86134308D01*
X48600600Y-86260061D01*
X48564439Y-86401735D01*
X48564438Y-86401740D01*
X48566952Y-86472121D01*
X48549394Y-86540912D01*
X48497431Y-86589291D01*
X48427563Y-86601896D01*
X48402096Y-86596451D01*
X48234303Y-86541932D01*
X48234307Y-86541932D01*
X48193539Y-86535475D01*
X48015327Y-86507249D01*
X47793625Y-86507249D01*
X47581086Y-86540912D01*
X47574646Y-86541932D01*
X47363804Y-86610439D01*
X47363798Y-86610442D01*
X47166257Y-86711094D01*
X46986897Y-86841407D01*
X46830134Y-86998170D01*
X46699821Y-87177530D01*
X46599169Y-87375071D01*
X46599166Y-87375077D01*
X46530659Y-87585919D01*
X46530658Y-87585924D01*
X46530658Y-87585925D01*
X46495976Y-87804898D01*
X41565811Y-87804898D01*
X40803584Y-85964719D01*
X40799668Y-85953888D01*
X40799616Y-85953720D01*
X40752170Y-85800997D01*
X40747391Y-85778585D01*
X40729075Y-85625318D01*
X40728439Y-85602412D01*
X40738205Y-85448374D01*
X40741731Y-85425727D01*
X40779257Y-85276011D01*
X40786825Y-85254387D01*
X40850874Y-85113934D01*
X40862234Y-85094045D01*
X40950673Y-84967538D01*
X40965462Y-84950024D01*
X41079908Y-84837164D01*
X41088395Y-84829524D01*
X41089924Y-84828270D01*
X41089924Y-84828269D01*
X42462812Y-83701321D01*
X58127000Y-83701321D01*
X58127000Y-83938678D01*
X58164133Y-84173129D01*
X58237480Y-84398867D01*
X58345246Y-84610368D01*
X58404230Y-84691556D01*
X58404232Y-84691556D01*
X59110016Y-83985771D01*
X59122482Y-84032292D01*
X59194890Y-84157708D01*
X59297292Y-84260110D01*
X59422708Y-84332518D01*
X59469226Y-84344982D01*
X58763442Y-85050766D01*
X58844636Y-85109756D01*
X58844637Y-85109757D01*
X59056132Y-85217519D01*
X59281870Y-85290866D01*
X59516321Y-85328000D01*
X59753679Y-85328000D01*
X59988129Y-85290866D01*
X60213867Y-85217519D01*
X60425367Y-85109754D01*
X60506556Y-85050767D01*
X60506556Y-85050765D01*
X59800773Y-84344982D01*
X59847292Y-84332518D01*
X59972708Y-84260110D01*
X60075110Y-84157708D01*
X60147518Y-84032292D01*
X60159982Y-83985773D01*
X60865765Y-84691556D01*
X60865767Y-84691556D01*
X60924754Y-84610367D01*
X61032519Y-84398867D01*
X61105866Y-84173129D01*
X61143000Y-83938678D01*
X61143000Y-83701321D01*
X61142993Y-83701278D01*
X62626500Y-83701278D01*
X62626500Y-83938722D01*
X62661184Y-84157708D01*
X62663645Y-84173246D01*
X62730311Y-84378422D01*
X62737018Y-84399063D01*
X62844815Y-84610627D01*
X62844817Y-84610630D01*
X62864381Y-84637557D01*
X62984380Y-84802722D01*
X62984382Y-84802724D01*
X62984384Y-84802727D01*
X63152272Y-84970615D01*
X63152275Y-84970617D01*
X63152278Y-84970620D01*
X63344373Y-85110185D01*
X63555937Y-85217982D01*
X63781759Y-85291356D01*
X64016278Y-85328500D01*
X64016281Y-85328500D01*
X64253719Y-85328500D01*
X64253722Y-85328500D01*
X64488241Y-85291356D01*
X64714063Y-85217982D01*
X64925627Y-85110185D01*
X65117722Y-84970620D01*
X65285620Y-84802722D01*
X65425185Y-84610627D01*
X65532982Y-84399063D01*
X65606356Y-84173241D01*
X65643500Y-83938722D01*
X65643500Y-83701278D01*
X65606356Y-83466759D01*
X65532982Y-83240937D01*
X65425185Y-83029373D01*
X65285620Y-82837278D01*
X65285617Y-82837275D01*
X65285615Y-82837272D01*
X65117727Y-82669384D01*
X65117724Y-82669382D01*
X65117722Y-82669380D01*
X64925627Y-82529815D01*
X64714063Y-82422018D01*
X64714060Y-82422017D01*
X64714058Y-82422016D01*
X64488246Y-82348645D01*
X64488242Y-82348644D01*
X64488241Y-82348644D01*
X64253722Y-82311500D01*
X64016278Y-82311500D01*
X63802639Y-82345337D01*
X63781753Y-82348645D01*
X63555941Y-82422016D01*
X63555935Y-82422019D01*
X63344369Y-82529817D01*
X63152275Y-82669382D01*
X63152272Y-82669384D01*
X62984384Y-82837272D01*
X62984382Y-82837275D01*
X62844817Y-83029369D01*
X62737019Y-83240935D01*
X62737016Y-83240941D01*
X62663645Y-83466753D01*
X62663644Y-83466758D01*
X62663644Y-83466759D01*
X62626500Y-83701278D01*
X61142993Y-83701278D01*
X61105866Y-83466870D01*
X61032519Y-83241132D01*
X60924757Y-83029637D01*
X60924756Y-83029636D01*
X60865766Y-82948442D01*
X60159982Y-83654226D01*
X60147518Y-83607708D01*
X60075110Y-83482292D01*
X59972708Y-83379890D01*
X59847292Y-83307482D01*
X59800771Y-83295016D01*
X60506556Y-82589232D01*
X60506556Y-82589230D01*
X60425368Y-82530246D01*
X60213867Y-82422480D01*
X59988129Y-82349133D01*
X59753679Y-82312000D01*
X59516321Y-82312000D01*
X59281870Y-82349133D01*
X59056132Y-82422480D01*
X58844634Y-82530243D01*
X58763442Y-82589231D01*
X59469227Y-83295017D01*
X59422708Y-83307482D01*
X59297292Y-83379890D01*
X59194890Y-83482292D01*
X59122482Y-83607708D01*
X59110017Y-83654227D01*
X58404231Y-82948442D01*
X58345243Y-83029634D01*
X58237480Y-83241132D01*
X58164133Y-83466870D01*
X58127000Y-83701321D01*
X42462812Y-83701321D01*
X47938797Y-79206308D01*
X47939157Y-79206155D01*
X47979037Y-79173345D01*
X47979038Y-79173346D01*
X48049154Y-79115660D01*
X48167076Y-78977567D01*
X48258901Y-78820903D01*
X48321769Y-78650542D01*
X48353727Y-78471785D01*
X48353833Y-78391229D01*
X48353847Y-78391216D01*
X48353847Y-78380653D01*
X48353849Y-78372704D01*
X48353848Y-78372703D01*
X48353853Y-78354095D01*
X48353847Y-78354047D01*
X48353847Y-73983679D01*
X48353784Y-73983364D01*
X48353728Y-73928220D01*
X48321825Y-73749461D01*
X48259009Y-73579088D01*
X48167236Y-73422402D01*
X48167235Y-73422400D01*
X48049358Y-73284277D01*
X48006422Y-73248931D01*
X48006422Y-73248930D01*
X47997557Y-73241633D01*
X47987169Y-73233081D01*
X47987167Y-73233061D01*
X47978850Y-73226234D01*
X47972862Y-73221315D01*
X47972860Y-73221314D01*
X47960928Y-73211512D01*
X47960874Y-73211477D01*
X41087732Y-67569597D01*
X41079173Y-67561890D01*
X41063020Y-67545950D01*
X40965215Y-67449432D01*
X40950435Y-67431916D01*
X40862045Y-67305384D01*
X40850677Y-67285467D01*
X40830047Y-67240185D01*
X40821087Y-67220518D01*
X68851500Y-67220518D01*
X68851500Y-67220521D01*
X68851500Y-67399479D01*
X68885386Y-67569838D01*
X68886414Y-67575003D01*
X68901162Y-67610606D01*
X68954898Y-67740336D01*
X69054322Y-67889135D01*
X69180865Y-68015678D01*
X69329664Y-68115102D01*
X69495000Y-68183587D01*
X69670521Y-68218500D01*
X69670522Y-68218500D01*
X69849478Y-68218500D01*
X69849479Y-68218500D01*
X70025000Y-68183587D01*
X70190336Y-68115102D01*
X70339135Y-68015678D01*
X70374408Y-67980405D01*
X70436720Y-67946379D01*
X70463503Y-67943500D01*
X71817393Y-67943500D01*
X71817394Y-67943500D01*
X71939785Y-67919155D01*
X72055075Y-67871400D01*
X72158833Y-67802071D01*
X75061776Y-64899126D01*
X100456620Y-64899126D01*
X100456620Y-64899127D01*
X100461839Y-65045257D01*
X100479000Y-65103701D01*
X100479001Y-65103705D01*
X100479002Y-65103706D01*
X101205059Y-66856564D01*
X101234245Y-66910012D01*
X101234248Y-66910017D01*
X101333887Y-67017036D01*
X101459640Y-67091649D01*
X101601320Y-67127811D01*
X101747450Y-67122592D01*
X101805894Y-67105431D01*
X103558749Y-66379375D01*
X103558754Y-66379372D01*
X103558757Y-66379371D01*
X103586765Y-66364077D01*
X103612210Y-66350183D01*
X103719229Y-66250544D01*
X103793842Y-66124791D01*
X103830004Y-65983111D01*
X103827490Y-65912726D01*
X103845047Y-65843940D01*
X103897008Y-65795561D01*
X103966877Y-65782955D01*
X103992339Y-65788398D01*
X104160142Y-65842921D01*
X104379115Y-65877603D01*
X104379118Y-65877603D01*
X104600814Y-65877603D01*
X104600817Y-65877603D01*
X104819790Y-65842921D01*
X105030642Y-65774411D01*
X105228181Y-65673760D01*
X105407542Y-65543446D01*
X105564309Y-65386679D01*
X105694623Y-65207318D01*
X105795274Y-65009779D01*
X105863784Y-64798927D01*
X105898466Y-64579954D01*
X105898466Y-64358252D01*
X105863784Y-64139279D01*
X105795274Y-63928427D01*
X105694623Y-63730888D01*
X105564309Y-63551527D01*
X105564307Y-63551524D01*
X105407544Y-63394761D01*
X105228184Y-63264448D01*
X105228183Y-63264447D01*
X105228181Y-63264446D01*
X105030642Y-63163795D01*
X105030639Y-63163794D01*
X105030637Y-63163793D01*
X104819795Y-63095286D01*
X104819791Y-63095285D01*
X104819790Y-63095285D01*
X104600817Y-63060603D01*
X104379115Y-63060603D01*
X104160142Y-63095285D01*
X104160136Y-63095286D01*
X103949294Y-63163793D01*
X103949288Y-63163796D01*
X103751747Y-63264448D01*
X103572387Y-63394761D01*
X103415624Y-63551524D01*
X103285310Y-63730885D01*
X103205211Y-63888089D01*
X103156462Y-63939704D01*
X103087547Y-63956770D01*
X103020346Y-63933869D01*
X103000726Y-63916745D01*
X102952740Y-63865205D01*
X102952739Y-63865204D01*
X102952737Y-63865202D01*
X102826984Y-63790589D01*
X102705752Y-63759646D01*
X102685309Y-63754428D01*
X102685304Y-63754427D01*
X102539172Y-63759646D01*
X102539170Y-63759647D01*
X102514456Y-63766903D01*
X102480730Y-63776807D01*
X102480728Y-63776807D01*
X102480724Y-63776809D01*
X100727866Y-64502866D01*
X100674418Y-64532052D01*
X100674415Y-64532053D01*
X100674414Y-64532055D01*
X100567395Y-64631694D01*
X100492782Y-64757447D01*
X100456621Y-64899121D01*
X100456620Y-64899126D01*
X75061776Y-64899126D01*
X75743486Y-64217416D01*
X75805796Y-64183392D01*
X75871515Y-64186679D01*
X75881884Y-64190049D01*
X76093084Y-64223500D01*
X76093087Y-64223500D01*
X76306913Y-64223500D01*
X76306916Y-64223500D01*
X76518116Y-64190049D01*
X76721483Y-64123972D01*
X76912009Y-64026894D01*
X77085004Y-63901206D01*
X77236206Y-63750004D01*
X77361894Y-63577009D01*
X77361899Y-63576997D01*
X77362561Y-63575920D01*
X77362924Y-63575591D01*
X77364804Y-63573004D01*
X77365347Y-63573398D01*
X77415204Y-63528283D01*
X77485244Y-63516670D01*
X77550445Y-63544766D01*
X77575021Y-63573130D01*
X77575196Y-63573004D01*
X77576668Y-63575030D01*
X77577439Y-63575920D01*
X77578105Y-63577007D01*
X77578106Y-63577009D01*
X77703794Y-63750004D01*
X77703796Y-63750006D01*
X77703798Y-63750009D01*
X77854990Y-63901201D01*
X77854993Y-63901203D01*
X77854996Y-63901206D01*
X78027991Y-64026894D01*
X78218517Y-64123972D01*
X78421878Y-64190047D01*
X78421879Y-64190047D01*
X78421884Y-64190049D01*
X78633084Y-64223500D01*
X78633087Y-64223500D01*
X78846913Y-64223500D01*
X78846916Y-64223500D01*
X79058116Y-64190049D01*
X79261483Y-64123972D01*
X79452009Y-64026894D01*
X79625004Y-63901206D01*
X79776206Y-63750004D01*
X79901894Y-63577009D01*
X79998972Y-63386483D01*
X80065049Y-63183116D01*
X80098500Y-62971916D01*
X80098500Y-62758084D01*
X80065049Y-62546884D01*
X79998972Y-62343517D01*
X79901894Y-62152991D01*
X79776206Y-61979996D01*
X79776203Y-61979993D01*
X79776201Y-61979990D01*
X79621504Y-61825293D01*
X79622751Y-61824045D01*
X79588103Y-61770986D01*
X79587587Y-61699992D01*
X79625535Y-61639988D01*
X79656920Y-61622006D01*
X79656086Y-61620217D01*
X79662728Y-61617118D01*
X79662738Y-61617115D01*
X79813652Y-61524030D01*
X79939030Y-61398652D01*
X80032115Y-61247738D01*
X80087887Y-61079426D01*
X80098500Y-60975545D01*
X80098499Y-59674456D01*
X80092423Y-59614982D01*
X80087887Y-59570574D01*
X80045778Y-59443496D01*
X80032115Y-59402262D01*
X79939030Y-59251348D01*
X79939029Y-59251347D01*
X79939024Y-59251341D01*
X79813658Y-59125975D01*
X79813652Y-59125970D01*
X79662738Y-59032885D01*
X79563348Y-58999951D01*
X79494427Y-58977113D01*
X79494420Y-58977112D01*
X79390553Y-58966500D01*
X78089455Y-58966500D01*
X77985574Y-58977112D01*
X77817261Y-59032885D01*
X77666347Y-59125970D01*
X77666341Y-59125975D01*
X77540975Y-59251341D01*
X77540970Y-59251347D01*
X77447883Y-59402266D01*
X77444783Y-59408914D01*
X77441933Y-59407585D01*
X77409456Y-59454366D01*
X77343865Y-59481538D01*
X77273996Y-59468936D01*
X77240490Y-59442712D01*
X77239707Y-59443496D01*
X77085009Y-59288798D01*
X77085006Y-59288796D01*
X77085004Y-59288794D01*
X76912009Y-59163106D01*
X76721483Y-59066028D01*
X76721480Y-59066027D01*
X76721478Y-59066026D01*
X76518120Y-58999952D01*
X76518123Y-58999952D01*
X76478801Y-58993724D01*
X76306916Y-58966500D01*
X76093084Y-58966500D01*
X75881884Y-58999951D01*
X75881878Y-58999952D01*
X75678521Y-59066026D01*
X75678515Y-59066029D01*
X75487987Y-59163108D01*
X75314993Y-59288796D01*
X75314990Y-59288798D01*
X75163798Y-59439990D01*
X75163796Y-59439993D01*
X75038108Y-59612987D01*
X75037434Y-59614088D01*
X75037068Y-59614418D01*
X75035196Y-59616996D01*
X75034654Y-59616602D01*
X74984787Y-59661721D01*
X74914745Y-59673328D01*
X74849547Y-59645226D01*
X74824976Y-59616870D01*
X74824804Y-59616996D01*
X74823341Y-59614982D01*
X74822566Y-59614088D01*
X74821896Y-59612996D01*
X74821894Y-59612991D01*
X74696206Y-59439996D01*
X74696203Y-59439993D01*
X74696201Y-59439990D01*
X74545009Y-59288798D01*
X74545006Y-59288796D01*
X74545004Y-59288794D01*
X74372009Y-59163106D01*
X74181483Y-59066028D01*
X74181480Y-59066027D01*
X74181478Y-59066026D01*
X73978120Y-58999952D01*
X73978123Y-58999952D01*
X73938801Y-58993724D01*
X73766916Y-58966500D01*
X73553084Y-58966500D01*
X73341884Y-58999951D01*
X73341878Y-58999952D01*
X73138521Y-59066026D01*
X73138515Y-59066029D01*
X72947987Y-59163108D01*
X72774993Y-59288796D01*
X72774990Y-59288798D01*
X72623798Y-59439990D01*
X72623796Y-59439993D01*
X72498108Y-59612987D01*
X72401029Y-59803515D01*
X72401026Y-59803521D01*
X72334952Y-60006878D01*
X72334951Y-60006883D01*
X72334951Y-60006884D01*
X72301500Y-60218084D01*
X72301500Y-60431916D01*
X72334951Y-60643116D01*
X72334952Y-60643121D01*
X72384809Y-60796564D01*
X72386837Y-60867532D01*
X72350174Y-60928329D01*
X72286462Y-60959655D01*
X72264976Y-60961500D01*
X71188503Y-60961500D01*
X71120382Y-60941498D01*
X71099408Y-60924595D01*
X71064137Y-60889324D01*
X71064135Y-60889322D01*
X70915336Y-60789898D01*
X70798429Y-60741473D01*
X70750003Y-60721414D01*
X70750001Y-60721413D01*
X70750000Y-60721413D01*
X70661645Y-60703838D01*
X70574481Y-60686500D01*
X70574479Y-60686500D01*
X70395521Y-60686500D01*
X70395518Y-60686500D01*
X70264771Y-60712507D01*
X70220000Y-60721413D01*
X70219999Y-60721413D01*
X70219996Y-60721414D01*
X70054662Y-60789899D01*
X69905869Y-60889319D01*
X69905862Y-60889324D01*
X69779324Y-61015862D01*
X69779319Y-61015869D01*
X69679899Y-61164662D01*
X69611414Y-61329996D01*
X69576500Y-61505518D01*
X69576500Y-61684481D01*
X69580205Y-61703106D01*
X69611413Y-61860000D01*
X69679898Y-62025336D01*
X69779322Y-62174135D01*
X69905865Y-62300678D01*
X70054664Y-62400102D01*
X70220000Y-62468587D01*
X70395521Y-62503500D01*
X70395522Y-62503500D01*
X70574478Y-62503500D01*
X70574479Y-62503500D01*
X70750000Y-62468587D01*
X70915336Y-62400102D01*
X71064135Y-62300678D01*
X71099408Y-62265405D01*
X71161720Y-62231379D01*
X71188503Y-62228500D01*
X72265502Y-62228500D01*
X72333623Y-62248502D01*
X72380116Y-62302158D01*
X72390220Y-62372432D01*
X72385335Y-62393436D01*
X72335440Y-62546996D01*
X72302000Y-62758126D01*
X72302000Y-62971873D01*
X72335440Y-63183003D01*
X72401490Y-63386286D01*
X72401493Y-63386292D01*
X72498535Y-63576748D01*
X72498536Y-63576750D01*
X72536620Y-63629167D01*
X72536621Y-63629168D01*
X73175841Y-62989947D01*
X73194075Y-63057993D01*
X73259901Y-63172007D01*
X73352993Y-63265099D01*
X73467007Y-63330925D01*
X73535050Y-63349157D01*
X72895830Y-63988377D01*
X72895831Y-63988378D01*
X72948249Y-64026463D01*
X72948251Y-64026464D01*
X73138707Y-64123506D01*
X73138713Y-64123509D01*
X73341996Y-64189559D01*
X73553126Y-64223000D01*
X73641905Y-64223000D01*
X73710026Y-64243002D01*
X73756519Y-64296658D01*
X73766623Y-64366932D01*
X73737129Y-64431512D01*
X73731000Y-64438095D01*
X71529501Y-66639595D01*
X71467189Y-66673620D01*
X71440406Y-66676500D01*
X70463503Y-66676500D01*
X70395382Y-66656498D01*
X70374408Y-66639595D01*
X70339137Y-66604324D01*
X70339135Y-66604322D01*
X70190336Y-66504898D01*
X70047604Y-66445776D01*
X70025003Y-66436414D01*
X70025001Y-66436413D01*
X70025000Y-66436413D01*
X69923462Y-66416216D01*
X69849481Y-66401500D01*
X69849479Y-66401500D01*
X69670521Y-66401500D01*
X69670518Y-66401500D01*
X69539771Y-66427507D01*
X69495000Y-66436413D01*
X69494999Y-66436413D01*
X69494996Y-66436414D01*
X69329662Y-66504899D01*
X69180869Y-66604319D01*
X69180862Y-66604324D01*
X69054324Y-66730862D01*
X69054319Y-66730869D01*
X68954899Y-66879662D01*
X68886414Y-67044996D01*
X68851500Y-67220518D01*
X40821087Y-67220518D01*
X40786685Y-67145008D01*
X40779119Y-67123366D01*
X40741647Y-66973637D01*
X40738128Y-66950981D01*
X40736421Y-66923909D01*
X40728417Y-66796940D01*
X40729063Y-66774021D01*
X40734237Y-66730862D01*
X40747432Y-66620775D01*
X40752222Y-66598352D01*
X40781291Y-66504898D01*
X40799733Y-66445604D01*
X40803632Y-66434827D01*
X41658024Y-64372144D01*
X46494721Y-64372144D01*
X46494721Y-64593846D01*
X46529403Y-64812819D01*
X46529404Y-64812824D01*
X46597911Y-65023666D01*
X46597913Y-65023671D01*
X46698564Y-65221210D01*
X46698566Y-65221213D01*
X46828879Y-65400573D01*
X46985642Y-65557336D01*
X46985645Y-65557338D01*
X47165006Y-65687652D01*
X47362545Y-65788303D01*
X47573397Y-65856813D01*
X47792370Y-65891495D01*
X47792373Y-65891495D01*
X48014069Y-65891495D01*
X48014072Y-65891495D01*
X48233045Y-65856813D01*
X48400843Y-65802291D01*
X48471808Y-65800264D01*
X48532606Y-65836926D01*
X48563931Y-65900639D01*
X48565696Y-65926618D01*
X48563183Y-65997003D01*
X48599345Y-66138683D01*
X48673958Y-66264436D01*
X48780977Y-66364075D01*
X48780981Y-66364077D01*
X48834429Y-66393263D01*
X48834435Y-66393265D01*
X48834438Y-66393267D01*
X50587293Y-67119323D01*
X50645737Y-67136484D01*
X50791867Y-67141703D01*
X50933547Y-67105541D01*
X51059300Y-67030928D01*
X51158939Y-66923909D01*
X51183100Y-66879662D01*
X51188127Y-66870456D01*
X51188128Y-66870453D01*
X51188131Y-66870448D01*
X51914187Y-65117593D01*
X51931348Y-65059149D01*
X51936567Y-64913019D01*
X51900405Y-64771339D01*
X51825792Y-64645586D01*
X51718773Y-64545947D01*
X51718768Y-64545944D01*
X51665320Y-64516758D01*
X49912462Y-63790701D01*
X49912461Y-63790700D01*
X49912457Y-63790699D01*
X49854015Y-63773538D01*
X49854014Y-63773538D01*
X49780948Y-63770928D01*
X49707883Y-63768319D01*
X49707882Y-63768319D01*
X49707877Y-63768320D01*
X49566203Y-63804481D01*
X49440450Y-63879094D01*
X49440445Y-63879098D01*
X49392459Y-63930638D01*
X49331401Y-63966865D01*
X49260449Y-63964329D01*
X49202132Y-63923838D01*
X49187978Y-63901986D01*
X49107878Y-63744780D01*
X48985985Y-63577009D01*
X48977562Y-63565416D01*
X48820799Y-63408653D01*
X48641439Y-63278340D01*
X48641438Y-63278339D01*
X48641436Y-63278338D01*
X48443897Y-63177687D01*
X48443894Y-63177686D01*
X48443892Y-63177685D01*
X48233050Y-63109178D01*
X48233046Y-63109177D01*
X48233045Y-63109177D01*
X48014072Y-63074495D01*
X47792370Y-63074495D01*
X47573397Y-63109177D01*
X47573391Y-63109178D01*
X47362549Y-63177685D01*
X47362543Y-63177688D01*
X47165002Y-63278340D01*
X46985642Y-63408653D01*
X46828879Y-63565416D01*
X46698566Y-63744776D01*
X46597914Y-63942317D01*
X46597911Y-63942323D01*
X46529404Y-64153165D01*
X46529403Y-64153170D01*
X46529403Y-64153171D01*
X46494721Y-64372144D01*
X41658024Y-64372144D01*
X44265299Y-58077628D01*
X44270167Y-58067244D01*
X44344699Y-57925512D01*
X44357167Y-57906284D01*
X44452587Y-57784947D01*
X44468330Y-57768300D01*
X44584166Y-57666265D01*
X44602665Y-57652749D01*
X44735072Y-57573404D01*
X44755723Y-57563461D01*
X44900310Y-57509433D01*
X44922429Y-57503396D01*
X45074415Y-57476472D01*
X45097249Y-57474544D01*
X45257098Y-57475653D01*
X45268557Y-57476254D01*
X54090387Y-58344168D01*
X54090664Y-58344279D01*
X54141331Y-58349208D01*
X54141331Y-58349209D01*
X54231698Y-58358000D01*
X54231701Y-58357999D01*
X54231703Y-58358000D01*
X54341506Y-58349352D01*
X54412727Y-58343743D01*
X54588434Y-58297899D01*
X54753352Y-58221896D01*
X54902350Y-58118098D01*
X54959386Y-58061215D01*
X54959409Y-58061215D01*
X54968586Y-58052037D01*
X54972499Y-58048127D01*
X54972499Y-58048125D01*
X54990182Y-58030456D01*
X54990212Y-58030410D01*
X58014129Y-55006493D01*
X58014385Y-55006353D01*
X58051043Y-54969617D01*
X58051044Y-54969618D01*
X58115177Y-54905348D01*
X58219018Y-54756378D01*
X58295066Y-54591480D01*
X58340957Y-54415785D01*
X58355261Y-54234759D01*
X58348292Y-54162949D01*
X58347480Y-54154578D01*
X58347493Y-54154565D01*
X58346459Y-54144053D01*
X58346140Y-54140803D01*
X58344000Y-54118991D01*
X58343988Y-54118944D01*
X58204880Y-52704995D01*
X71089989Y-52704995D01*
X71089989Y-52705004D01*
X71108010Y-52968470D01*
X71108011Y-52968476D01*
X71108012Y-52968484D01*
X71132722Y-53087396D01*
X71161742Y-53227053D01*
X71161744Y-53227060D01*
X71250186Y-53475910D01*
X71371689Y-53710401D01*
X71489375Y-53877124D01*
X71523989Y-53926161D01*
X71704030Y-54118939D01*
X71704252Y-54119176D01*
X71909117Y-54285846D01*
X72134769Y-54423068D01*
X72377004Y-54528285D01*
X72631310Y-54599538D01*
X72722717Y-54612101D01*
X72892939Y-54635499D01*
X72892950Y-54635500D01*
X79507050Y-54635500D01*
X79507060Y-54635499D01*
X79631578Y-54618383D01*
X79768690Y-54599538D01*
X80022996Y-54528285D01*
X80265231Y-54423068D01*
X80490883Y-54285846D01*
X80695748Y-54119176D01*
X80876010Y-53926162D01*
X81028311Y-53710401D01*
X81149814Y-53475910D01*
X81238256Y-53227060D01*
X81291988Y-52968484D01*
X81310011Y-52705000D01*
X81291988Y-52441516D01*
X81238256Y-52182940D01*
X81149814Y-51934090D01*
X81028311Y-51699599D01*
X80876010Y-51483838D01*
X80695748Y-51290824D01*
X80490883Y-51124154D01*
X80265231Y-50986932D01*
X80093186Y-50912202D01*
X80023002Y-50881717D01*
X80022998Y-50881715D01*
X80022996Y-50881715D01*
X79853458Y-50834213D01*
X79768687Y-50810461D01*
X79646375Y-50793649D01*
X85251548Y-50793649D01*
X85251549Y-50793654D01*
X85264146Y-50843006D01*
X85287710Y-50935329D01*
X85362323Y-51061082D01*
X85469342Y-51160721D01*
X85469346Y-51160723D01*
X85522794Y-51189909D01*
X85522800Y-51189911D01*
X85522803Y-51189913D01*
X87275658Y-51915969D01*
X87334102Y-51933130D01*
X87480232Y-51938349D01*
X87621912Y-51902187D01*
X87747665Y-51827574D01*
X87847304Y-51720555D01*
X87876496Y-51667094D01*
X88602552Y-49914239D01*
X88619713Y-49855795D01*
X88624932Y-49709665D01*
X88588770Y-49567985D01*
X88514157Y-49442232D01*
X88462613Y-49394242D01*
X88426386Y-49333184D01*
X88428920Y-49262233D01*
X88469412Y-49203915D01*
X88491264Y-49189760D01*
X88648471Y-49109660D01*
X88827832Y-48979346D01*
X88984599Y-48822579D01*
X89114913Y-48643218D01*
X89215564Y-48445679D01*
X89284074Y-48234827D01*
X89318756Y-48015854D01*
X89318756Y-47794152D01*
X89284074Y-47575179D01*
X89215564Y-47364327D01*
X89114913Y-47166788D01*
X88984599Y-46987427D01*
X88984597Y-46987424D01*
X88827834Y-46830661D01*
X88648474Y-46700348D01*
X88648473Y-46700347D01*
X88648471Y-46700346D01*
X88450932Y-46599695D01*
X88450929Y-46599694D01*
X88450927Y-46599693D01*
X88240085Y-46531186D01*
X88240081Y-46531185D01*
X88240080Y-46531185D01*
X88021107Y-46496503D01*
X87799405Y-46496503D01*
X87588141Y-46529964D01*
X87580426Y-46531186D01*
X87369584Y-46599693D01*
X87369578Y-46599696D01*
X87172037Y-46700348D01*
X86992677Y-46830661D01*
X86835914Y-46987424D01*
X86705601Y-47166784D01*
X86604949Y-47364325D01*
X86604946Y-47364331D01*
X86536439Y-47575173D01*
X86536438Y-47575178D01*
X86536438Y-47575179D01*
X86501756Y-47794152D01*
X86501756Y-48015854D01*
X86536438Y-48234827D01*
X86536439Y-48234832D01*
X86590958Y-48402623D01*
X86592986Y-48473590D01*
X86556323Y-48534388D01*
X86492611Y-48565714D01*
X86466631Y-48567478D01*
X86396248Y-48564965D01*
X86396247Y-48564965D01*
X86396242Y-48564966D01*
X86259352Y-48599906D01*
X86254568Y-48601127D01*
X86128815Y-48675740D01*
X86029176Y-48782759D01*
X86029174Y-48782760D01*
X86029173Y-48782763D01*
X85999987Y-48836211D01*
X85273930Y-50589069D01*
X85256768Y-50647515D01*
X85256767Y-50647517D01*
X85251548Y-50793649D01*
X79646375Y-50793649D01*
X79507060Y-50774500D01*
X79507050Y-50774500D01*
X79385562Y-50774500D01*
X73033285Y-50774500D01*
X73025000Y-50774500D01*
X72892950Y-50774500D01*
X72892939Y-50774500D01*
X72631312Y-50810461D01*
X72376997Y-50881717D01*
X72134771Y-50986930D01*
X71909114Y-51124156D01*
X71704249Y-51290826D01*
X71523989Y-51483838D01*
X71427079Y-51621129D01*
X71395496Y-51665873D01*
X71371690Y-51699598D01*
X71371689Y-51699599D01*
X71250186Y-51934089D01*
X71161744Y-52182938D01*
X71161742Y-52182946D01*
X71108011Y-52441523D01*
X71108010Y-52441529D01*
X71089989Y-52704995D01*
X58204880Y-52704995D01*
X57721619Y-47792931D01*
X63084214Y-47792931D01*
X63084214Y-48014633D01*
X63118896Y-48233606D01*
X63118897Y-48233611D01*
X63173813Y-48402623D01*
X63187406Y-48444458D01*
X63280624Y-48627408D01*
X63288059Y-48642000D01*
X63418372Y-48821360D01*
X63575135Y-48978123D01*
X63692960Y-49063728D01*
X63754499Y-49108439D01*
X63911701Y-49188537D01*
X63963315Y-49237284D01*
X63980381Y-49306199D01*
X63957480Y-49373401D01*
X63940357Y-49393020D01*
X63888817Y-49441006D01*
X63888813Y-49441011D01*
X63814200Y-49566764D01*
X63778039Y-49708438D01*
X63778038Y-49708443D01*
X63778038Y-49708444D01*
X63783257Y-49854574D01*
X63800418Y-49913018D01*
X63800419Y-49913022D01*
X63800420Y-49913023D01*
X64526477Y-51665881D01*
X64555663Y-51719329D01*
X64555666Y-51719334D01*
X64655305Y-51826353D01*
X64781058Y-51900966D01*
X64922738Y-51937128D01*
X65068868Y-51931909D01*
X65127312Y-51914748D01*
X66880167Y-51188692D01*
X66880172Y-51188689D01*
X66880175Y-51188688D01*
X66898095Y-51178902D01*
X66933628Y-51159500D01*
X67040647Y-51059861D01*
X67115260Y-50934108D01*
X67151422Y-50792428D01*
X67146203Y-50646298D01*
X67129042Y-50587854D01*
X66402986Y-48834999D01*
X66402984Y-48834996D01*
X66402982Y-48834990D01*
X66373796Y-48781542D01*
X66373794Y-48781538D01*
X66274155Y-48674519D01*
X66148402Y-48599906D01*
X66080356Y-48582538D01*
X66006727Y-48563745D01*
X66006722Y-48563744D01*
X65936339Y-48566257D01*
X65867550Y-48548700D01*
X65819171Y-48496737D01*
X65806566Y-48426869D01*
X65812008Y-48401410D01*
X65866532Y-48233606D01*
X65901214Y-48014633D01*
X65901214Y-47792931D01*
X65866532Y-47573958D01*
X65798022Y-47363106D01*
X65697371Y-47165567D01*
X65567057Y-46986206D01*
X65567055Y-46986203D01*
X65410292Y-46829440D01*
X65230932Y-46699127D01*
X65230931Y-46699126D01*
X65230929Y-46699125D01*
X65033390Y-46598474D01*
X65033387Y-46598473D01*
X65033385Y-46598472D01*
X64822543Y-46529965D01*
X64822539Y-46529964D01*
X64822538Y-46529964D01*
X64603565Y-46495282D01*
X64381863Y-46495282D01*
X64162890Y-46529964D01*
X64162884Y-46529965D01*
X63952042Y-46598472D01*
X63952036Y-46598475D01*
X63754495Y-46699127D01*
X63575135Y-46829440D01*
X63418372Y-46986203D01*
X63288059Y-47165563D01*
X63187407Y-47363104D01*
X63187404Y-47363110D01*
X63118897Y-47573952D01*
X63118896Y-47573957D01*
X63118896Y-47573958D01*
X63084214Y-47792931D01*
X57721619Y-47792931D01*
X57473530Y-45271256D01*
X57472929Y-45259756D01*
X57471867Y-45099663D01*
X57473803Y-45076810D01*
X57500773Y-44924839D01*
X57506813Y-44902736D01*
X57560890Y-44758149D01*
X57570838Y-44737506D01*
X57650217Y-44605132D01*
X57663751Y-44586622D01*
X57765812Y-44470826D01*
X57782463Y-44455088D01*
X57903824Y-44359709D01*
X57923056Y-44347246D01*
X58064719Y-44272804D01*
X58075093Y-44267942D01*
X66432234Y-40806300D01*
X66443031Y-40802397D01*
X66595943Y-40754884D01*
X66618367Y-40750101D01*
X66771622Y-40731777D01*
X66794545Y-40731139D01*
X66948585Y-40740899D01*
G37*
%TD.AperFunction*%
%TD*%
M02*
