%TF.GenerationSoftware,KiCad,Pcbnew,9.0.0*%
%TF.CreationDate,2025-02-27T14:29:49+01:00*%
%TF.ProjectId,CogLightBadgeTHT,436f674c-6967-4687-9442-616467655448,rev?*%
%TF.SameCoordinates,Original*%
%TF.FileFunction,Profile,NP*%
%FSLAX46Y46*%
G04 Gerber Fmt 4.6, Leading zero omitted, Abs format (unit mm)*
G04 Created by KiCad (PCBNEW 9.0.0) date 2025-02-27 14:29:49*
%MOMM*%
%LPD*%
G01*
G04 APERTURE LIST*
%TA.AperFunction,Profile*%
%ADD10C,0.050000*%
%TD*%
G04 APERTURE END LIST*
D10*
X73025000Y-54610000D02*
X79375000Y-54610000D01*
X73025000Y-50800000D02*
X79375000Y-50800000D01*
X79375000Y-50800000D02*
G75*
G02*
X79375000Y-54610000I0J-1905000D01*
G01*
X73025000Y-54610000D02*
G75*
G02*
X73025000Y-50800000I0J1905000D01*
G01*
X64505859Y-112319640D02*
X62701327Y-114124172D01*
X62701327Y-133475493D02*
X66521451Y-137295617D01*
X67699569Y-137470638D02*
G75*
G02*
X66521451Y-137295617I-471011J882127D01*
G01*
X67699859Y-137470483D02*
X70265893Y-136099265D01*
X45265607Y-94949324D02*
X54143829Y-94075863D01*
X60521723Y-127457882D02*
G75*
G02*
X59812425Y-126501068I290702J956814D01*
G01*
X54144156Y-94075830D02*
G75*
G02*
X54948846Y-94363951I97583J-995228D01*
G01*
X58321081Y-98253115D02*
X57447620Y-107131337D01*
X59812425Y-121098269D02*
G75*
G02*
X60522037Y-120141688I1000000J-328D01*
G01*
X60522037Y-127457977D02*
X63306095Y-128302840D01*
X63306724Y-128303031D02*
G75*
G02*
X63897679Y-129731051I-291017J-956718D01*
G01*
X58060131Y-108153126D02*
X64181435Y-110688653D01*
X58033225Y-97448331D02*
G75*
G02*
X58321081Y-98253115I-707339J-706874D01*
G01*
X54948846Y-94363951D02*
X58032993Y-97448098D01*
X64181436Y-110688653D02*
G75*
G02*
X64505859Y-112319640I-382684J-923880D01*
G01*
X58059828Y-108153000D02*
G75*
G02*
X57447620Y-107131337I382987J923753D01*
G01*
X62526306Y-115302290D02*
G75*
G02*
X62701327Y-114124172I882127J471011D01*
G01*
X59812425Y-121098597D02*
X59812425Y-126501068D01*
X63897679Y-129731051D02*
X62526461Y-132297085D01*
X60522037Y-120141688D02*
X63306095Y-119296825D01*
X70266473Y-136098956D02*
G75*
G02*
X71694103Y-136690849I470722J-882281D01*
G01*
X72538967Y-139474907D02*
X71694104Y-136690849D01*
X73495548Y-140184519D02*
G75*
G02*
X72538967Y-139474907I328J1000000D01*
G01*
X78898346Y-140184519D02*
X73495876Y-140184519D01*
X63897679Y-117868614D02*
X62526461Y-115302580D01*
X62701095Y-133475261D02*
G75*
G02*
X62526461Y-132297085I707338J706875D01*
G01*
X63897988Y-117869194D02*
G75*
G02*
X63306095Y-119296824I-882281J-470722D01*
G01*
X94073108Y-98252788D02*
G75*
G02*
X94361229Y-97448098I995228J97583D01*
G01*
X111616283Y-66430225D02*
X108150404Y-58062853D01*
X107128941Y-57450310D02*
G75*
G02*
X108150404Y-58062853I97584J-995227D01*
G01*
X79855255Y-139474907D02*
X80700118Y-136690849D01*
X89867761Y-132297085D02*
X88496543Y-129731051D01*
X88496234Y-129730471D02*
G75*
G02*
X89088127Y-128302841I882281J470722D01*
G01*
X87888363Y-112319640D02*
G75*
G02*
X88212787Y-110688653I707107J707107D01*
G01*
X94946634Y-107131663D02*
G75*
G02*
X94334091Y-108153126I-995227J-97584D01*
G01*
X98250393Y-94075863D02*
X107128615Y-94949324D01*
X111327133Y-84814024D02*
G75*
G02*
X111616283Y-85969441I-634730J-772734D01*
G01*
X107128615Y-57450342D02*
X98250393Y-58323803D01*
X98250066Y-58323836D02*
G75*
G02*
X97445376Y-58035715I-97583J995228D01*
G01*
X104431144Y-79153388D02*
G75*
G02*
X104065874Y-78380654I634731J772734D01*
G01*
X111616408Y-66430528D02*
G75*
G02*
X111326880Y-67585850I-924005J-382380D01*
G01*
X104065875Y-74018684D02*
G75*
G02*
X104431398Y-73246070I1000000J-328D01*
G01*
X94360997Y-54951335D02*
G75*
G02*
X94073141Y-54146551I707339J706874D01*
G01*
X97445376Y-58035715D02*
X94361229Y-54951568D01*
X80700309Y-136690220D02*
G75*
G02*
X82128329Y-136099265I956718J-291017D01*
G01*
X85872539Y-137295849D02*
G75*
G02*
X84694363Y-137470483I-706875J707338D01*
G01*
X94073141Y-54146551D02*
X94946602Y-45268329D01*
X82128329Y-136099265D02*
X84694363Y-137470483D01*
X89088127Y-128302840D02*
X91872185Y-127457977D01*
X92581797Y-126501396D02*
G75*
G02*
X91872185Y-127457977I-1000000J328D01*
G01*
X92581797Y-126501068D02*
X92581797Y-121098597D01*
X88212787Y-110688653D02*
X94334091Y-108153126D01*
X94946602Y-107131337D02*
X94073141Y-98253115D01*
X91872499Y-120141783D02*
G75*
G02*
X92581797Y-121098597I-290702J-956814D01*
G01*
X97445609Y-94363719D02*
G75*
G02*
X98250393Y-94075863I706874J-707339D01*
G01*
X89087498Y-119296634D02*
G75*
G02*
X88496543Y-117868614I291017J956718D01*
G01*
X89692895Y-114124172D02*
X87888363Y-112319640D01*
X94361229Y-97448098D02*
X97445376Y-94363951D01*
X79855160Y-139475221D02*
G75*
G02*
X78898346Y-140184519I-956814J290702D01*
G01*
X85872771Y-137295617D02*
X89692895Y-133475493D01*
X108150278Y-94337116D02*
G75*
G02*
X107128615Y-94949324I-923753J382987D01*
G01*
X88496543Y-117868614D02*
X89867761Y-115302580D01*
X108150404Y-94336813D02*
X111616283Y-85969441D01*
X111326880Y-84813816D02*
X104431398Y-79153596D01*
X104065875Y-78380654D02*
X104065875Y-74019012D01*
X89867916Y-132297375D02*
G75*
G02*
X89692895Y-133475493I-882127J-471011D01*
G01*
X89693127Y-114124404D02*
G75*
G02*
X89867761Y-115302580I-707338J-706875D01*
G01*
X89088127Y-119296825D02*
X91872185Y-120141688D01*
X57447620Y-45268329D02*
X58321081Y-54146551D01*
X74015962Y-48331069D02*
G75*
G02*
X73243348Y-47965546I328J1000000D01*
G01*
X73243348Y-47965546D02*
X67583128Y-41070064D01*
X79150666Y-47965800D02*
G75*
G02*
X78377932Y-48331070I-772734J634731D01*
G01*
X66427503Y-40780661D02*
X58060131Y-44246540D01*
X84811302Y-41069811D02*
G75*
G02*
X85966719Y-40780661I772734J-634730D01*
G01*
X57447588Y-45268003D02*
G75*
G02*
X58060131Y-44246540I995227J97584D01*
G01*
X58032993Y-54951568D02*
X54948846Y-58035715D01*
X94334091Y-44246540D02*
X85966719Y-40780661D01*
X78377932Y-48331069D02*
X74016290Y-48331069D01*
X94334394Y-44246666D02*
G75*
G02*
X94946602Y-45268329I-382987J-923753D01*
G01*
X58321114Y-54146878D02*
G75*
G02*
X58032993Y-54951568I-995228J-97583D01*
G01*
X84811094Y-41070064D02*
X79150874Y-47965546D01*
X66427806Y-40780536D02*
G75*
G02*
X67583128Y-41070064I382380J-924005D01*
G01*
X40777814Y-85969138D02*
G75*
G02*
X41067342Y-84813816I924005J382380D01*
G01*
X48328347Y-78380982D02*
G75*
G02*
X47962824Y-79153596I-1000000J328D01*
G01*
X48328347Y-78380654D02*
X48328347Y-74019012D01*
X47963078Y-73246278D02*
G75*
G02*
X48328348Y-74019012I-634731J-772734D01*
G01*
X47962824Y-73246070D02*
X41067342Y-67585850D01*
X45265607Y-57450342D02*
X54143829Y-58323803D01*
X41067342Y-84813816D02*
X47962824Y-79153596D01*
X54948613Y-58035947D02*
G75*
G02*
X54143829Y-58323803I-706874J707339D01*
G01*
X45265281Y-94949356D02*
G75*
G02*
X44243818Y-94336813I-97584J995227D01*
G01*
X40777939Y-66430225D02*
X44243818Y-58062853D01*
X44243818Y-94336813D02*
X40777939Y-85969441D01*
X41067089Y-67585642D02*
G75*
G02*
X40777939Y-66430225I634730J772734D01*
G01*
X44243944Y-58062550D02*
G75*
G02*
X45265607Y-57450342I923753J-382987D01*
G01*
X111326880Y-67585850D02*
X104431398Y-73246070D01*
M02*
