%TF.GenerationSoftware,KiCad,Pcbnew,9.0.0*%
%TF.CreationDate,2025-02-27T14:29:49+01:00*%
%TF.ProjectId,CogLightBadgeTHT,436f674c-6967-4687-9442-616467655448,rev?*%
%TF.SameCoordinates,Original*%
%TF.FileFunction,Copper,L1,Top*%
%TF.FilePolarity,Positive*%
%FSLAX46Y46*%
G04 Gerber Fmt 4.6, Leading zero omitted, Abs format (unit mm)*
G04 Created by KiCad (PCBNEW 9.0.0) date 2025-02-27 14:29:49*
%MOMM*%
%LPD*%
G01*
G04 APERTURE LIST*
G04 Aperture macros list*
%AMRoundRect*
0 Rectangle with rounded corners*
0 $1 Rounding radius*
0 $2 $3 $4 $5 $6 $7 $8 $9 X,Y pos of 4 corners*
0 Add a 4 corners polygon primitive as box body*
4,1,4,$2,$3,$4,$5,$6,$7,$8,$9,$2,$3,0*
0 Add four circle primitives for the rounded corners*
1,1,$1+$1,$2,$3*
1,1,$1+$1,$4,$5*
1,1,$1+$1,$6,$7*
1,1,$1+$1,$8,$9*
0 Add four rect primitives between the rounded corners*
20,1,$1+$1,$2,$3,$4,$5,0*
20,1,$1+$1,$4,$5,$6,$7,0*
20,1,$1+$1,$6,$7,$8,$9,0*
20,1,$1+$1,$8,$9,$2,$3,0*%
%AMHorizOval*
0 Thick line with rounded ends*
0 $1 width*
0 $2 $3 position (X,Y) of the first rounded end (center of the circle)*
0 $4 $5 position (X,Y) of the second rounded end (center of the circle)*
0 Add line between two ends*
20,1,$1,$2,$3,$4,$5,0*
0 Add two circle primitives to create the rounded ends*
1,1,$1,$2,$3*
1,1,$1,$4,$5*%
%AMRotRect*
0 Rectangle, with rotation*
0 The origin of the aperture is its center*
0 $1 length*
0 $2 width*
0 $3 Rotation angle, in degrees counterclockwise*
0 Add horizontal line*
21,1,$1,$2,0,0,$3*%
G04 Aperture macros list end*
%TA.AperFunction,ComponentPad*%
%ADD10RotRect,1.800000X1.800000X315.000000*%
%TD*%
%TA.AperFunction,ComponentPad*%
%ADD11C,1.800000*%
%TD*%
%TA.AperFunction,ComponentPad*%
%ADD12R,1.800000X1.800000*%
%TD*%
%TA.AperFunction,ComponentPad*%
%ADD13RotRect,1.800000X1.800000X135.000000*%
%TD*%
%TA.AperFunction,ComponentPad*%
%ADD14RotRect,1.800000X1.800000X157.500000*%
%TD*%
%TA.AperFunction,ComponentPad*%
%ADD15RotRect,1.800000X1.800000X202.500000*%
%TD*%
%TA.AperFunction,ComponentPad*%
%ADD16RotRect,1.800000X1.800000X247.500000*%
%TD*%
%TA.AperFunction,ComponentPad*%
%ADD17RotRect,1.800000X1.800000X292.500000*%
%TD*%
%TA.AperFunction,ComponentPad*%
%ADD18RotRect,1.800000X1.800000X337.500000*%
%TD*%
%TA.AperFunction,ComponentPad*%
%ADD19RotRect,1.800000X1.800000X22.500000*%
%TD*%
%TA.AperFunction,ComponentPad*%
%ADD20RotRect,1.800000X1.800000X67.500000*%
%TD*%
%TA.AperFunction,ComponentPad*%
%ADD21RotRect,1.800000X1.800000X112.500000*%
%TD*%
%TA.AperFunction,ComponentPad*%
%ADD22RotRect,1.800000X1.800000X45.000000*%
%TD*%
%TA.AperFunction,ComponentPad*%
%ADD23RotRect,1.800000X1.800000X225.000000*%
%TD*%
%TA.AperFunction,ComponentPad*%
%ADD24C,2.000000*%
%TD*%
%TA.AperFunction,ComponentPad*%
%ADD25RotRect,2.000000X2.000000X202.500000*%
%TD*%
%TA.AperFunction,ComponentPad*%
%ADD26R,1.600000X2.400000*%
%TD*%
%TA.AperFunction,ComponentPad*%
%ADD27O,1.600000X2.400000*%
%TD*%
%TA.AperFunction,ComponentPad*%
%ADD28C,1.600000*%
%TD*%
%TA.AperFunction,ComponentPad*%
%ADD29O,1.600000X1.600000*%
%TD*%
%TA.AperFunction,ComponentPad*%
%ADD30RotRect,1.524000X1.524000X135.000000*%
%TD*%
%TA.AperFunction,ComponentPad*%
%ADD31C,1.524000*%
%TD*%
%TA.AperFunction,ComponentPad*%
%ADD32HorizOval,2.000000X0.353553X0.353553X-0.353553X-0.353553X0*%
%TD*%
%TA.AperFunction,ComponentPad*%
%ADD33RoundRect,0.250000X-0.600000X0.600000X-0.600000X-0.600000X0.600000X-0.600000X0.600000X0.600000X0*%
%TD*%
%TA.AperFunction,ComponentPad*%
%ADD34C,1.700000*%
%TD*%
%TA.AperFunction,ViaPad*%
%ADD35C,0.800000*%
%TD*%
%TA.AperFunction,Conductor*%
%ADD36C,0.250000*%
%TD*%
G04 APERTURE END LIST*
D10*
%TO.P,D12,1*%
%TO.N,/sink4*%
X66183202Y-132016332D03*
D11*
%TO.P,D12,2*%
%TO.N,Net-(D10-Pad2)*%
X67979253Y-133812383D03*
%TD*%
D12*
%TO.P,D15,1*%
%TO.N,/sink3*%
X89078839Y-125074814D03*
D11*
%TO.P,D15,2*%
%TO.N,Net-(D13-Pad2)*%
X89078839Y-122534814D03*
%TD*%
D13*
%TO.P,D16,1*%
%TO.N,/sink4*%
X86216960Y-115596882D03*
D11*
%TO.P,D16,2*%
%TO.N,Net-(D13-Pad2)*%
X84420909Y-113800831D03*
%TD*%
%TO.P,D3,2*%
%TO.N,Net-(D1-Pad2)*%
X47903221Y-64482995D03*
D14*
%TO.P,D3,1*%
%TO.N,/sink3*%
X50249875Y-65455011D03*
%TD*%
D11*
%TO.P,D2,2*%
%TO.N,Net-(D1-Pad2)*%
X47904476Y-87915749D03*
D15*
%TO.P,D2,1*%
%TO.N,/sink2*%
X50251130Y-86943733D03*
%TD*%
D11*
%TO.P,D1,2*%
%TO.N,Net-(D1-Pad2)*%
X64480283Y-104493811D03*
D16*
%TO.P,D1,1*%
%TO.N,/sink1*%
X65452299Y-102147157D03*
%TD*%
D12*
%TO.P,D9,1*%
%TO.N,/sink1*%
X77468100Y-110917765D03*
D11*
%TO.P,D9,2*%
%TO.N,Net-(D10-Pad2)*%
X74928100Y-110917765D03*
%TD*%
%TO.P,D8,2*%
%TO.N,Net-(D5-Pad2)*%
X87914586Y-104512789D03*
D17*
%TO.P,D8,1*%
%TO.N,/sink4*%
X86942570Y-102166135D03*
%TD*%
D18*
%TO.P,D7,1*%
%TO.N,/sink3*%
X102154310Y-86951258D03*
D11*
%TO.P,D7,2*%
%TO.N,Net-(D5-Pad2)*%
X104500964Y-87923274D03*
%TD*%
D19*
%TO.P,D6,1*%
%TO.N,/sink2*%
X102143312Y-65441119D03*
D11*
%TO.P,D6,2*%
%TO.N,Net-(D5-Pad2)*%
X104489966Y-64469103D03*
%TD*%
%TO.P,D5,2*%
%TO.N,Net-(D5-Pad2)*%
X87910256Y-47905003D03*
D20*
%TO.P,D5,1*%
%TO.N,/sink1*%
X86938240Y-50251657D03*
%TD*%
D11*
%TO.P,D4,2*%
%TO.N,Net-(D1-Pad2)*%
X64492714Y-47903782D03*
D21*
%TO.P,D4,1*%
%TO.N,/sink4*%
X65464730Y-50250436D03*
%TD*%
D11*
%TO.P,D11,2*%
%TO.N,Net-(D10-Pad2)*%
X63311052Y-125068504D03*
D12*
%TO.P,D11,1*%
%TO.N,/sink3*%
X63311052Y-122528504D03*
%TD*%
D11*
%TO.P,D14,2*%
%TO.N,Net-(D13-Pad2)*%
X86210916Y-132012193D03*
D22*
%TO.P,D14,1*%
%TO.N,/sink2*%
X84414865Y-133808244D03*
%TD*%
D12*
%TO.P,D13,1*%
%TO.N,/sink1*%
X74928347Y-136678639D03*
D11*
%TO.P,D13,2*%
%TO.N,Net-(D13-Pad2)*%
X77468347Y-136678639D03*
%TD*%
%TO.P,D10,2*%
%TO.N,Net-(D10-Pad2)*%
X66194117Y-115586576D03*
D23*
%TO.P,D10,1*%
%TO.N,/sink2*%
X67990168Y-113790525D03*
%TD*%
D24*
%TO.P,BT1,2*%
%TO.N,GND*%
X78496101Y-129368277D03*
D25*
%TO.P,BT1,1*%
%TO.N,Net-(BT1-Pad1)*%
X70842432Y-110890687D03*
%TD*%
D26*
%TO.P,U1,1*%
%TO.N,VCC*%
X83820000Y-87630000D03*
D27*
%TO.P,U1,8*%
%TO.N,/sink2*%
X68580000Y-95250000D03*
%TO.P,U1,2*%
%TO.N,Net-(U1-Pad2)*%
X81280000Y-87630000D03*
%TO.P,U1,9*%
%TO.N,/sink1*%
X71120000Y-95250000D03*
%TO.P,U1,3*%
%TO.N,Net-(R6-Pad2)*%
X78740000Y-87630000D03*
%TO.P,U1,10*%
%TO.N,/source4*%
X73660000Y-95250000D03*
%TO.P,U1,4*%
%TO.N,Net-(J1-Pad5)*%
X76200000Y-87630000D03*
%TO.P,U1,11*%
%TO.N,/source3*%
X76200000Y-95250000D03*
%TO.P,U1,5*%
%TO.N,Net-(R5-Pad2)*%
X73660000Y-87630000D03*
%TO.P,U1,12*%
%TO.N,/source2*%
X78740000Y-95250000D03*
%TO.P,U1,6*%
%TO.N,/sink4*%
X71120000Y-87630000D03*
%TO.P,U1,13*%
%TO.N,/source1*%
X81280000Y-95250000D03*
%TO.P,U1,7*%
%TO.N,/sink3*%
X68580000Y-87630000D03*
%TO.P,U1,14*%
%TO.N,GND*%
X83820000Y-95250000D03*
%TD*%
D28*
%TO.P,R3,1*%
%TO.N,Net-(D10-Pad2)*%
X74295000Y-106680000D03*
D29*
%TO.P,R3,2*%
%TO.N,/source3*%
X74295000Y-99060000D03*
%TD*%
%TO.P,R4,2*%
%TO.N,/source4*%
X70485000Y-99060000D03*
D28*
%TO.P,R4,1*%
%TO.N,Net-(D13-Pad2)*%
X70485000Y-106680000D03*
%TD*%
%TO.P,R1,1*%
%TO.N,Net-(D1-Pad2)*%
X81915000Y-106680000D03*
D29*
%TO.P,R1,2*%
%TO.N,/source1*%
X81915000Y-99060000D03*
%TD*%
%TO.P,R2,2*%
%TO.N,/source2*%
X78105000Y-99060000D03*
D28*
%TO.P,R2,1*%
%TO.N,Net-(D5-Pad2)*%
X78105000Y-106680000D03*
%TD*%
%TO.P,C1,2*%
%TO.N,GND*%
X88265000Y-98345000D03*
%TO.P,C1,1*%
%TO.N,VCC*%
X88265000Y-93345000D03*
%TD*%
D29*
%TO.P,R5,2*%
%TO.N,Net-(R5-Pad2)*%
X67310000Y-83820000D03*
D28*
%TO.P,R5,1*%
%TO.N,VCC*%
X74930000Y-83820000D03*
%TD*%
D24*
%TO.P,SW2,2*%
%TO.N,GND*%
X59635000Y-83820000D03*
%TO.P,SW2,1*%
%TO.N,Net-(R5-Pad2)*%
X64135000Y-83820000D03*
%TO.P,SW2,2*%
%TO.N,GND*%
X59635000Y-90320000D03*
%TO.P,SW2,1*%
%TO.N,Net-(R5-Pad2)*%
X64135000Y-90320000D03*
%TD*%
D30*
%TO.P,SW1,1*%
%TO.N,Net-(SW1-Pad1)*%
X59690000Y-95250000D03*
D31*
%TO.P,SW1,2*%
%TO.N,Net-(BT1-Pad1)*%
X58275786Y-93835786D03*
%TO.P,SW1,3*%
%TO.N,VCC*%
X56861572Y-92421572D03*
D32*
%TO.P,SW1,*%
%TO.N,*%
X61174924Y-96734924D03*
X55376648Y-90936648D03*
%TD*%
D28*
%TO.P,R6,1*%
%TO.N,VCC*%
X77470000Y-83820000D03*
D29*
%TO.P,R6,2*%
%TO.N,Net-(R6-Pad2)*%
X85090000Y-83820000D03*
%TD*%
D24*
%TO.P,SW3,1*%
%TO.N,Net-(R6-Pad2)*%
X88265000Y-83820000D03*
%TO.P,SW3,2*%
%TO.N,GND*%
X92765000Y-83820000D03*
%TO.P,SW3,1*%
%TO.N,Net-(R6-Pad2)*%
X88265000Y-90320000D03*
%TO.P,SW3,2*%
%TO.N,GND*%
X92765000Y-90320000D03*
%TD*%
D33*
%TO.P,J1,1*%
%TO.N,/sink2*%
X78740000Y-60325000D03*
D34*
%TO.P,J1,3*%
%TO.N,/sink1*%
X76200000Y-60325000D03*
%TO.P,J1,5*%
%TO.N,Net-(J1-Pad5)*%
X73660000Y-60325000D03*
%TO.P,J1,2*%
%TO.N,VCC*%
X78740000Y-62865000D03*
%TO.P,J1,4*%
%TO.N,/sink3*%
X76200000Y-62865000D03*
%TO.P,J1,6*%
%TO.N,GND*%
X73660000Y-62865000D03*
%TD*%
D35*
%TO.N,Net-(D1-Pad2)*%
X67310000Y-103505000D03*
%TO.N,/sink1*%
X71755000Y-131445000D03*
X70485000Y-130175000D03*
X80010000Y-114935000D03*
X80010000Y-113030000D03*
%TO.N,/sink2*%
X70485000Y-61595000D03*
X74930000Y-129540000D03*
X72390000Y-127000000D03*
%TO.N,/sink3*%
X76200000Y-81915000D03*
X69760000Y-67310000D03*
X78740000Y-81915000D03*
X71559847Y-84650153D03*
X73025000Y-130175000D03*
X71120000Y-128270000D03*
X64770000Y-117475000D03*
X62536481Y-98753519D03*
%TO.N,/sink4*%
X74295000Y-90805000D03*
%TD*%
D36*
%TO.N,Net-(BT1-Pad1)*%
X63500000Y-93555232D02*
X62654768Y-92710000D01*
X63500000Y-99058590D02*
X63500000Y-93555232D01*
X62986491Y-99572099D02*
X63500000Y-99058590D01*
X62986491Y-107436491D02*
X62986491Y-99572099D01*
X65913000Y-110363000D02*
X62986491Y-107436491D01*
X69977000Y-110363000D02*
X65913000Y-110363000D01*
X59401572Y-92710000D02*
X58275786Y-93835786D01*
X70504687Y-110890687D02*
X69977000Y-110363000D01*
X62654768Y-92710000D02*
X59401572Y-92710000D01*
X70842432Y-110890687D02*
X70504687Y-110890687D01*
%TO.N,Net-(D1-Pad2)*%
X51426216Y-60960000D02*
X47903221Y-64482995D01*
X53340000Y-60960000D02*
X51426216Y-60960000D01*
X61277500Y-51118996D02*
X61277500Y-53022500D01*
X64492714Y-47903782D02*
X61277500Y-51118996D01*
X61277500Y-53022500D02*
X53340000Y-60960000D01*
X47903221Y-64482995D02*
X47903221Y-70763221D01*
X47903221Y-70763221D02*
X49530000Y-72390000D01*
X49530000Y-72390000D02*
X49530000Y-80645000D01*
X47904476Y-82270524D02*
X47904476Y-87915749D01*
X49530000Y-80645000D02*
X47904476Y-82270524D01*
X78740000Y-103505000D02*
X81915000Y-106680000D01*
X67310000Y-103505000D02*
X78740000Y-103505000D01*
X64480283Y-104493811D02*
X63500000Y-103513528D01*
X63436500Y-103450028D02*
X64480283Y-104493811D01*
X63950010Y-99244990D02*
X63436500Y-99758500D01*
X63950010Y-93368832D02*
X63950010Y-99244990D01*
X61909979Y-89216389D02*
X61909979Y-91328801D01*
X61027600Y-88334010D02*
X61909979Y-89216389D01*
X63436500Y-99758500D02*
X63436500Y-103450028D01*
X51828162Y-88334010D02*
X61027600Y-88334010D01*
X50904086Y-89258086D02*
X51828162Y-88334010D01*
X61909979Y-91328801D02*
X63950010Y-93368832D01*
X49246813Y-89258086D02*
X50904086Y-89258086D01*
X47904476Y-87915749D02*
X49246813Y-89258086D01*
%TO.N,/sink1*%
X76200000Y-60325000D02*
X76200000Y-58420000D01*
X86273343Y-50251657D02*
X86938240Y-50251657D01*
X78105000Y-58420000D02*
X86273343Y-50251657D01*
X76200000Y-58420000D02*
X78105000Y-58420000D01*
X71120000Y-92075000D02*
X71120000Y-95250000D01*
X71206004Y-92075000D02*
X71120000Y-92075000D01*
X74785010Y-85976422D02*
X74785010Y-88495994D01*
X71939990Y-83131402D02*
X74785010Y-85976422D01*
X71939990Y-59505010D02*
X71939990Y-83131402D01*
X73025000Y-58420000D02*
X71939990Y-59505010D01*
X74785010Y-88495994D02*
X71206004Y-92075000D01*
X76200000Y-58420000D02*
X73025000Y-58420000D01*
X77468100Y-109218100D02*
X77468100Y-110917765D01*
X76650010Y-106733598D02*
X76650010Y-108400010D01*
X75021402Y-105104990D02*
X76650010Y-106733598D01*
X76650010Y-108400010D02*
X77468100Y-109218100D01*
X67639990Y-105104990D02*
X75021402Y-105104990D01*
X65452299Y-102917299D02*
X67639990Y-105104990D01*
X65452299Y-102147157D02*
X65452299Y-102917299D01*
X74928347Y-134618347D02*
X71755000Y-131445000D01*
X74928347Y-136678639D02*
X74928347Y-134618347D01*
X80010000Y-120650000D02*
X80010000Y-114935000D01*
X70485000Y-130175000D02*
X80010000Y-120650000D01*
X79167765Y-110917765D02*
X77468100Y-110917765D01*
X80010000Y-111760000D02*
X79167765Y-110917765D01*
X80010000Y-113030000D02*
X80010000Y-111760000D01*
X65452299Y-102147157D02*
X66127843Y-102147157D01*
X68580000Y-99695000D02*
X68580000Y-98425000D01*
X66127843Y-102147157D02*
X68580000Y-99695000D01*
X71120000Y-95250000D02*
X71120000Y-97028000D01*
X70675500Y-97472500D02*
X69532500Y-97472500D01*
X71120000Y-97028000D02*
X70675500Y-97472500D01*
X69532500Y-97472500D02*
X68580000Y-98425000D01*
%TO.N,/sink2*%
X102143312Y-65441119D02*
X102143312Y-66131688D01*
X102143312Y-66131688D02*
X100965000Y-67310000D01*
X99060000Y-67310000D02*
X92075000Y-60325000D01*
X100965000Y-67310000D02*
X99060000Y-67310000D01*
X78740000Y-60325000D02*
X92075000Y-60325000D01*
X50251130Y-86273870D02*
X50251130Y-86943733D01*
X55245000Y-81280000D02*
X50251130Y-86273870D01*
X61593590Y-81280000D02*
X55245000Y-81280000D01*
X70485000Y-72388590D02*
X61593590Y-81280000D01*
X70485000Y-61595000D02*
X70485000Y-72388590D01*
X79198244Y-133808244D02*
X74930000Y-129540000D01*
X84414865Y-133808244D02*
X79198244Y-133808244D01*
X72390000Y-118190357D02*
X67990168Y-113790525D01*
X72390000Y-127000000D02*
X72390000Y-118190357D01*
X50875733Y-86943733D02*
X50251130Y-86943733D01*
X51816000Y-87884000D02*
X50875733Y-86943733D01*
X62359989Y-89029989D02*
X61214000Y-87884000D01*
X62359989Y-91142401D02*
X62359989Y-89029989D01*
X61214000Y-87884000D02*
X51816000Y-87884000D01*
X63312599Y-92095011D02*
X62359989Y-91142401D01*
X67457011Y-92095011D02*
X63312599Y-92095011D01*
X68580000Y-93218000D02*
X67457011Y-92095011D01*
X68580000Y-95250000D02*
X68580000Y-93218000D01*
%TO.N,/sink3*%
X76200000Y-62865000D02*
X76200000Y-81915000D01*
X67945000Y-67310000D02*
X69760000Y-67310000D01*
X51435000Y-67310000D02*
X67945000Y-67310000D01*
X50249875Y-66124875D02*
X51435000Y-67310000D01*
X50249875Y-65455011D02*
X50249875Y-66124875D01*
X78740000Y-81915000D02*
X97790000Y-81915000D01*
X102154310Y-86279310D02*
X102154310Y-86951258D01*
X97790000Y-81915000D02*
X102154310Y-86279310D01*
X71559847Y-84650153D02*
X69410153Y-84650153D01*
X68580000Y-85480306D02*
X68580000Y-87630000D01*
X69410153Y-84650153D02*
X68580000Y-85480306D01*
X78125186Y-125074814D02*
X73025000Y-130175000D01*
X89078839Y-125074814D02*
X78125186Y-125074814D01*
X65378504Y-122528504D02*
X63311052Y-122528504D01*
X71120000Y-128270000D02*
X65378504Y-122528504D01*
X64770000Y-114641855D02*
X64770000Y-117475000D01*
X65594795Y-110681205D02*
X65594795Y-113817059D01*
X65594795Y-113817059D02*
X64770000Y-114641855D01*
X62536481Y-107622891D02*
X65594795Y-110681205D01*
X62536481Y-98753519D02*
X62536481Y-107622891D01*
%TO.N,/sink4*%
X71120000Y-89535000D02*
X71120000Y-87630000D01*
X69009999Y-91645001D02*
X71120000Y-89535000D01*
X63498999Y-91645001D02*
X69009999Y-91645001D01*
X62809999Y-90956001D02*
X63498999Y-91645001D01*
X71489980Y-72020020D02*
X62809999Y-80700001D01*
X71489980Y-55614980D02*
X71489980Y-72020020D01*
X66125436Y-50250436D02*
X71489980Y-55614980D01*
X62809999Y-80700001D02*
X62809999Y-90956001D01*
X65464730Y-50250436D02*
X66125436Y-50250436D01*
X69797510Y-132016332D02*
X86216960Y-115596882D01*
X66183202Y-132016332D02*
X69797510Y-132016332D01*
X83820000Y-90805000D02*
X74295000Y-90805000D01*
X86942570Y-93927570D02*
X83820000Y-90805000D01*
X86942570Y-102166135D02*
X86942570Y-101779430D01*
X86942570Y-101779430D02*
X87376000Y-101346000D01*
X87376000Y-100076000D02*
X86942570Y-99642570D01*
X87376000Y-101346000D02*
X87376000Y-100076000D01*
X86942570Y-99642570D02*
X86942570Y-93927570D01*
%TO.N,Net-(D10-Pad2)*%
X74295000Y-106680000D02*
X74295000Y-108585000D01*
X74928100Y-109218100D02*
X74928100Y-110917765D01*
X74295000Y-108585000D02*
X74928100Y-109218100D01*
X64585400Y-132150958D02*
X64585400Y-126342852D01*
X66246825Y-133812383D02*
X64585400Y-132150958D01*
X64585400Y-126342852D02*
X63311052Y-125068504D01*
X67979253Y-133812383D02*
X66246825Y-133812383D01*
X63311052Y-125068504D02*
X62086051Y-123843503D01*
X66194117Y-117260437D02*
X66194117Y-115586576D01*
X62086051Y-121368503D02*
X66194117Y-117260437D01*
X62086051Y-123843503D02*
X62086051Y-121368503D01*
X73323605Y-112522260D02*
X74928100Y-110917765D01*
X69837074Y-112192723D02*
X70166611Y-112522260D01*
X70166611Y-112522260D02*
X73323605Y-112522260D01*
X67855542Y-112192723D02*
X69837074Y-112192723D01*
X66194117Y-113854148D02*
X67855542Y-112192723D01*
X66194117Y-115586576D02*
X66194117Y-113854148D01*
%TO.N,/source1*%
X81280000Y-95250000D02*
X81280000Y-97155000D01*
X81915000Y-97790000D02*
X81915000Y-99060000D01*
X81280000Y-97155000D02*
X81915000Y-97790000D01*
%TO.N,/source2*%
X78740000Y-95250000D02*
X78740000Y-97155000D01*
X78105000Y-97790000D02*
X78105000Y-99060000D01*
X78740000Y-97155000D02*
X78105000Y-97790000D01*
%TO.N,/source3*%
X76200000Y-97155000D02*
X74295000Y-99060000D01*
X76200000Y-95250000D02*
X76200000Y-97155000D01*
%TO.N,VCC*%
X74930000Y-83820000D02*
X77470000Y-83820000D01*
X77470000Y-83820000D02*
X77470000Y-66040000D01*
X78740000Y-64770000D02*
X78740000Y-62865000D01*
X77470000Y-66040000D02*
X78740000Y-64770000D01*
X83820000Y-87630000D02*
X83820000Y-89535000D01*
X83820000Y-89535000D02*
X78105000Y-89535000D01*
X78105000Y-89535000D02*
X77470000Y-88900000D01*
X77470000Y-83820000D02*
X77470000Y-88900000D01*
X84455000Y-89535000D02*
X88265000Y-93345000D01*
X83820000Y-89535000D02*
X84455000Y-89535000D01*
%TO.N,Net-(J1-Pad5)*%
X76200000Y-85725000D02*
X76200000Y-87630000D01*
X75420001Y-84945001D02*
X76200000Y-85725000D01*
X72390000Y-82945002D02*
X74389999Y-84945001D01*
X72390000Y-61595000D02*
X72390000Y-82945002D01*
X74389999Y-84945001D02*
X75420001Y-84945001D01*
X73660000Y-60325000D02*
X72390000Y-61595000D01*
%TO.N,Net-(D5-Pad2)*%
X84622374Y-107805001D02*
X87914586Y-104512789D01*
X79230001Y-107805001D02*
X84622374Y-107805001D01*
X78105000Y-106680000D02*
X79230001Y-107805001D01*
X88814585Y-102492177D02*
X100501762Y-90805000D01*
X88814585Y-103612790D02*
X88814585Y-102492177D01*
X87914586Y-104512789D02*
X88814585Y-103612790D01*
X101619238Y-90805000D02*
X104500964Y-87923274D01*
X100501762Y-90805000D02*
X101619238Y-90805000D01*
X104500964Y-87923274D02*
X104500964Y-84180964D01*
X103505000Y-83185000D02*
X103505000Y-69215000D01*
X104500964Y-84180964D02*
X103505000Y-83185000D01*
X104489966Y-68230034D02*
X104489966Y-64469103D01*
X103505000Y-69215000D02*
X104489966Y-68230034D01*
X104489966Y-64469103D02*
X99710863Y-59690000D01*
X99710863Y-59690000D02*
X97790000Y-59690000D01*
X92075126Y-53975126D02*
X92075126Y-52069874D01*
X97790000Y-59690000D02*
X92075126Y-53975126D01*
X92075126Y-52069874D02*
X87910256Y-47905003D01*
%TO.N,Net-(D13-Pad2)*%
X87814762Y-121270737D02*
X89078839Y-122534814D01*
X87814762Y-115462256D02*
X87814762Y-121270737D01*
X86153337Y-113800831D02*
X87814762Y-115462256D01*
X84420909Y-113800831D02*
X86153337Y-113800831D01*
X86210916Y-130327739D02*
X86210916Y-132012193D01*
X90303840Y-126234815D02*
X86210916Y-130327739D01*
X90303840Y-123759815D02*
X90303840Y-126234815D01*
X89078839Y-122534814D02*
X90303840Y-123759815D01*
X84549491Y-135406046D02*
X78740940Y-135406046D01*
X78740940Y-135406046D02*
X77468347Y-136678639D01*
X86210916Y-133744621D02*
X84549491Y-135406046D01*
X86210916Y-132012193D02*
X86210916Y-133744621D01*
X77966164Y-113800831D02*
X76200000Y-112034667D01*
X84420909Y-113800831D02*
X77966164Y-113800831D01*
X71610001Y-105554999D02*
X70485000Y-106680000D01*
X74835001Y-105554999D02*
X71610001Y-105554999D01*
X76200000Y-106919998D02*
X74835001Y-105554999D01*
X76200000Y-112034667D02*
X76200000Y-106919998D01*
%TO.N,/source4*%
X73660000Y-95250000D02*
X73660000Y-97155000D01*
X71755000Y-99060000D02*
X70485000Y-99060000D01*
X73660000Y-97155000D02*
X71755000Y-99060000D01*
%TO.N,Net-(R5-Pad2)*%
X64135000Y-83820000D02*
X67310000Y-83820000D01*
X64135000Y-90320000D02*
X64135000Y-83820000D01*
X71755000Y-83820000D02*
X67310000Y-83820000D01*
X71992178Y-83820000D02*
X71755000Y-83820000D01*
X73660000Y-85487822D02*
X71992178Y-83820000D01*
X73660000Y-87630000D02*
X73660000Y-85487822D01*
%TO.N,Net-(R6-Pad2)*%
X88265000Y-90320000D02*
X88265000Y-83820000D01*
X88265000Y-83820000D02*
X85090000Y-83820000D01*
X78740000Y-85725000D02*
X80645000Y-83820000D01*
X85090000Y-83820000D02*
X80645000Y-83820000D01*
X78740000Y-85725000D02*
X78740000Y-87630000D01*
%TD*%
M02*
